<svg width="187" height="32" viewBox="0 0 187 32" fill="none" xmlns="http://www.w3.org/2000/svg">
<path fill-rule="evenodd" clip-rule="evenodd" d="M27.4139 19.122C26.8558 19.4747 26.1986 19.5184 25.6991 19.2367C25.0646 18.8784 24.7157 18.0394 24.7157 16.8726V13.3815C24.7157 11.6956 24.0492 10.496 22.9346 10.1721C21.0459 9.62185 19.6254 11.9329 19.0915 12.8008L15.7604 18.2018V11.6004C15.7229 10.0816 15.2297 9.17307 14.2931 8.89912C13.6734 8.71805 12.7461 8.79063 11.8455 10.169L4.38244 22.1526C3.38332 20.2558 2.86248 18.1438 2.86517 16C2.86517 8.78127 8.65015 2.90888 15.7604 2.90888C22.8706 2.90888 28.6548 8.78127 28.6548 16C28.6548 16.0125 28.6579 16.0234 28.6587 16.0351C28.6587 16.0476 28.6564 16.0585 28.6572 16.071C28.7243 17.4689 28.2716 18.5811 27.4139 19.1227V19.122ZM31.52 16.0008V16V15.9641L31.5192 15.9282C31.4794 7.13678 24.4261 0 15.7596 0C7.07044 0 0 7.17737 0 16C0 24.8219 7.07044 32 15.7604 32C19.7479 32 23.5536 30.4843 26.4749 27.7331C27.0556 27.1867 27.0899 26.2665 26.5514 25.678C26.4247 25.5383 26.2713 25.4252 26.1003 25.3454C25.9293 25.2657 25.7441 25.2209 25.5555 25.2136C25.367 25.2063 25.1789 25.2368 25.0022 25.3031C24.8256 25.3695 24.664 25.4704 24.5268 25.6C22.1589 27.8423 19.0215 29.0917 15.7604 29.0911C11.9532 29.0911 8.52761 27.406 6.16507 24.7337L12.8952 13.927V18.9089C12.8952 21.3019 13.8232 22.0753 14.6014 22.3017C15.3803 22.528 16.5705 22.3735 17.8201 20.3442L21.5219 14.343C21.6406 14.1495 21.7499 13.9824 21.8498 13.838V16.8726C21.8498 19.1095 22.7458 20.8983 24.3075 21.7795C25.7155 22.574 27.4857 22.5022 28.928 21.5922C30.6763 20.4878 31.6183 18.4531 31.52 16.0008ZM53.4618 10.5342C53.8404 10.7645 54.1682 11.2765 54.1682 11.7378C54.1682 12.48 53.5376 13.0942 52.8312 13.0942C52.6548 13.0942 52.4784 13.0435 52.327 12.992C51.4942 12.3778 50.4351 11.968 49.3253 11.968C46.7028 11.968 44.8866 14.1182 44.8866 16.7805C44.8866 19.4435 46.7028 21.568 49.3253 21.568C50.6365 21.568 51.7971 21.0302 52.6798 20.2115C52.9079 20.0476 53.181 19.9582 53.4618 19.9555C54.1682 19.9555 54.7231 20.5182 54.7231 21.2355C54.7231 21.696 54.4453 22.1058 54.0925 22.336C52.8312 23.4115 51.1165 24.128 49.351 24.128C45.3159 24.128 42.0363 20.8 42.0363 16.704C42.0363 12.608 45.3151 9.28 49.351 9.28C50.8644 9.28 52.3013 9.74049 53.4618 10.5342ZM60.8406 13.632C63.5895 13.632 65.9098 15.9618 65.9098 18.8285C65.9098 21.696 63.5895 24.128 60.8406 24.128C57.9653 24.128 55.5692 21.696 55.5692 18.8285C55.5692 15.9618 57.9653 13.632 60.8406 13.632ZM60.8148 21.568C62.0261 21.568 63.0595 20.416 63.0595 18.8542C63.0595 17.2933 62.0261 16.32 60.8148 16.32C59.5036 16.32 58.4187 17.2675 58.4187 18.8542C58.4187 20.416 59.5036 21.568 60.8148 21.568ZM67.6386 22.5405V15.2195C67.6386 14.4258 68.2693 13.76 69.0513 13.76C69.8334 13.76 70.489 14.4258 70.489 15.2195V22.5405C70.489 23.3342 69.8334 24 69.0513 24C68.2693 24 67.6386 23.3342 67.6386 22.5405ZM67.4123 10.9955C67.4123 10.048 68.1428 9.28 69.0513 9.28C69.984 9.28 70.7411 10.048 70.7411 10.9955C70.7411 11.9165 69.984 12.6595 69.0513 12.6595C68.1428 12.6595 67.4123 11.9165 67.4123 10.9955ZM75.9508 18.5725V22.5405C75.9508 23.3342 75.2952 24 74.5124 24C73.7311 24 73.0997 23.3342 73.0997 22.5405V14.8862C73.0997 14.272 73.6047 13.76 74.2103 13.76C74.8152 13.76 75.2952 14.272 75.2952 14.8862C76.455 13.8115 77.4634 13.632 78.4218 13.632C81.2722 13.632 82.5335 15.7822 82.5335 18.2142V22.5405C82.5335 23.3342 81.8778 24 81.0958 24C80.3137 24 79.6831 23.3342 79.6831 22.5405V18.5725C79.6831 17.3182 79.5317 16.2685 77.7413 16.2685C76.48 16.2685 75.95 17.3182 75.95 18.5725H75.9508ZM91.8033 20.0835C91.4755 20.0835 91.2492 19.9298 91.072 19.7245L87.7424 16.1155V22.5405C87.7424 23.3342 87.0868 24 86.3048 24C85.5227 24 84.8921 23.3342 84.8921 22.5405V9.81854C84.9329 9.71136 85.0057 9.61937 85.1007 9.55512C85.1957 9.49086 85.3082 9.45748 85.4228 9.45951C85.6741 9.45951 85.8755 9.66478 86.0277 9.81854L91.3241 15.783C91.4755 15.9625 91.6769 16.0648 91.7783 16.0648C91.879 16.0648 92.0804 15.9625 92.2318 15.7838L97.529 9.81854C97.6804 9.66478 97.8817 9.45951 98.1338 9.45951C98.3859 9.45951 98.5881 9.61327 98.6638 9.81854V22.5405C98.6638 23.3342 98.0332 24 97.2511 24C96.4691 24 95.8135 23.3342 95.8135 22.5405V16.1155L92.4847 19.7245C92.3075 19.9298 92.0804 20.0835 91.8033 20.0835ZM105.513 21.568C106.799 21.568 107.883 20.416 107.883 18.8542C107.883 17.2933 106.774 16.2685 105.513 16.2685C104.251 16.2685 103.242 17.3182 103.242 18.8542C103.242 20.3645 104.251 21.568 105.513 21.568ZM108.539 22.8738L108.488 22.5405C107.934 23.641 106.167 24.128 105.033 24.128C102.359 24.128 100.392 21.696 100.392 18.8285C100.392 15.9618 102.409 13.632 105.184 13.632C105.663 13.632 107.252 13.76 108.488 15.2195L108.539 14.8862C108.539 14.272 109.018 13.76 109.623 13.76C110.228 13.76 110.732 14.272 110.732 14.8862V22.8738C110.732 23.488 110.228 24 109.623 24C109.018 24 108.538 23.488 108.538 22.8738H108.539ZM118.641 16.2685H118.339C116.548 16.3715 116.195 17.3955 116.195 18.5725V22.5405C116.195 23.3342 115.54 24 114.757 24C113.975 24 113.345 23.3342 113.345 22.5405V14.8862C113.345 14.272 113.849 13.76 114.455 13.76C115.06 13.76 115.54 14.272 115.54 14.8862C116.599 13.888 117.456 13.6835 118.339 13.632H118.616C119.298 13.632 119.927 14.2205 119.927 14.9635C119.927 15.6542 119.323 16.2685 118.641 16.2685ZM129.627 21.8755C129.753 22.08 129.829 22.3102 129.829 22.5662C129.829 23.3085 129.147 24 128.416 24C127.912 24 127.483 23.616 127.155 23.2062L123.877 19.392V22.5405C123.877 23.3342 123.22 24 122.438 24C121.656 24 121.026 23.3342 121.026 22.5405V10.919C121.026 10.1245 121.656 9.45951 122.438 9.45951C123.22 9.45951 123.876 10.1245 123.876 10.919V18.1635L127.155 14.528C127.483 14.144 127.886 13.76 128.391 13.76C129.097 13.76 129.753 14.4258 129.753 15.168C129.753 15.3982 129.702 15.6285 129.576 15.8338L126.978 18.6747L129.627 21.8747V21.8755ZM135.215 16.32C134.433 16.32 133.172 16.7298 133.172 17.9325H137.282C137.282 16.704 135.971 16.32 135.214 16.32H135.215ZM138.947 19.7502H133.172C133.172 21.4658 134.811 21.7218 135.542 21.7218C136.073 21.7218 136.829 21.6195 137.409 21.3627C137.585 21.2355 137.888 21.1325 138.14 21.1325C138.771 21.1325 139.3 21.671 139.3 22.311C139.3 22.7458 139.023 23.1298 138.67 23.3342C137.787 23.9742 136.652 24.128 135.568 24.128C132.692 24.128 130.296 22.567 130.296 18.9565C130.296 16.1155 131.759 13.632 135.164 13.632C137.913 13.632 140.006 15.424 140.057 18.624C140.057 19.2382 139.553 19.7502 138.947 19.7502ZM146.881 24.128H146.099C143.929 24.128 142.668 23.1805 142.668 19.776V16.2685H141.937C141.256 16.2685 140.651 15.6542 140.651 14.9635C140.651 14.2205 141.256 13.632 141.937 13.632H142.668V10.9182C142.668 10.1245 143.299 9.45873 144.081 9.45873C144.862 9.45873 145.519 10.1245 145.519 10.9182V13.632H146.704C147.385 13.632 147.991 14.2205 147.991 14.9635C147.991 15.6542 147.385 16.2685 146.704 16.2685H145.519V19.2125C145.519 21.1582 145.619 21.568 146.477 21.568H146.881C147.561 21.568 148.141 22.1315 148.141 22.848C148.141 23.5395 147.561 24.128 146.881 24.128ZM160.691 10.5342C161.068 10.7645 161.397 11.2765 161.397 11.7378C161.397 12.48 160.766 13.0942 160.06 13.0942C159.884 13.0942 159.707 13.0435 159.556 12.992C158.723 12.3778 157.664 11.968 156.554 11.968C153.932 11.968 152.115 14.1182 152.115 16.7805C152.115 19.4435 153.931 21.568 156.554 21.568C157.865 21.568 159.026 21.0302 159.909 20.2115C160.137 20.0476 160.41 19.9582 160.691 19.9555C161.397 19.9555 161.951 20.5182 161.951 21.2355C161.951 21.696 161.674 22.1058 161.321 22.336C160.06 23.4115 158.345 24.128 156.579 24.128C152.544 24.128 149.265 20.8 149.265 16.704C149.265 12.608 152.543 9.28 156.579 9.28C158.093 9.28 159.53 9.74049 160.691 10.5342ZM167.918 21.568C169.204 21.568 170.288 20.416 170.288 18.8542C170.288 17.2933 169.179 16.2685 167.917 16.2685C166.657 16.2685 165.648 17.3182 165.648 18.8542C165.648 20.3645 166.657 21.568 167.917 21.568H167.918ZM170.944 22.8738L170.894 22.5405C170.339 23.641 168.574 24.128 167.438 24.128C164.765 24.128 162.797 21.696 162.797 18.8285C162.797 15.9618 164.816 13.632 167.589 13.632C168.069 13.632 169.658 13.76 170.894 15.2195L170.944 14.8862C170.944 14.272 171.423 13.76 172.029 13.76C172.634 13.76 173.139 14.272 173.139 14.8862V22.8738C173.139 23.488 172.634 24 172.029 24C171.423 24 170.944 23.488 170.944 22.8738ZM180.971 21.568C182.232 21.568 183.241 20.3645 183.241 18.8542C183.241 17.3182 182.232 16.2685 180.971 16.2685C179.71 16.2685 178.6 17.2925 178.6 18.8542C178.6 20.416 179.685 21.568 180.971 21.568ZM178.6 23.2835V26.9182C178.6 27.712 177.944 28.3778 177.162 28.3778C176.381 28.3778 175.749 27.712 175.749 26.9182V14.8862C175.749 14.272 176.254 13.76 176.86 13.76C177.465 13.76 177.945 14.272 177.945 14.9885C179.003 13.888 180.315 13.632 181.299 13.632C184.073 13.632 186.091 15.9618 186.091 18.8285C186.091 21.696 184.124 24.128 181.45 24.128C180.618 24.128 179.382 23.872 178.6 23.2835Z" fill="black" fill-opacity="0.85"/>
</svg>
