<svg width="180" height="40" viewBox="0 0 180 40" fill="none" xmlns="http://www.w3.org/2000/svg">
<g clip-path="url(#clip0_915_1440)">
<path d="M0 39.7603L17.625 6.8882L33.1908 0L15.5413 32.8722L0 39.7603Z" fill="black"/>
<path d="M17.5762 32.2595L30.9603 7.28052L38.6083 14.8061L25.3713 39.834L17.5762 32.2595Z" fill="black"/>
<path d="M40.0789 15.5413L49.9822 19.1693L45.0305 28.2881L33.019 28.7048L40.0789 15.5413Z" fill="black"/>
<path d="M62.1897 32.8478H55.5957V14.2422H62.2387C64.1017 14.2422 65.7197 14.6099 67.0679 15.3453C68.416 16.0807 69.4702 17.1593 70.181 18.5319C70.9164 19.9293 71.2595 21.5716 71.2595 23.5081C71.2595 25.4448 70.8919 27.1116 70.1565 28.5089C69.4212 29.9061 68.3915 30.9601 67.0189 31.7201C65.6952 32.4799 64.0772 32.8478 62.1897 32.8478ZM59.5179 29.4649H62.0182C63.7585 29.4649 65.0824 28.9991 65.9894 28.0431C66.8962 27.1116 67.3375 25.5918 67.3375 23.5081C67.3375 21.4491 66.8962 19.9538 65.9894 18.9978C65.0824 18.0663 63.7585 17.6004 62.0182 17.6004H59.5179V29.4649Z" fill="black"/>
<path d="M74.2012 32.8475H69.9849L76.4074 14.2666H81.4815L87.8795 32.8475H83.6632L82.2905 28.6068H75.5739L74.2012 32.8475ZM76.5789 25.5427H81.31L79.0302 18.5073H78.8832L76.5789 25.5427Z" fill="black"/>
<path d="M104.009 23.5572C104.009 25.5917 103.617 27.3077 102.857 28.7293C102.097 30.1512 101.043 31.2297 99.744 31.9897C98.4203 32.725 96.9495 33.1172 95.3071 33.1172C93.6648 33.1172 92.1695 32.7495 90.8703 31.9897C89.5465 31.2297 88.517 30.1512 87.7572 28.7293C86.9972 27.3077 86.605 25.5917 86.605 23.5817C86.605 21.547 86.9972 19.8312 87.7572 18.4093C88.517 16.9875 89.5465 15.909 90.8703 15.1491C92.194 14.4137 93.6648 14.0215 95.3071 14.0215C96.9495 14.0215 98.4203 14.3892 99.744 15.1491C101.068 15.8845 102.097 16.9875 102.857 18.4093C103.642 19.782 104.009 21.5225 104.009 23.5572ZM100.038 23.5572C100.038 21.596 99.597 20.0762 98.739 19.0467C97.881 18.0172 96.7288 17.4778 95.3071 17.4778C93.8853 17.4778 92.7333 17.9927 91.8753 19.0467C91.0173 20.1007 90.5761 21.596 90.5761 23.5572C90.5761 25.5182 91.0173 27.038 91.8753 28.0675C92.7333 29.097 93.8853 29.6363 95.3071 29.6363C96.7288 29.6363 97.881 29.1217 98.739 28.0675C99.597 27.0135 100.038 25.5182 100.038 23.5572Z" fill="black"/>
<path d="M109.28 14.2422H114.133L119.257 26.7439H119.477L124.6 14.2422H129.43V32.8478H125.606V20.7383H125.458L120.654 32.7496H118.055L113.251 20.6891H113.104V32.8478H109.28V14.2422Z" fill="black"/>
<path d="M135.141 33.0929C133.817 33.0929 132.714 32.7496 131.832 32.0388C130.949 31.3524 130.508 30.2984 130.508 28.9256C130.508 27.8961 130.753 27.0626 131.243 26.4743C131.733 25.8859 132.371 25.4448 133.18 25.1751C133.964 24.9054 134.822 24.7094 135.754 24.6358C136.955 24.5133 137.837 24.3908 138.352 24.2436C138.867 24.0966 139.137 23.8269 139.137 23.3611V23.3121C139.137 22.7483 138.965 22.2826 138.597 21.9884C138.23 21.6698 137.739 21.5226 137.077 21.5226C136.391 21.5226 135.827 21.6698 135.41 21.9884C134.994 22.2826 134.724 22.6748 134.601 23.1404L131.023 22.8464C131.292 21.5716 131.954 20.5666 133.008 19.8313C134.062 19.0958 135.435 18.7036 137.102 18.7036C138.132 18.7036 139.112 18.8753 139.995 19.1939C140.902 19.5126 141.612 20.0273 142.176 20.7138C142.74 21.4001 143.01 22.3071 143.01 23.4101V32.8478H139.333V30.9111H139.235C138.891 31.5486 138.401 32.0878 137.715 32.5046C137.028 32.8968 136.171 33.0929 135.141 33.0929ZM136.244 30.4454C137.102 30.4454 137.788 30.2003 138.328 29.7101C138.867 29.2198 139.137 28.6069 139.137 27.8716V26.4008C138.99 26.4988 138.744 26.5969 138.426 26.6704C138.107 26.7439 137.764 26.8174 137.421 26.8664C137.053 26.9156 136.734 26.9646 136.465 27.0136C135.778 27.1116 135.239 27.3078 134.822 27.5774C134.405 27.8716 134.209 28.2883 134.209 28.8276C134.209 29.3669 134.405 29.7591 134.798 30.0288C135.165 30.2984 135.656 30.4454 136.244 30.4454Z" fill="black"/>
<path d="M144.48 32.8478V14.2422H148.354V24.1701H148.574L153.036 18.8753H157.472L152.3 24.9054L157.742 32.8231H153.207L149.383 27.2096L148.329 28.4108V32.8478H144.48Z" fill="black"/>
<path d="M163.331 33.1172C161.909 33.1172 160.684 32.8232 159.63 32.2349C158.6 31.6465 157.791 30.813 157.252 29.759C156.688 28.6804 156.418 27.4057 156.418 25.9349C156.418 24.5132 156.688 23.2385 157.252 22.1599C157.816 21.0814 158.6 20.2234 159.605 19.635C160.61 19.0222 161.811 18.728 163.184 18.728C164.41 18.728 165.513 18.9977 166.518 19.5125C167.498 20.0272 168.283 20.8117 168.872 21.8657C169.46 22.9199 169.753 24.219 169.753 25.8124V26.8664H160.267C160.267 27.896 160.561 28.7294 161.125 29.3177C161.689 29.906 162.473 30.2247 163.429 30.2247C164.066 30.2247 164.63 30.0777 165.096 29.808C165.562 29.5384 165.905 29.1217 166.101 28.6069L169.68 28.852C169.41 30.1512 168.723 31.1807 167.622 31.9652C166.493 32.725 165.072 33.1172 163.331 33.1172ZM160.242 24.4642H166.101C166.101 23.6307 165.831 22.9444 165.292 22.405C164.753 21.8657 164.091 21.596 163.233 21.596C162.375 21.596 161.664 21.8657 161.125 22.4295C160.586 22.9934 160.291 23.6797 160.242 24.4642Z" fill="black"/>
<path d="M170.71 32.8478V18.8998H174.46V21.3266H174.607C174.852 20.4686 175.293 19.8068 175.882 19.3654C176.47 18.9243 177.182 18.7036 177.942 18.7036C178.382 18.7036 178.775 18.7526 179.167 18.8508V22.2826C178.995 22.2336 178.725 22.1844 178.407 22.1354C178.088 22.0864 177.793 22.0864 177.525 22.0864C176.667 22.0864 175.955 22.3561 175.417 22.8954C174.852 23.4346 174.583 24.1211 174.583 24.9789V32.8478H170.71Z" fill="black"/>
</g>
<defs>
<clipPath id="clip0_915_1440">
<rect width="179.167" height="40" fill="white"/>
</clipPath>
</defs>
</svg>
