<svg width="145" height="20" viewBox="0 0 145 20" fill="none" xmlns="http://www.w3.org/2000/svg">
<g clip-path="url(#clip0_714_2206)">
<path d="M18.1323 12.8015H9.3385C9.10508 12.8015 8.98833 12.6848 8.98833 12.4513V7.78204C8.98833 7.52264 9.10508 7.39294 9.3385 7.39294H20.9338C21.3489 7.39294 21.751 7.49669 22.1401 7.70422C22.5552 7.88579 22.9182 8.1452 23.2296 8.48244C23.5668 8.81969 23.8262 9.19577 24.0077 9.61085C24.2153 10.0259 24.3191 10.4409 24.3191 10.8559V16.5759C24.3191 17.0168 24.2153 17.4449 24.0077 17.8599C23.8262 18.2489 23.5668 18.6121 23.2296 18.9494C22.9182 19.2606 22.5552 19.52 22.1401 19.7276C21.751 19.9092 21.3489 19.9999 20.9338 19.9999H3.42412C3.00908 19.9999 2.59403 19.9092 2.17899 19.7276C1.78988 19.52 1.42672 19.2606 1.08949 18.9494C0.77821 18.6121 0.518807 18.2489 0.311284 17.8599C0.103762 17.4449 0 17.0168 0 16.5759V3.65752C0 3.24248 0.103762 2.82743 0.311284 2.41239C0.518807 1.99734 0.77821 1.63418 1.08949 1.32289C1.42672 0.985669 1.78988 0.726264 2.17899 0.544683C2.59403 0.33716 3.00908 0.233398 3.42412 0.233398H23.9688C24.2023 0.233398 24.3191 0.35013 24.3191 0.583593V5.71978C24.3191 5.95324 24.2023 6.06998 23.9688 6.06998H6.22568V14.1244H18.1323V12.8015Z" fill="black"/>
<path d="M44.2464 6.96492C44.2464 6.75739 44.0907 6.65363 43.7794 6.65363C43.5719 6.65363 43.3384 6.77036 43.079 7.00383C42.8456 7.21135 42.6251 7.43184 42.4175 7.6653L42.4564 7.62639L39.2658 11.5174H44.2464V6.96492ZM50.4331 4.90266V19.6109C50.4331 19.8703 50.3164 19.9999 50.0829 19.9999H44.6354C44.376 19.9999 44.2464 19.8703 44.2464 19.6109V16.8482H35.258L32.8845 19.8443C32.8585 19.948 32.7548 19.9999 32.5732 19.9999H26.1919C26.0103 19.9999 25.8936 19.9351 25.8417 19.8054C25.7898 19.6498 25.8028 19.5071 25.8806 19.3774L39.2269 1.63418C39.8754 1.11537 40.7055 0.752205 41.7172 0.544683C42.7289 0.33716 43.7794 0.233398 44.8689 0.233398C45.699 0.233398 46.4513 0.311219 47.1258 0.466861C47.8261 0.596563 48.4098 0.842994 48.8767 1.20616C49.3696 1.56933 49.7457 2.04922 50.0051 2.64585C50.2904 3.24248 50.4331 3.99474 50.4331 4.90266Z" fill="black"/>
<path d="M59.4899 19.9999H54.0424C53.783 19.9999 53.6533 19.8703 53.6533 19.6109V2.99604C53.6533 2.65882 53.7442 2.32159 53.9257 1.98437C54.1072 1.64714 54.3537 1.34884 54.665 1.08943C55.0022 0.830026 55.3783 0.622503 55.7934 0.466861C56.2085 0.311219 56.6494 0.233398 57.1163 0.233398H58.6339C59.3862 0.31122 60.1125 0.583593 60.8128 1.05052C61.5132 1.4915 62.071 2.04922 62.486 2.72367L68.167 12.14L73.8868 2.72367C74.3018 2.04922 74.8466 1.4915 75.5211 1.05052C76.2214 0.583593 76.9477 0.31122 77.7 0.233398H79.2176C79.6845 0.233398 80.1254 0.311219 80.5405 0.466861C80.9815 0.622503 81.3576 0.830026 81.6689 1.08943C82.0062 1.34884 82.2655 1.64714 82.4471 1.98437C82.6287 2.32159 82.7195 2.65882 82.7195 2.99604V19.6109C82.7195 19.8703 82.5897 19.9999 82.3304 19.9999H76.8829C76.6235 19.9999 76.4938 19.8703 76.4938 19.6109V10.4279C75.4043 12.2438 74.3926 13.8391 73.4588 15.2139C72.5509 16.5629 71.8505 17.5745 71.3576 18.2489C70.7869 19.0013 70.2551 19.4811 69.7622 19.6887C69.2694 19.8962 68.8803 19.9999 68.595 19.9999H67.7778C67.3109 19.9999 66.8699 19.8962 66.4549 19.6887C66.0657 19.4811 65.5859 19.0013 65.0152 18.2489C64.4964 17.5745 63.7701 16.5629 62.8362 15.2139C61.9283 13.8391 60.9296 12.2438 59.8401 10.4279V19.6109C59.8401 19.8703 59.7234 19.9999 59.4899 19.9999Z" fill="black"/>
<path d="M103.868 7.39294H93.8679C93.6346 7.39294 93.5179 7.52264 93.5179 7.78204V12.4513C93.5179 12.6848 93.6346 12.8015 93.8679 12.8015H106.67C107.085 12.8015 107.486 12.7107 107.875 12.5291C108.29 12.3216 108.654 12.0622 108.965 11.7509C109.302 11.4137 109.562 11.0505 109.743 10.6614C109.951 10.2464 110.055 9.81835 110.055 9.37735V3.65752C110.055 3.24248 109.951 2.82743 109.743 2.41239C109.562 1.99734 109.302 1.63418 108.965 1.32289C108.654 0.985669 108.29 0.726264 107.875 0.544683C107.486 0.33716 107.085 0.233398 106.67 0.233398H89.3929C88.9779 0.233398 88.5629 0.33716 88.1479 0.544683C87.7587 0.726264 87.3954 0.985669 87.0587 1.32289C86.7471 1.63418 86.4879 1.99734 86.2804 2.41239C86.0729 2.82743 85.9688 3.24248 85.9688 3.65752V16.5759C85.9688 17.0168 86.0729 17.4449 86.2804 17.8599C86.4879 18.2489 86.7471 18.6121 87.0587 18.9494C87.3954 19.2606 87.7587 19.52 88.1479 19.7276C88.5629 19.9092 88.9779 19.9999 89.3929 19.9999H109.705C109.938 19.9999 110.055 19.8703 110.055 19.6109V14.5135C110.055 14.2542 109.938 14.1244 109.705 14.1244H92.1946V6.06998H103.868V7.39294Z" fill="black"/>
<path d="M113.738 19.2607H119.03V12.2568H134.439V7.74319H119.03V5.71984H134.477V0.739298H116.657C116.293 0.739298 115.943 0.830089 115.606 1.01168C115.269 1.16732 114.957 1.38781 114.672 1.67315C114.387 1.95849 114.153 2.28275 113.972 2.64592C113.817 3.00907 113.738 3.37224 113.738 3.73541V19.2607ZM119.03 20H113.738C113.246 20 112.999 19.7536 112.999 19.2607V3.73541C112.999 3.26848 113.103 2.81452 113.311 2.37354C113.544 1.93256 113.829 1.54345 114.167 1.20622C114.53 0.843058 114.918 0.557717 115.334 0.350195C115.775 0.116732 116.216 0 116.657 0H134.477C134.971 0 135.217 0.246432 135.217 0.739298V5.71984C135.217 6.21271 134.971 6.45914 134.477 6.45914H119.77V7.00389H134.439C134.932 7.00389 135.178 7.25032 135.178 7.74319V12.2568C135.178 12.7497 134.932 12.9961 134.439 12.9961H119.77V19.2607C119.77 19.7536 119.523 20 119.03 20Z" fill="black"/>
<path d="M143.969 19.2606V1.16728H138.716V19.2606H143.969ZM144.669 1.16728V19.2606C144.669 19.7535 144.436 20 143.969 20H138.716C138.249 20 138.016 19.7535 138.016 19.2606V1.16728C138.016 0.674411 138.249 0.427979 138.716 0.427979H143.969C144.436 0.427979 144.669 0.674411 144.669 1.16728Z" fill="black"/>
</g>
<defs>
<clipPath id="clip0_714_2206">
<rect width="145" height="20" fill="white"/>
</clipPath>
</defs>
</svg>
