<svg width="161" height="40" viewBox="0 0 161 40" fill="none" xmlns="http://www.w3.org/2000/svg">
<path d="M19.5811 38.7423C30.2794 38.7423 38.9523 30.0696 38.9523 19.3711C38.9523 8.67276 30.2794 0 19.5811 0C8.88271 0 0.209961 8.67276 0.209961 19.3711C0.209961 30.0696 8.88271 38.7423 19.5811 38.7423Z" fill="black"/>
<path fill-rule="evenodd" clip-rule="evenodd" d="M18.7325 21.8647H25.4635C26.0196 21.8647 26.4806 22.3007 26.4806 22.8819V29.6129C26.4806 30.1692 26.0446 30.63 25.4635 30.63H18.7325C18.1762 30.63 17.7153 30.1942 17.7153 29.6129V22.8335C17.7153 22.3007 18.1278 21.8647 18.7325 21.8647Z" fill="white"/>
<path fill-rule="evenodd" clip-rule="evenodd" d="M22.0496 17.4572L26.1167 12.0574C26.4791 11.6214 27.0854 11.5011 27.5213 11.8636L32.9212 15.9306C33.357 16.2932 33.4773 16.8993 33.1149 17.3353L29.0479 22.6866C28.6853 23.1226 28.0791 23.2429 27.6431 22.8803L22.2434 18.8133C21.8074 18.4993 21.7356 17.8931 22.0496 17.4572Z" fill="white"/>
<path fill-rule="evenodd" clip-rule="evenodd" d="M10.694 20.46L16.7234 23.5115C17.2313 23.7537 17.425 24.3833 17.1594 24.8427L14.1079 30.8722C13.8658 31.38 13.2361 31.5737 12.7767 31.308L6.74728 28.2566C6.23948 28.0145 6.04574 27.3847 6.31135 26.9255L9.36281 20.896C9.60498 20.3866 10.1862 20.1929 10.694 20.46Z" fill="white"/>
<path d="M51.38 11.72V26H54.52V11.72H51.38ZM64.0184 19.3H66.7984C66.7584 18.6333 66.5984 18.06 66.3184 17.58C66.0384 17.0867 65.6718 16.68 65.2184 16.36C64.7784 16.0267 64.2718 15.78 63.6984 15.62C63.1384 15.46 62.5518 15.38 61.9384 15.38C61.0984 15.38 60.3518 15.52 59.6984 15.8C59.0451 16.08 58.4918 16.4733 58.0384 16.98C57.5851 17.4733 57.2384 18.0667 56.9984 18.76C56.7718 19.44 56.6584 20.18 56.6584 20.98C56.6584 21.7533 56.7851 22.4667 57.0384 23.12C57.2918 23.76 57.6451 24.3133 58.0984 24.78C58.5518 25.2467 59.0984 25.6133 59.7384 25.88C60.3918 26.1333 61.1051 26.26 61.8784 26.26C63.2518 26.26 64.3784 25.9 65.2584 25.18C66.1384 24.46 66.6718 23.4133 66.8584 22.04H64.1184C64.0251 22.68 63.7918 23.1933 63.4184 23.58C63.0584 23.9533 62.5384 24.14 61.8584 24.14C61.4184 24.14 61.0451 24.04 60.7384 23.84C60.4318 23.64 60.1851 23.3867 59.9984 23.08C59.8251 22.76 59.6984 22.4067 59.6184 22.02C59.5384 21.6333 59.4984 21.2533 59.4984 20.88C59.4984 20.4933 59.5384 20.1067 59.6184 19.72C59.6984 19.32 59.8318 18.96 60.0184 18.64C60.2184 18.3067 60.4718 18.04 60.7784 17.84C61.0851 17.6267 61.4651 17.52 61.9184 17.52C63.1318 17.52 63.8318 18.1133 64.0184 19.3ZM75.4228 19.72H70.8028C70.8161 19.52 70.8561 19.2933 70.9228 19.04C71.0028 18.7867 71.1295 18.5467 71.3028 18.32C71.4895 18.0933 71.7295 17.9067 72.0228 17.76C72.3295 17.6 72.7095 17.52 73.1628 17.52C73.8561 17.52 74.3695 17.7067 74.7028 18.08C75.0495 18.4533 75.2895 19 75.4228 19.72ZM70.8028 21.52H78.2628C78.3161 20.72 78.2495 19.9533 78.0628 19.22C77.8761 18.4867 77.5695 17.8333 77.1428 17.26C76.7295 16.6867 76.1961 16.2333 75.5428 15.9C74.8895 15.5533 74.1228 15.38 73.2428 15.38C72.4561 15.38 71.7361 15.52 71.0828 15.8C70.4428 16.08 69.8895 16.4667 69.4228 16.96C68.9561 17.44 68.5961 18.0133 68.3428 18.68C68.0895 19.3467 67.9628 20.0667 67.9628 20.84C67.9628 21.64 68.0828 22.3733 68.3228 23.04C68.5761 23.7067 68.9295 24.28 69.3828 24.76C69.8361 25.24 70.3895 25.6133 71.0428 25.88C71.6961 26.1333 72.4295 26.26 73.2428 26.26C74.4161 26.26 75.4161 25.9933 76.2428 25.46C77.0695 24.9267 77.6828 24.04 78.0828 22.8H75.5828C75.4895 23.12 75.2361 23.4267 74.8228 23.72C74.4095 24 73.9161 24.14 73.3428 24.14C72.5428 24.14 71.9295 23.9333 71.5028 23.52C71.0761 23.1067 70.8428 22.44 70.8028 21.52ZM83.5472 15.66V12.56H80.7072V15.66H78.9872V17.56H80.7072V23.66C80.7072 24.18 80.7939 24.6 80.9672 24.92C81.1405 25.24 81.3739 25.4867 81.6672 25.66C81.9739 25.8333 82.3205 25.9467 82.7072 26C83.1072 26.0667 83.5272 26.1 83.9672 26.1C84.2472 26.1 84.5339 26.0933 84.8272 26.08C85.1205 26.0667 85.3872 26.04 85.6272 26V23.8C85.4939 23.8267 85.3539 23.8467 85.2072 23.86C85.0605 23.8733 84.9072 23.88 84.7472 23.88C84.2672 23.88 83.9472 23.8 83.7872 23.64C83.6272 23.48 83.5472 23.16 83.5472 22.68V17.56H85.6272V15.66H83.5472ZM93.9384 19.72H89.3184C89.3318 19.52 89.3718 19.2933 89.4384 19.04C89.5184 18.7867 89.6451 18.5467 89.8184 18.32C90.0051 18.0933 90.2451 17.9067 90.5384 17.76C90.8451 17.6 91.2251 17.52 91.6784 17.52C92.3718 17.52 92.8851 17.7067 93.2184 18.08C93.5651 18.4533 93.8051 19 93.9384 19.72ZM89.3184 21.52H96.7784C96.8318 20.72 96.7651 19.9533 96.5784 19.22C96.3918 18.4867 96.0851 17.8333 95.6584 17.26C95.2451 16.6867 94.7118 16.2333 94.0584 15.9C93.4051 15.5533 92.6384 15.38 91.7584 15.38C90.9718 15.38 90.2518 15.52 89.5984 15.8C88.9584 16.08 88.4051 16.4667 87.9384 16.96C87.4718 17.44 87.1118 18.0133 86.8584 18.68C86.6051 19.3467 86.4784 20.0667 86.4784 20.84C86.4784 21.64 86.5984 22.3733 86.8384 23.04C87.0918 23.7067 87.4451 24.28 87.8984 24.76C88.3518 25.24 88.9051 25.6133 89.5584 25.88C90.2118 26.1333 90.9451 26.26 91.7584 26.26C92.9318 26.26 93.9318 25.9933 94.7584 25.46C95.5851 24.9267 96.1984 24.04 96.5984 22.8H94.0984C94.0051 23.12 93.7518 23.4267 93.3384 23.72C92.9251 24 92.4318 24.14 91.8584 24.14C91.0584 24.14 90.4451 23.9333 90.0184 23.52C89.5918 23.1067 89.3584 22.44 89.3184 21.52ZM98.3428 18.84C98.3828 18.1733 98.5495 17.62 98.8428 17.18C99.1361 16.74 99.5095 16.3867 99.9628 16.12C100.416 15.8533 100.923 15.6667 101.483 15.56C102.056 15.44 102.629 15.38 103.203 15.38C103.723 15.38 104.249 15.42 104.783 15.5C105.316 15.5667 105.803 15.7067 106.243 15.92C106.683 16.1333 107.043 16.4333 107.323 16.82C107.603 17.1933 107.743 17.6933 107.743 18.32V23.7C107.743 24.1667 107.769 24.6133 107.823 25.04C107.876 25.4667 107.969 25.7867 108.103 26H105.223C105.169 25.84 105.123 25.68 105.083 25.52C105.056 25.3467 105.036 25.1733 105.023 25C104.569 25.4667 104.036 25.7933 103.423 25.98C102.809 26.1667 102.183 26.26 101.543 26.26C101.049 26.26 100.589 26.2 100.163 26.08C99.7361 25.96 99.3628 25.7733 99.0428 25.52C98.7228 25.2667 98.4695 24.9467 98.2828 24.56C98.1095 24.1733 98.0228 23.7133 98.0228 23.18C98.0228 22.5933 98.1228 22.1133 98.3228 21.74C98.5361 21.3533 98.8028 21.0467 99.1228 20.82C99.4561 20.5933 99.8295 20.4267 100.243 20.32C100.669 20.2 101.096 20.1067 101.523 20.04C101.949 19.9733 102.369 19.92 102.783 19.88C103.196 19.84 103.563 19.78 103.883 19.7C104.203 19.62 104.456 19.5067 104.643 19.36C104.829 19.2 104.916 18.9733 104.903 18.68C104.903 18.3733 104.849 18.1333 104.743 17.96C104.649 17.7733 104.516 17.6333 104.343 17.54C104.183 17.4333 103.989 17.3667 103.763 17.34C103.549 17.3 103.316 17.28 103.063 17.28C102.503 17.28 102.063 17.4 101.743 17.64C101.423 17.88 101.236 18.28 101.183 18.84H98.3428ZM104.903 20.94C104.783 21.0467 104.629 21.1333 104.443 21.2C104.269 21.2533 104.076 21.3 103.863 21.34C103.663 21.38 103.449 21.4133 103.223 21.44C102.996 21.4667 102.769 21.5 102.543 21.54C102.329 21.58 102.116 21.6333 101.903 21.7C101.703 21.7667 101.523 21.86 101.363 21.98C101.216 22.0867 101.096 22.2267 101.003 22.4C100.909 22.5733 100.863 22.7933 100.863 23.06C100.863 23.3133 100.909 23.5267 101.003 23.7C101.096 23.8733 101.223 24.0133 101.383 24.12C101.543 24.2133 101.729 24.28 101.943 24.32C102.156 24.36 102.376 24.38 102.603 24.38C103.163 24.38 103.596 24.2867 103.903 24.1C104.209 23.9133 104.436 23.6933 104.583 23.44C104.729 23.1733 104.816 22.9067 104.843 22.64C104.883 22.3733 104.903 22.16 104.903 22V20.94ZM115.814 11.72V26H125.914V23.36H118.954V11.72H115.814ZM127.249 18.84C127.289 18.1733 127.456 17.62 127.749 17.18C128.042 16.74 128.416 16.3867 128.869 16.12C129.322 15.8533 129.829 15.6667 130.389 15.56C130.962 15.44 131.536 15.38 132.109 15.38C132.629 15.38 133.156 15.42 133.689 15.5C134.222 15.5667 134.709 15.7067 135.149 15.92C135.589 16.1333 135.949 16.4333 136.229 16.82C136.509 17.1933 136.649 17.6933 136.649 18.32V23.7C136.649 24.1667 136.676 24.6133 136.729 25.04C136.782 25.4667 136.876 25.7867 137.009 26H134.129C134.076 25.84 134.029 25.68 133.989 25.52C133.962 25.3467 133.942 25.1733 133.929 25C133.476 25.4667 132.942 25.7933 132.329 25.98C131.716 26.1667 131.089 26.26 130.449 26.26C129.956 26.26 129.496 26.2 129.069 26.08C128.642 25.96 128.269 25.7733 127.949 25.52C127.629 25.2667 127.376 24.9467 127.189 24.56C127.016 24.1733 126.929 23.7133 126.929 23.18C126.929 22.5933 127.029 22.1133 127.229 21.74C127.442 21.3533 127.709 21.0467 128.029 20.82C128.362 20.5933 128.736 20.4267 129.149 20.32C129.576 20.2 130.002 20.1067 130.429 20.04C130.856 19.9733 131.276 19.92 131.689 19.88C132.102 19.84 132.469 19.78 132.789 19.7C133.109 19.62 133.362 19.5067 133.549 19.36C133.736 19.2 133.822 18.9733 133.809 18.68C133.809 18.3733 133.756 18.1333 133.649 17.96C133.556 17.7733 133.422 17.6333 133.249 17.54C133.089 17.4333 132.896 17.3667 132.669 17.34C132.456 17.3 132.222 17.28 131.969 17.28C131.409 17.28 130.969 17.4 130.649 17.64C130.329 17.88 130.142 18.28 130.089 18.84H127.249ZM133.809 20.94C133.689 21.0467 133.536 21.1333 133.349 21.2C133.176 21.2533 132.982 21.3 132.769 21.34C132.569 21.38 132.356 21.4133 132.129 21.44C131.902 21.4667 131.676 21.5 131.449 21.54C131.236 21.58 131.022 21.6333 130.809 21.7C130.609 21.7667 130.429 21.86 130.269 21.98C130.122 22.0867 130.002 22.2267 129.909 22.4C129.816 22.5733 129.769 22.7933 129.769 23.06C129.769 23.3133 129.816 23.5267 129.909 23.7C130.002 23.8733 130.129 24.0133 130.289 24.12C130.449 24.2133 130.636 24.28 130.849 24.32C131.062 24.36 131.282 24.38 131.509 24.38C132.069 24.38 132.502 24.2867 132.809 24.1C133.116 23.9133 133.342 23.6933 133.489 23.44C133.636 23.1733 133.722 22.9067 133.749 22.64C133.789 22.3733 133.809 22.16 133.809 22V20.94ZM146.433 20.84C146.433 21.2667 146.387 21.68 146.293 22.08C146.2 22.48 146.053 22.8333 145.853 23.14C145.653 23.4467 145.4 23.6933 145.093 23.88C144.8 24.0533 144.44 24.14 144.013 24.14C143.6 24.14 143.24 24.0533 142.933 23.88C142.627 23.6933 142.373 23.4467 142.173 23.14C141.973 22.8333 141.827 22.48 141.733 22.08C141.64 21.68 141.593 21.2667 141.593 20.84C141.593 20.4 141.64 19.98 141.733 19.58C141.827 19.18 141.973 18.8267 142.173 18.52C142.373 18.2133 142.627 17.9733 142.933 17.8C143.24 17.6133 143.6 17.52 144.013 17.52C144.44 17.52 144.8 17.6133 145.093 17.8C145.4 17.9733 145.653 18.2133 145.853 18.52C146.053 18.8267 146.2 19.18 146.293 19.58C146.387 19.98 146.433 20.4 146.433 20.84ZM138.853 11.72V26H141.553V24.68H141.593C141.9 25.2533 142.353 25.66 142.953 25.9C143.553 26.14 144.233 26.26 144.993 26.26C145.513 26.26 146.027 26.1533 146.533 25.94C147.04 25.7267 147.493 25.4 147.893 24.96C148.307 24.52 148.64 23.96 148.893 23.28C149.147 22.5867 149.273 21.7667 149.273 20.82C149.273 19.8733 149.147 19.06 148.893 18.38C148.64 17.6867 148.307 17.12 147.893 16.68C147.493 16.24 147.04 15.9133 146.533 15.7C146.027 15.4867 145.513 15.38 144.993 15.38C144.353 15.38 143.733 15.5067 143.133 15.76C142.547 16 142.08 16.3867 141.733 16.92H141.693V11.72H138.853ZM153.28 22.64H150.58C150.607 23.3333 150.76 23.9133 151.04 24.38C151.333 24.8333 151.7 25.2 152.14 25.48C152.593 25.76 153.107 25.96 153.68 26.08C154.253 26.2 154.84 26.26 155.44 26.26C156.027 26.26 156.6 26.2 157.16 26.08C157.733 25.9733 158.24 25.78 158.68 25.5C159.12 25.22 159.473 24.8533 159.74 24.4C160.02 23.9333 160.16 23.36 160.16 22.68C160.16 22.2 160.067 21.8 159.88 21.48C159.693 21.1467 159.447 20.8733 159.14 20.66C158.833 20.4333 158.48 20.2533 158.08 20.12C157.693 19.9867 157.293 19.8733 156.88 19.78C156.48 19.6867 156.087 19.6 155.7 19.52C155.313 19.44 154.967 19.3533 154.66 19.26C154.367 19.1533 154.127 19.02 153.94 18.86C153.753 18.7 153.66 18.4933 153.66 18.24C153.66 18.0267 153.713 17.86 153.82 17.74C153.927 17.6067 154.053 17.5067 154.2 17.44C154.36 17.3733 154.533 17.3333 154.72 17.32C154.907 17.2933 155.08 17.28 155.24 17.28C155.747 17.28 156.187 17.38 156.56 17.58C156.933 17.7667 157.14 18.1333 157.18 18.68H159.88C159.827 18.04 159.66 17.5133 159.38 17.1C159.113 16.6733 158.773 16.3333 158.36 16.08C157.947 15.8267 157.473 15.6467 156.94 15.54C156.42 15.4333 155.88 15.38 155.32 15.38C154.76 15.38 154.213 15.4333 153.68 15.54C153.147 15.6333 152.667 15.8067 152.24 16.06C151.813 16.3 151.467 16.6333 151.2 17.06C150.947 17.4867 150.82 18.0333 150.82 18.7C150.82 19.1533 150.913 19.54 151.1 19.86C151.287 20.1667 151.533 20.4267 151.84 20.64C152.147 20.84 152.493 21.0067 152.88 21.14C153.28 21.26 153.687 21.3667 154.1 21.46C155.113 21.6733 155.9 21.8867 156.46 22.1C157.033 22.3133 157.32 22.6333 157.32 23.06C157.32 23.3133 157.26 23.5267 157.14 23.7C157.02 23.86 156.867 23.9933 156.68 24.1C156.507 24.1933 156.307 24.2667 156.08 24.32C155.867 24.36 155.66 24.38 155.46 24.38C155.18 24.38 154.907 24.3467 154.64 24.28C154.387 24.2133 154.16 24.1133 153.96 23.98C153.76 23.8333 153.593 23.6533 153.46 23.44C153.34 23.2133 153.28 22.9467 153.28 22.64Z" fill="black"/>
</svg>
