<svg width="113" height="54" viewBox="0 0 113 54" fill="none" xmlns="http://www.w3.org/2000/svg">
<path d="M1.07 0.579999V22H5.48V6.97H5.54L10.79 22H14.42L19.67 6.82H19.73V22H24.14V0.579999H17.51L12.77 15.31H12.71L7.7 0.579999H1.07ZM27.6568 11.26C27.7168 10.26 27.9668 9.43 28.4068 8.77C28.8468 8.11 29.4068 7.58 30.0868 7.18C30.7668 6.78 31.5268 6.5 32.3668 6.34C33.2268 6.16 34.0868 6.07 34.9468 6.07C35.7268 6.07 36.5168 6.13 37.3168 6.25C38.1168 6.35 38.8468 6.56 39.5068 6.88C40.1668 7.2 40.7068 7.65 41.1268 8.23C41.5468 8.79 41.7568 9.54 41.7568 10.48V18.55C41.7568 19.25 41.7968 19.92 41.8768 20.56C41.9568 21.2 42.0968 21.68 42.2968 22H37.9768C37.8968 21.76 37.8268 21.52 37.7668 21.28C37.7268 21.02 37.6968 20.76 37.6768 20.5C36.9968 21.2 36.1968 21.69 35.2768 21.97C34.3568 22.25 33.4168 22.39 32.4568 22.39C31.7168 22.39 31.0268 22.3 30.3868 22.12C29.7468 21.94 29.1868 21.66 28.7068 21.28C28.2268 20.9 27.8468 20.42 27.5668 19.84C27.3068 19.26 27.1768 18.57 27.1768 17.77C27.1768 16.89 27.3268 16.17 27.6268 15.61C27.9468 15.03 28.3468 14.57 28.8268 14.23C29.3268 13.89 29.8868 13.64 30.5068 13.48C31.1468 13.3 31.7868 13.16 32.4268 13.06C33.0668 12.96 33.6968 12.88 34.3168 12.82C34.9368 12.76 35.4868 12.67 35.9668 12.55C36.4468 12.43 36.8268 12.26 37.1068 12.04C37.3868 11.8 37.5168 11.46 37.4968 11.02C37.4968 10.56 37.4168 10.2 37.2568 9.94C37.1168 9.66 36.9168 9.45 36.6568 9.31C36.4168 9.15 36.1268 9.05 35.7868 9.01C35.4668 8.95 35.1168 8.92 34.7368 8.92C33.8968 8.92 33.2368 9.1 32.7568 9.46C32.2768 9.82 31.9968 10.42 31.9168 11.26H27.6568ZM37.4968 14.41C37.3168 14.57 37.0868 14.7 36.8068 14.8C36.5468 14.88 36.2568 14.95 35.9368 15.01C35.6368 15.07 35.3168 15.12 34.9768 15.16C34.6368 15.2 34.2968 15.25 33.9568 15.31C33.6368 15.37 33.3168 15.45 32.9968 15.55C32.6968 15.65 32.4268 15.79 32.1868 15.97C31.9668 16.13 31.7868 16.34 31.6468 16.6C31.5068 16.86 31.4368 17.19 31.4368 17.59C31.4368 17.97 31.5068 18.29 31.6468 18.55C31.7868 18.81 31.9768 19.02 32.2168 19.18C32.4568 19.32 32.7368 19.42 33.0568 19.48C33.3768 19.54 33.7068 19.57 34.0468 19.57C34.8868 19.57 35.5368 19.43 35.9968 19.15C36.4568 18.87 36.7968 18.54 37.0168 18.16C37.2368 17.76 37.3668 17.36 37.4068 16.96C37.4668 16.56 37.4968 16.24 37.4968 16V14.41ZM45.0634 6.49V22H49.3234V15.01C49.3234 14.31 49.3934 13.66 49.5334 13.06C49.6734 12.46 49.9034 11.94 50.2234 11.5C50.5634 11.04 51.0034 10.68 51.5434 10.42C52.0834 10.16 52.7434 10.03 53.5234 10.03C53.7834 10.03 54.0534 10.05 54.3334 10.09C54.6134 10.11 54.8534 10.14 55.0534 10.18V6.22C54.7134 6.12 54.4034 6.07 54.1234 6.07C53.5834 6.07 53.0634 6.15 52.5634 6.31C52.0634 6.47 51.5934 6.7 51.1534 7C50.7134 7.28 50.3234 7.63 49.9834 8.05C49.6434 8.45 49.3734 8.89 49.1734 9.37H49.1134V6.49H45.0634ZM66.7562 11.95H70.9262C70.8662 10.95 70.6262 10.09 70.2062 9.37C69.7862 8.63 69.2362 8.02 68.5562 7.54C67.8962 7.04 67.1362 6.67 66.2762 6.43C65.4362 6.19 64.5562 6.07 63.6362 6.07C62.3762 6.07 61.2562 6.28 60.2762 6.7C59.2962 7.12 58.4662 7.71 57.7862 8.47C57.1062 9.21 56.5862 10.1 56.2262 11.14C55.8862 12.16 55.7162 13.27 55.7162 14.47C55.7162 15.63 55.9062 16.7 56.2862 17.68C56.6662 18.64 57.1962 19.47 57.8762 20.17C58.5562 20.87 59.3762 21.42 60.3362 21.82C61.3162 22.2 62.3862 22.39 63.5462 22.39C65.6062 22.39 67.2962 21.85 68.6162 20.77C69.9362 19.69 70.7362 18.12 71.0162 16.06H66.9062C66.7662 17.02 66.4162 17.79 65.8562 18.37C65.3162 18.93 64.5362 19.21 63.5162 19.21C62.8562 19.21 62.2962 19.06 61.8362 18.76C61.3762 18.46 61.0062 18.08 60.7262 17.62C60.4662 17.14 60.2762 16.61 60.1562 16.03C60.0362 15.45 59.9762 14.88 59.9762 14.32C59.9762 13.74 60.0362 13.16 60.1562 12.58C60.2762 11.98 60.4762 11.44 60.7562 10.96C61.0562 10.46 61.4362 10.06 61.8962 9.76C62.3562 9.44 62.9262 9.28 63.6062 9.28C65.4262 9.28 66.4762 10.17 66.7562 11.95ZM77.8027 4.09V0.579999H73.5427V4.09H77.8027ZM73.5427 6.49V22H77.8027V6.49H73.5427ZM95.7071 22V6.49H91.4471V14.62C91.4471 16.2 91.1871 17.34 90.6671 18.04C90.1471 18.72 89.3071 19.06 88.1471 19.06C87.1271 19.06 86.4171 18.75 86.0171 18.13C85.6171 17.49 85.4171 16.53 85.4171 15.25V6.49H81.1571V16.03C81.1571 16.99 81.2371 17.87 81.3971 18.67C81.5771 19.45 81.8771 20.12 82.2971 20.68C82.7171 21.22 83.2871 21.64 84.0071 21.94C84.7471 22.24 85.6871 22.39 86.8271 22.39C87.7271 22.39 88.6071 22.19 89.4671 21.79C90.3271 21.39 91.0271 20.74 91.5671 19.84H91.6571V22H95.7071ZM102.24 16.96H98.1903C98.2303 18 98.4603 18.87 98.8803 19.57C99.3203 20.25 99.8703 20.8 100.53 21.22C101.21 21.64 101.98 21.94 102.84 22.12C103.7 22.3 104.58 22.39 105.48 22.39C106.36 22.39 107.22 22.3 108.06 22.12C108.92 21.96 109.68 21.67 110.34 21.25C111 20.83 111.53 20.28 111.93 19.6C112.35 18.9 112.56 18.04 112.56 17.02C112.56 16.3 112.42 15.7 112.14 15.22C111.86 14.72 111.49 14.31 111.03 13.99C110.57 13.65 110.04 13.38 109.44 13.18C108.86 12.98 108.26 12.81 107.64 12.67C107.04 12.53 106.45 12.4 105.87 12.28C105.29 12.16 104.77 12.03 104.31 11.89C103.87 11.73 103.51 11.53 103.23 11.29C102.95 11.05 102.81 10.74 102.81 10.36C102.81 10.04 102.89 9.79 103.05 9.61C103.21 9.41 103.4 9.26 103.62 9.16C103.86 9.06 104.12 9 104.4 8.98C104.68 8.94 104.94 8.92 105.18 8.92C105.94 8.92 106.6 9.07 107.16 9.37C107.72 9.65 108.03 10.2 108.09 11.02H112.14C112.06 10.06 111.81 9.27 111.39 8.65C110.99 8.01 110.48 7.5 109.86 7.12C109.24 6.74 108.53 6.47 107.73 6.31C106.95 6.15 106.14 6.07 105.3 6.07C104.46 6.07 103.64 6.15 102.84 6.31C102.04 6.45 101.32 6.71 100.68 7.09C100.04 7.45 99.5203 7.95 99.1203 8.59C98.7403 9.23 98.5503 10.05 98.5503 11.05C98.5503 11.73 98.6903 12.31 98.9703 12.79C99.2503 13.25 99.6203 13.64 100.08 13.96C100.54 14.26 101.06 14.51 101.64 14.71C102.24 14.89 102.85 15.05 103.47 15.19C104.99 15.51 106.17 15.83 107.01 16.15C107.87 16.47 108.3 16.95 108.3 17.59C108.3 17.97 108.21 18.29 108.03 18.55C107.85 18.79 107.62 18.99 107.34 19.15C107.08 19.29 106.78 19.4 106.44 19.48C106.12 19.54 105.81 19.57 105.51 19.57C105.09 19.57 104.68 19.52 104.28 19.42C103.9 19.32 103.56 19.17 103.26 18.97C102.96 18.75 102.71 18.48 102.51 18.16C102.33 17.82 102.24 17.42 102.24 16.96ZM15.35 33.78H19.91C19.77 32.54 19.43 31.44 18.89 30.48C18.35 29.52 17.66 28.72 16.82 28.08C16 27.42 15.06 26.92 14 26.58C12.96 26.24 11.85 26.07 10.67 26.07C9.03 26.07 7.55 26.36 6.23 26.94C4.93 27.52 3.83 28.32 2.93 29.34C2.03 30.36 1.34 31.56 0.86 32.94C0.38 34.3 0.14 35.78 0.14 37.38C0.14 38.94 0.38 40.4 0.86 41.76C1.34 43.1 2.03 44.27 2.93 45.27C3.83 46.27 4.93 47.06 6.23 47.64C7.55 48.2 9.03 48.48 10.67 48.48C11.99 48.48 13.2 48.28 14.3 47.88C15.4 47.48 16.36 46.9 17.18 46.14C18 45.38 18.66 44.46 19.16 43.38C19.66 42.3 19.97 41.09 20.09 39.75H15.53C15.35 41.19 14.85 42.35 14.03 43.23C13.23 44.11 12.11 44.55 10.67 44.55C9.61 44.55 8.71 44.35 7.97 43.95C7.23 43.53 6.63 42.98 6.17 42.3C5.71 41.62 5.37 40.86 5.15 40.02C4.95 39.16 4.85 38.28 4.85 37.38C4.85 36.44 4.95 35.53 5.15 34.65C5.37 33.77 5.71 32.99 6.17 32.31C6.63 31.61 7.23 31.06 7.97 30.66C8.71 30.24 9.61 30.03 10.67 30.03C11.25 30.03 11.8 30.13 12.32 30.33C12.86 30.51 13.34 30.77 13.76 31.11C14.18 31.45 14.53 31.85 14.81 32.31C15.09 32.75 15.27 33.24 15.35 33.78ZM22.6763 37.26C22.7363 36.26 22.9863 35.43 23.4263 34.77C23.8663 34.11 24.4263 33.58 25.1063 33.18C25.7863 32.78 26.5463 32.5 27.3863 32.34C28.2463 32.16 29.1063 32.07 29.9663 32.07C30.7463 32.07 31.5363 32.13 32.3363 32.25C33.1363 32.35 33.8663 32.56 34.5263 32.88C35.1863 33.2 35.7263 33.65 36.1463 34.23C36.5663 34.79 36.7763 35.54 36.7763 36.48V44.55C36.7763 45.25 36.8163 45.92 36.8963 46.56C36.9763 47.2 37.1163 47.68 37.3163 48H32.9963C32.9163 47.76 32.8463 47.52 32.7863 47.28C32.7463 47.02 32.7163 46.76 32.6963 46.5C32.0163 47.2 31.2163 47.69 30.2963 47.97C29.3763 48.25 28.4363 48.39 27.4763 48.39C26.7363 48.39 26.0463 48.3 25.4063 48.12C24.7663 47.94 24.2063 47.66 23.7263 47.28C23.2463 46.9 22.8663 46.42 22.5863 45.84C22.3263 45.26 22.1963 44.57 22.1963 43.77C22.1963 42.89 22.3463 42.17 22.6463 41.61C22.9663 41.03 23.3663 40.57 23.8463 40.23C24.3463 39.89 24.9063 39.64 25.5263 39.48C26.1663 39.3 26.8063 39.16 27.4463 39.06C28.0863 38.96 28.7163 38.88 29.3363 38.82C29.9563 38.76 30.5063 38.67 30.9863 38.55C31.4663 38.43 31.8463 38.26 32.1263 38.04C32.4063 37.8 32.5363 37.46 32.5163 37.02C32.5163 36.56 32.4363 36.2 32.2763 35.94C32.1363 35.66 31.9363 35.45 31.6763 35.31C31.4363 35.15 31.1463 35.05 30.8063 35.01C30.4863 34.95 30.1363 34.92 29.7563 34.92C28.9163 34.92 28.2563 35.1 27.7763 35.46C27.2963 35.82 27.0163 36.42 26.9363 37.26H22.6763ZM32.5163 40.41C32.3363 40.57 32.1063 40.7 31.8263 40.8C31.5663 40.88 31.2763 40.95 30.9563 41.01C30.6563 41.07 30.3363 41.12 29.9963 41.16C29.6563 41.2 29.3163 41.25 28.9763 41.31C28.6563 41.37 28.3363 41.45 28.0163 41.55C27.7163 41.65 27.4463 41.79 27.2063 41.97C26.9863 42.13 26.8063 42.34 26.6663 42.6C26.5263 42.86 26.4563 43.19 26.4563 43.59C26.4563 43.97 26.5263 44.29 26.6663 44.55C26.8063 44.81 26.9963 45.02 27.2363 45.18C27.4763 45.32 27.7563 45.42 28.0763 45.48C28.3963 45.54 28.7263 45.57 29.0663 45.57C29.9063 45.57 30.5563 45.43 31.0163 45.15C31.4763 44.87 31.8163 44.54 32.0363 44.16C32.2563 43.76 32.3863 43.36 32.4263 42.96C32.4863 42.56 32.5163 42.24 32.5163 42V40.41ZM47.9129 45.21C47.2329 45.21 46.6529 45.07 46.1729 44.79C45.6929 44.51 45.3029 44.15 45.0029 43.71C44.7229 43.25 44.5129 42.72 44.3729 42.12C44.2529 41.52 44.1929 40.91 44.1929 40.29C44.1929 39.65 44.2529 39.03 44.3729 38.43C44.4929 37.83 44.6929 37.3 44.9729 36.84C45.2729 36.38 45.6529 36.01 46.1129 35.73C46.5929 35.43 47.1829 35.28 47.8829 35.28C48.5629 35.28 49.1329 35.43 49.5929 35.73C50.0729 36.01 50.4629 36.39 50.7629 36.87C51.0629 37.33 51.2729 37.86 51.3929 38.46C51.5329 39.06 51.6029 39.67 51.6029 40.29C51.6029 40.91 51.5429 41.52 51.4229 42.12C51.3029 42.72 51.0929 43.25 50.7929 43.71C50.5129 44.15 50.1329 44.51 49.6529 44.79C49.1929 45.07 48.6129 45.21 47.9129 45.21ZM40.0829 32.49V53.43H44.3429V46.08H44.4029C44.9229 46.84 45.5829 47.42 46.3829 47.82C47.2029 48.2 48.0929 48.39 49.0529 48.39C50.1929 48.39 51.1829 48.17 52.0229 47.73C52.8829 47.29 53.5929 46.7 54.1529 45.96C54.7329 45.22 55.1629 44.37 55.4429 43.41C55.7229 42.45 55.8629 41.45 55.8629 40.41C55.8629 39.31 55.7229 38.26 55.4429 37.26C55.1629 36.24 54.7329 35.35 54.1529 34.59C53.5729 33.83 52.8429 33.22 51.9629 32.76C51.0829 32.3 50.0329 32.07 48.8129 32.07C47.8529 32.07 46.9729 32.26 46.1729 32.64C45.3729 33.02 44.7129 33.63 44.1929 34.47H44.1329V32.49H40.0829ZM62.8027 30.09V26.58H58.5427V30.09H62.8027ZM58.5427 32.49V48H62.8027V32.49H58.5427ZM71.5571 32.49V27.84H67.2971V32.49H64.7171V35.34H67.2971V44.49C67.2971 45.27 67.4271 45.9 67.6871 46.38C67.9471 46.86 68.2971 47.23 68.7371 47.49C69.1971 47.75 69.7171 47.92 70.2971 48C70.8971 48.1 71.5271 48.15 72.1871 48.15C72.6071 48.15 73.0371 48.14 73.4771 48.12C73.9171 48.1 74.3171 48.06 74.6771 48V44.7C74.4771 44.74 74.2671 44.77 74.0471 44.79C73.8271 44.81 73.5971 44.82 73.3571 44.82C72.6371 44.82 72.1571 44.7 71.9171 44.46C71.6771 44.22 71.5571 43.74 71.5571 43.02V35.34H74.6771V32.49H71.5571ZM76.524 37.26C76.584 36.26 76.834 35.43 77.274 34.77C77.714 34.11 78.274 33.58 78.954 33.18C79.634 32.78 80.394 32.5 81.234 32.34C82.094 32.16 82.954 32.07 83.814 32.07C84.594 32.07 85.384 32.13 86.184 32.25C86.984 32.35 87.714 32.56 88.374 32.88C89.034 33.2 89.574 33.65 89.994 34.23C90.414 34.79 90.624 35.54 90.624 36.48V44.55C90.624 45.25 90.664 45.92 90.744 46.56C90.824 47.2 90.964 47.68 91.164 48H86.844C86.764 47.76 86.694 47.52 86.634 47.28C86.594 47.02 86.564 46.76 86.544 46.5C85.864 47.2 85.064 47.69 84.144 47.97C83.224 48.25 82.284 48.39 81.324 48.39C80.584 48.39 79.894 48.3 79.254 48.12C78.614 47.94 78.054 47.66 77.574 47.28C77.094 46.9 76.714 46.42 76.434 45.84C76.174 45.26 76.044 44.57 76.044 43.77C76.044 42.89 76.194 42.17 76.494 41.61C76.814 41.03 77.214 40.57 77.694 40.23C78.194 39.89 78.754 39.64 79.374 39.48C80.014 39.3 80.654 39.16 81.294 39.06C81.934 38.96 82.564 38.88 83.184 38.82C83.804 38.76 84.354 38.67 84.834 38.55C85.314 38.43 85.694 38.26 85.974 38.04C86.254 37.8 86.384 37.46 86.364 37.02C86.364 36.56 86.284 36.2 86.124 35.94C85.984 35.66 85.784 35.45 85.524 35.31C85.284 35.15 84.994 35.05 84.654 35.01C84.334 34.95 83.984 34.92 83.604 34.92C82.764 34.92 82.104 35.1 81.624 35.46C81.144 35.82 80.864 36.42 80.784 37.26H76.524ZM86.364 40.41C86.184 40.57 85.954 40.7 85.674 40.8C85.414 40.88 85.124 40.95 84.804 41.01C84.504 41.07 84.184 41.12 83.844 41.16C83.504 41.2 83.164 41.25 82.824 41.31C82.504 41.37 82.184 41.45 81.864 41.55C81.564 41.65 81.294 41.79 81.054 41.97C80.834 42.13 80.654 42.34 80.514 42.6C80.374 42.86 80.304 43.19 80.304 43.59C80.304 43.97 80.374 44.29 80.514 44.55C80.654 44.81 80.844 45.02 81.084 45.18C81.324 45.32 81.604 45.42 81.924 45.48C82.244 45.54 82.574 45.57 82.914 45.57C83.754 45.57 84.404 45.43 84.864 45.15C85.324 44.87 85.664 44.54 85.884 44.16C86.104 43.76 86.234 43.36 86.274 42.96C86.334 42.56 86.364 42.24 86.364 42V40.41ZM94.0505 26.58V48H98.3105V26.58H94.0505ZM101.845 43.38V48H106.555V43.38H101.845Z" fill="black"/>
</svg>
