<svg width="172" height="35" viewBox="0 0 172 35" fill="none" xmlns="http://www.w3.org/2000/svg">
<g clip-path="url(#clip0_918_1585)">
<path d="M16.8026 17.3477L0.788086 22.4369L0.891259 22.7533L16.9058 17.6641L16.8026 17.3477Z" fill="black"/>
<path d="M0.79348 22.9258L0.601074 22.3322L16.8957 17.1558L17.0881 17.7494L0.79348 22.9258ZM0.973863 22.534L0.985889 22.5696L16.7153 17.5595L16.7033 17.5238L0.973863 22.534Z" fill="black"/>
<path d="M17.1244 17.4763H16.7876V34.0858H17.1244V17.4763Z" fill="black"/>
<path d="M17.2689 34.2285H16.6436V17.334H17.2689V34.2285ZM16.9442 33.9316H16.9803V17.6189H16.9442V33.9316Z" fill="black"/>
<path d="M17.008 17.3413L16.9048 17.6577L32.9193 22.7469L33.0225 22.4305L17.008 17.3413Z" fill="black"/>
<path d="M33.0099 22.9258L16.7153 17.7494L16.9077 17.1558L33.2023 22.3322L33.0099 22.9258ZM17.0881 17.5595L32.8175 22.5577L32.8295 22.5222L17.1001 17.5238L17.0881 17.5595Z" fill="black"/>
<path d="M26.744 3.93701L16.855 17.3742L17.1274 17.5695L27.0163 4.13242L26.744 3.93701Z" fill="black"/>
<path d="M17.1603 17.7732L16.6553 17.4052L26.7206 3.73999L27.2257 4.10804L17.1603 17.7732ZM17.0641 17.3458L17.0882 17.3695L26.8048 4.1674L26.7808 4.14365L17.0641 17.3458Z" fill="black"/>
<path d="M7.11027 3.94385L6.83789 4.13925L16.7269 17.5764L16.9993 17.381L7.11027 3.94385Z" fill="black"/>
<path d="M16.6913 17.7732L6.62598 4.10804L7.13103 3.73999L17.1964 17.4171L16.6913 17.7732ZM7.04689 4.1674L16.7635 17.3695L16.7875 17.3458L7.0709 4.15552L7.04689 4.1674Z" fill="black"/>
<path d="M17.0402 0.819336H16.7637V5.22402H17.0402V0.819336Z" fill="black"/>
<path d="M17.1964 0.676758H16.6191V5.37825H17.1964V0.676758Z" fill="black"/>
<path d="M32.9943 12.2632L28.7456 13.607L28.83 13.8671L33.0787 12.5232L32.9943 12.2632Z" fill="black"/>
<path d="M33.095 12.0706L28.5601 13.505L28.7361 14.0477L33.2711 12.6133L33.095 12.0706Z" fill="black"/>
<path d="M24.4402 27.2146L24.2144 27.3722L26.7886 30.9695L27.0145 30.8119L24.4402 27.2146Z" fill="black"/>
<path d="M24.4774 27.0186L24.0059 27.3473L26.7536 31.1875L27.2251 30.8588L24.4774 27.0186Z" fill="black"/>
<path d="M0.876893 12.2639L0.79248 12.524L5.04114 13.8683L5.12556 13.6083L0.876893 12.2639Z" fill="black"/>
<path d="M0.787007 12.0737L0.61084 12.6164L5.1458 14.0513L5.32197 13.5086L0.787007 12.0737Z" fill="black"/>
<path d="M9.39559 27.1794L6.82178 30.7772L7.04772 30.9347L9.62155 27.3369L9.39559 27.1794Z" fill="black"/>
<path d="M9.36686 26.9731L6.61914 30.8129L7.0906 31.1416L9.83831 27.3019L9.36686 26.9731Z" fill="black"/>
<path d="M6.99041 3.90869L6.95703 4.17976L16.8892 5.37202L16.9226 5.10095L6.99041 3.90869Z" fill="black"/>
<path d="M6.85385 3.73682L6.78418 4.30254L17.0029 5.52919L17.0725 4.96347L6.85385 3.73682Z" fill="black"/>
<path d="M26.8839 3.9043L16.9517 5.09656L16.9851 5.36762L26.9173 4.17536L26.8839 3.9043Z" fill="black"/>
<path d="M27.0082 3.73779L16.7905 4.97215L16.8597 5.53793L27.0773 4.30357L27.0082 3.73779Z" fill="black"/>
<path d="M16.9036 5.11719L10.6479 8.82999L10.7905 9.06407L17.0462 5.3512L16.9036 5.11719Z" fill="black"/>
<path d="M16.9486 4.91187L10.4346 8.77759L10.7319 9.26605L17.246 5.4003L16.9486 4.91187Z" fill="black"/>
<path d="M17.0258 5.1189L16.8833 5.35294L23.1397 9.06579L23.2822 8.83171L17.0258 5.1189Z" fill="black"/>
<path d="M16.9761 4.92334L16.6787 5.41178L23.1928 9.27755L23.4902 8.78909L16.9761 4.92334Z" fill="black"/>
<path d="M27.0427 4.01562L26.771 4.06699L28.653 13.769L28.9247 13.7177L27.0427 4.01562Z" fill="black"/>
<path d="M27.1666 3.83496L26.5996 3.94215L28.5359 13.9241L29.1029 13.8169L27.1666 3.83496Z" fill="black"/>
<path d="M28.9354 13.7393L28.6841 13.8534L32.8663 22.8274L33.1175 22.7133L28.9354 13.7393Z" fill="black"/>
<path d="M29.017 13.5452L28.4927 13.7834L32.7955 23.0163L33.3199 22.7781L29.017 13.5452Z" fill="black"/>
<path d="M23.4113 8.94873L23.229 9.15418L28.7197 13.9026L28.9019 13.6972L23.4113 8.94873Z" fill="black"/>
<path d="M23.4058 8.73877L23.0254 9.16745L28.7422 14.1114L29.1226 13.6828L23.4058 8.73877Z" fill="black"/>
<path d="M28.6567 13.7546L26.9858 20.7695L27.2551 20.8321L28.926 13.8171L28.6567 13.7546Z" fill="black"/>
<path d="M28.551 13.5835L26.8105 20.8873L27.3724 21.0178L29.1128 13.714L28.551 13.5835Z" fill="black"/>
<path d="M33.0693 22.5005L24.2607 27.1845L24.3919 27.425L33.2005 22.7409L33.0693 22.5005Z" fill="black"/>
<path d="M33.1223 22.2947L24.0605 27.1159L24.3344 27.6175L33.3961 22.7964L33.1223 22.2947Z" fill="black"/>
<path d="M24.1766 27.2349L16.7617 33.8669L16.9474 34.0692L24.3623 27.4372L24.1766 27.2349Z" fill="black"/>
<path d="M24.1859 27.0322L16.5581 33.8566L16.9458 34.2788L24.5735 27.4545L24.1859 27.0322Z" fill="black"/>
<path d="M27.0823 20.6899L24.1421 27.2861L24.3952 27.3962L27.3355 20.8L27.0823 20.6899Z" fill="black"/>
<path d="M27.0113 20.4915L23.9492 27.3585L24.4775 27.5881L27.5396 20.7211L27.0113 20.4915Z" fill="black"/>
<path d="M24.2715 27.1843L16.9917 27.7163L17.0121 27.9887L24.2919 27.4566L24.2715 27.1843Z" fill="black"/>
<path d="M24.4167 27.0269L16.8374 27.5843L16.8797 28.1527L24.459 27.5952L24.4167 27.0269Z" fill="black"/>
<path d="M6.84146 4.01099L4.95947 13.7131L5.23114 13.7644L7.11314 4.06235L6.84146 4.01099Z" fill="black"/>
<path d="M6.7121 3.85376L4.77686 13.8357L5.34381 13.9429L7.27905 3.96089L6.7121 3.85376Z" fill="black"/>
<path d="M4.94391 13.7432L0.761719 22.7172L1.013 22.8314L5.1952 13.8573L4.94391 13.7432Z" fill="black"/>
<path d="M4.86723 13.5642L0.56543 22.7971L1.08984 23.0353L5.39164 13.8023L4.86723 13.5642Z" fill="black"/>
<path d="M10.4624 8.95361L4.97168 13.7027L5.15395 13.9081L10.6446 9.15899L10.4624 8.95361Z" fill="black"/>
<path d="M10.4837 8.7439L4.76758 13.6887L5.14796 14.1172L10.864 9.17251L10.4837 8.7439Z" fill="black"/>
<path d="M5.20966 13.7659L4.94043 13.8284L6.61202 20.8433L6.88125 20.7808L5.20966 13.7659Z" fill="black"/>
<path d="M5.32896 13.5918L4.76709 13.7223L6.50751 21.0261L7.06938 20.8956L5.32896 13.5918Z" fill="black"/>
<path d="M0.772269 22.4568L0.641113 22.6972L9.44971 27.3813L9.58089 27.1409L0.772269 22.4568Z" fill="black"/>
<path d="M0.708778 22.2476L0.435059 22.7493L9.49778 27.5685L9.77148 27.0668L0.708778 22.2476Z" fill="black"/>
<path d="M9.65495 27.1924L9.46924 27.3948L16.8841 34.0268L17.0698 33.8244L9.65495 27.1924Z" fill="black"/>
<path d="M16.896 34.2285L16.7878 34.1335L9.25977 27.4018L9.64456 26.9863L9.75278 27.0812L17.2808 33.8129L16.896 34.2285Z" fill="black"/>
<path d="M6.75804 20.6448L6.50488 20.7547L9.44514 27.351L9.69826 27.2409L6.75804 20.6448Z" fill="black"/>
<path d="M6.82716 20.446L6.29883 20.6756L9.36017 27.5434L9.88846 27.3139L6.82716 20.446Z" fill="black"/>
<path d="M9.57415 27.1445L9.55371 27.4168L16.8335 27.9484L16.8539 27.676L9.57415 27.1445Z" fill="black"/>
<path d="M9.42977 26.9792L9.38721 27.5476L16.9668 28.101L17.0094 27.5327L9.42977 26.9792Z" fill="black"/>
<path d="M28.7772 14.3183C29.1027 14.3183 29.3664 14.0579 29.3664 13.7366C29.3664 13.4153 29.1027 13.1548 28.7772 13.1548C28.4518 13.1548 28.188 13.4153 28.188 13.7366C28.188 14.0579 28.4518 14.3183 28.7772 14.3183Z" fill="black"/>
<path d="M24.3275 27.8766C24.653 27.8766 24.9168 27.6161 24.9168 27.2948C24.9168 26.9736 24.653 26.7131 24.3275 26.7131C24.0021 26.7131 23.7383 26.9736 23.7383 27.2948C23.7383 27.6161 24.0021 27.8766 24.3275 27.8766Z" fill="black"/>
<path d="M5.09902 14.3302C5.42446 14.3302 5.68827 14.0697 5.68827 13.7484C5.68827 13.4271 5.42446 13.1667 5.09902 13.1667C4.77358 13.1667 4.50977 13.4271 4.50977 13.7484C4.50977 14.0697 4.77358 14.3302 5.09902 14.3302Z" fill="black"/>
<path d="M9.51211 27.8291C9.83754 27.8291 10.1013 27.5686 10.1013 27.2473C10.1013 26.926 9.83754 26.6655 9.51211 26.6655C9.18661 26.6655 8.92285 26.926 8.92285 27.2473C8.92285 27.5686 9.18661 27.8291 9.51211 27.8291Z" fill="black"/>
<path d="M16.8959 5.82952C17.2213 5.82952 17.4852 5.56906 17.4852 5.24777C17.4852 4.92648 17.2213 4.66602 16.8959 4.66602C16.5705 4.66602 16.3066 4.92648 16.3066 5.24777C16.3066 5.56906 16.5705 5.82952 16.8959 5.82952Z" fill="black"/>
<path d="M16.8959 34.4065L6.83048 31.1772L0.613281 22.724V12.2762L6.83048 3.82306L16.8959 0.59375L26.9613 3.82306L27.0093 3.88242L33.1905 12.2762V22.724L26.9733 31.1772L16.8959 34.4065ZM7.10708 30.8092L16.8959 33.9554L26.6846 30.8092L32.7335 22.5815V12.4187L26.6966 4.19111L16.8959 1.05678L7.10708 4.19111L1.05823 12.4187V22.5815L7.10708 30.8092Z" fill="black"/>
<path d="M16.8959 34.6202L16.8358 34.5964L6.71026 31.3433L6.67418 31.2959L0.420898 22.7952V12.2168L6.72228 3.65677L16.9079 0.391846L27.0935 3.65677L27.1777 3.76363L33.3949 12.2168V22.7952L27.0935 31.3433L27.0335 31.3671L16.8959 34.6202ZM6.96279 31.0109L16.9079 34.2046L26.8531 31.0109L32.9981 22.6646V12.3474L26.8531 4.00107L16.8959 0.795508L6.96279 3.9892L0.81774 12.3355V22.6527L6.96279 31.0109ZM16.8959 34.1571L16.8358 34.1334L6.98684 30.9753L6.95076 30.9278L0.853818 22.6527V12.3593L6.98684 4.03669L7.04698 4.01295L16.8959 0.854875L26.8169 4.02482L32.95 12.3474V22.6409L26.8169 30.9634L16.8959 34.1571ZM7.22737 30.6428L16.8959 33.7416L26.5645 30.6428L32.5411 22.5221V12.478L26.5764 4.35725L16.9079 1.25854L7.22737 4.35725L1.25066 12.478V22.5221L7.22737 30.6428Z" fill="black"/>
<path d="M0.829972 12.8935C1.15541 12.8935 1.41922 12.6331 1.41922 12.3118C1.41922 11.9905 1.15541 11.73 0.829972 11.73C0.504539 11.73 0.240723 11.9905 0.240723 12.3118C0.240723 12.6331 0.504539 12.8935 0.829972 12.8935Z" fill="black"/>
<path d="M0.829759 13.1311C0.372792 13.1311 0 12.763 0 12.3119C0 11.8607 0.372792 11.4927 0.829759 11.4927C1.28673 11.4927 1.65952 11.8607 1.65952 12.3119C1.67155 12.763 1.29876 13.1311 0.829759 13.1311ZM0.829759 11.9676C0.637353 11.9676 0.493047 12.1219 0.493047 12.3C0.493047 12.49 0.649379 12.6324 0.829759 12.6324C1.01014 12.6324 1.16648 12.4781 1.16648 12.3C1.17851 12.1219 1.02217 11.9676 0.829759 11.9676Z" fill="black"/>
<path d="M16.8959 1.40105C17.2213 1.40105 17.4851 1.14059 17.4851 0.819302C17.4851 0.498008 17.2213 0.237549 16.8959 0.237549C16.5704 0.237549 16.3066 0.498008 16.3066 0.819302C16.3066 1.14059 16.5704 1.40105 16.8959 1.40105Z" fill="black"/>
<path d="M16.8957 1.65036C16.4387 1.65036 16.0659 1.28232 16.0659 0.831166C16.0659 0.380009 16.4387 0.0119629 16.8957 0.0119629C17.3527 0.0119629 17.7254 0.380009 17.7254 0.831166C17.7254 1.28232 17.3647 1.65036 16.8957 1.65036ZM16.8957 0.486861C16.7033 0.486861 16.5589 0.641203 16.5589 0.819287C16.5589 0.997374 16.7153 1.15172 16.8957 1.15172C17.0881 1.15172 17.2324 0.997374 17.2324 0.819287C17.2324 0.641203 17.0881 0.486861 16.8957 0.486861Z" fill="black"/>
<path d="M32.9618 12.8935C33.2872 12.8935 33.551 12.6331 33.551 12.3118C33.551 11.9905 33.2872 11.73 32.9618 11.73C32.6363 11.73 32.3726 11.9905 32.3726 12.3118C32.3726 12.6331 32.6363 12.8935 32.9618 12.8935Z" fill="black"/>
<path d="M32.9621 13.1311C32.5051 13.1311 32.1323 12.763 32.1323 12.3119C32.1323 11.8607 32.5051 11.4927 32.9621 11.4927C33.4191 11.4927 33.7918 11.8607 33.7918 12.3119C33.8039 12.763 33.4311 13.1311 32.9621 13.1311ZM32.9621 11.9676C32.7697 11.9676 32.6253 12.1219 32.6253 12.3C32.6253 12.49 32.7817 12.6324 32.9621 12.6324C33.1425 12.6324 33.2988 12.4781 33.2988 12.3C33.3108 12.1219 33.1545 11.9676 32.9621 11.9676Z" fill="black"/>
<path d="M32.9618 23.1752C33.2872 23.1752 33.551 22.9147 33.551 22.5934C33.551 22.2721 33.2872 22.0117 32.9618 22.0117C32.6363 22.0117 32.3726 22.2721 32.3726 22.5934C32.3726 22.9147 32.6363 23.1752 32.9618 23.1752Z" fill="black"/>
<path d="M32.9621 23.4126C32.5051 23.4126 32.1323 23.0445 32.1323 22.5934C32.1323 22.1422 32.5051 21.7742 32.9621 21.7742C33.4191 21.7742 33.7918 22.1422 33.7918 22.5934C33.7918 23.0445 33.4311 23.4126 32.9621 23.4126ZM32.9621 22.2491C32.7697 22.2491 32.6253 22.4035 32.6253 22.5815C32.6253 22.7596 32.7817 22.914 32.9621 22.914C33.1425 22.914 33.2988 22.7596 33.2988 22.5815C33.2988 22.4035 33.1545 22.2491 32.9621 22.2491Z" fill="black"/>
<path d="M26.8412 4.59465C27.1666 4.59465 27.4305 4.33419 27.4305 4.0129C27.4305 3.69161 27.1666 3.43115 26.8412 3.43115C26.5158 3.43115 26.252 3.69161 26.252 4.0129C26.252 4.33419 26.5158 4.59465 26.8412 4.59465Z" fill="black"/>
<path d="M26.841 4.84397C26.384 4.84397 26.0112 4.47592 26.0112 4.02476C26.0112 3.57361 26.384 3.20557 26.841 3.20557C27.298 3.20557 27.6708 3.57361 27.6708 4.02476C27.6708 4.47592 27.298 4.84397 26.841 4.84397ZM26.841 3.68046C26.6486 3.68046 26.5043 3.8348 26.5043 4.01289C26.5043 4.20285 26.6606 4.34532 26.841 4.34532C27.0334 4.34532 27.1777 4.19098 27.1777 4.01289C27.1777 3.8348 27.0214 3.68046 26.841 3.68046Z" fill="black"/>
<path d="M6.975 4.59465C7.30042 4.59465 7.56425 4.33419 7.56425 4.0129C7.56425 3.69161 7.30042 3.43115 6.975 3.43115C6.64956 3.43115 6.38574 3.69161 6.38574 4.0129C6.38574 4.33419 6.64956 4.59465 6.975 4.59465Z" fill="black"/>
<path d="M6.97479 4.84397C6.51781 4.84397 6.14502 4.47592 6.14502 4.02476C6.14502 3.57361 6.51781 3.20557 6.97479 3.20557C7.43173 3.20557 7.80455 3.57361 7.80455 4.02476C7.80455 4.47592 7.43173 4.84397 6.97479 4.84397ZM6.97479 3.68046C6.78238 3.68046 6.63807 3.8348 6.63807 4.01289C6.63807 4.20285 6.7944 4.34532 6.97479 4.34532C7.1672 4.34532 7.31147 4.19098 7.31147 4.01289C7.31147 3.8348 7.15516 3.68046 6.97479 3.68046Z" fill="black"/>
<path d="M0.829972 23.1752C1.15541 23.1752 1.41922 22.9147 1.41922 22.5934C1.41922 22.2721 1.15541 22.0117 0.829972 22.0117C0.504539 22.0117 0.240723 22.2721 0.240723 22.5934C0.240723 22.9147 0.504539 23.1752 0.829972 23.1752Z" fill="black"/>
<path d="M0.829759 23.4126C0.372792 23.4126 0 23.0445 0 22.5934C0 22.1422 0.372792 21.7742 0.829759 21.7742C1.28673 21.7742 1.65952 22.1422 1.65952 22.5934C1.65952 23.0445 1.29876 23.4126 0.829759 23.4126ZM0.829759 22.2491C0.637353 22.2491 0.493047 22.4035 0.493047 22.5815C0.493047 22.7596 0.649379 22.914 0.829759 22.914C1.01014 22.914 1.16648 22.7596 1.16648 22.5815C1.16648 22.4035 1.02217 22.2491 0.829759 22.2491Z" fill="black"/>
<path d="M6.975 31.557C7.30042 31.557 7.56425 31.2966 7.56425 30.9753C7.56425 30.654 7.30042 30.3936 6.975 30.3936C6.64956 30.3936 6.38574 30.654 6.38574 30.9753C6.38574 31.2966 6.64956 31.557 6.975 31.557Z" fill="black"/>
<path d="M6.97479 31.8064C6.51781 31.8064 6.14502 31.4383 6.14502 30.9872C6.14502 30.536 6.51781 30.168 6.97479 30.168C7.43173 30.168 7.80455 30.536 7.80455 30.9872C7.80455 31.4264 7.43173 31.8064 6.97479 31.8064ZM6.97479 30.6428C6.78238 30.6428 6.63807 30.7972 6.63807 30.9753C6.63807 31.1653 6.7944 31.3077 6.97479 31.3077C7.1672 31.3077 7.31147 31.1534 7.31147 30.9753C7.31147 30.7854 7.15516 30.6428 6.97479 30.6428Z" fill="black"/>
<path d="M16.8959 34.7627C17.2213 34.7627 17.4851 34.5022 17.4851 34.1809C17.4851 33.8596 17.2213 33.5991 16.8959 33.5991C16.5704 33.5991 16.3066 33.8596 16.3066 34.1809C16.3066 34.5022 16.5704 34.7627 16.8959 34.7627Z" fill="black"/>
<path d="M16.8957 35C16.4387 35 16.0659 34.6319 16.0659 34.1808C16.0659 33.7296 16.4387 33.3616 16.8957 33.3616C17.3527 33.3616 17.7254 33.7296 17.7254 34.1808C17.7374 34.6319 17.3647 35 16.8957 35ZM16.8957 33.8484C16.7033 33.8484 16.5589 34.0027 16.5589 34.1808C16.5589 34.3708 16.7153 34.5132 16.8957 34.5132C17.0881 34.5132 17.2324 34.3589 17.2324 34.1808C17.2444 33.9908 17.0881 33.8484 16.8957 33.8484Z" fill="black"/>
<path d="M26.8412 31.557C27.1666 31.557 27.4305 31.2966 27.4305 30.9753C27.4305 30.654 27.1666 30.3936 26.8412 30.3936C26.5158 30.3936 26.252 30.654 26.252 30.9753C26.252 31.2966 26.5158 31.557 26.8412 31.557Z" fill="black"/>
<path d="M26.841 31.8064C26.384 31.8064 26.0112 31.4383 26.0112 30.9872C26.0112 30.536 26.384 30.168 26.841 30.168C27.298 30.168 27.6708 30.536 27.6708 30.9872C27.6708 31.4264 27.298 31.8064 26.841 31.8064ZM26.841 30.6428C26.6486 30.6428 26.5043 30.7972 26.5043 30.9753C26.5043 31.1653 26.6606 31.3077 26.841 31.3077C27.0334 31.3077 27.1777 31.1534 27.1777 30.9753C27.1777 30.7854 27.0214 30.6428 26.841 30.6428Z" fill="black"/>
<path d="M16.9922 28.2921L6.57812 20.8243L10.5586 8.72632H23.4379L27.4184 20.8124L16.9922 28.2921ZM7.09522 20.6463L16.9922 27.746L26.8893 20.6463L23.1132 9.16557H10.8712L7.09522 20.6463Z" fill="black"/>
<path d="M16.992 28.5296L16.8718 28.4465L6.3374 20.8956L10.4141 8.53638H23.57L27.6346 20.8956L16.992 28.5296ZM6.8064 20.7413L16.992 28.0429L27.1777 20.7413L23.2934 8.91634H10.6906L6.8064 20.7413ZM16.992 27.9953L16.8718 27.9122L6.8545 20.7294L10.7267 8.9757H23.2453L27.1175 20.7294L16.992 27.9953ZM7.32349 20.575L16.992 27.5085L26.6606 20.575L22.9687 9.35559H11.0154L7.32349 20.575Z" fill="black"/>
<path d="M16.932 18.1293C17.2575 18.1293 17.5213 17.8688 17.5213 17.5475C17.5213 17.2263 17.2575 16.9658 16.932 16.9658C16.6066 16.9658 16.3428 17.2263 16.3428 17.5475C16.3428 17.8688 16.6066 18.1293 16.932 18.1293Z" fill="black"/>
<path d="M16.9318 18.3669C16.4749 18.3669 16.1021 17.9988 16.1021 17.5477C16.1021 17.0965 16.4749 16.7285 16.9318 16.7285C17.3888 16.7285 17.7616 17.0965 17.7616 17.5477C17.7616 17.9988 17.4008 18.3669 16.9318 18.3669ZM16.9318 17.2152C16.7394 17.2152 16.5951 17.3696 16.5951 17.5477C16.5951 17.7258 16.7514 17.8801 16.9318 17.8801C17.1122 17.8801 17.2685 17.7258 17.2685 17.5477C17.2685 17.3696 17.1243 17.2152 16.9318 17.2152Z" fill="black"/>
<path d="M23.2694 9.61684C23.5949 9.61684 23.8587 9.35637 23.8587 9.03514C23.8587 8.71384 23.5949 8.45337 23.2694 8.45337C22.944 8.45337 22.6802 8.71384 22.6802 9.03514C22.6802 9.35637 22.944 9.61684 23.2694 9.61684Z" fill="black"/>
<path d="M23.2692 9.8662C22.8123 9.8662 22.4395 9.49814 22.4395 9.04699C22.4395 8.59584 22.8123 8.22778 23.2692 8.22778C23.7262 8.22778 24.099 8.59584 24.099 9.04699C24.099 9.49814 23.7262 9.8662 23.2692 9.8662ZM23.2692 8.70273C23.0768 8.70273 22.9325 8.85701 22.9325 9.03516C22.9325 9.22507 23.0888 9.36759 23.2692 9.36759C23.4617 9.36759 23.6059 9.21324 23.6059 9.03516C23.6059 8.85701 23.4496 8.70273 23.2692 8.70273Z" fill="black"/>
<path d="M6.975 21.3469C7.30042 21.3469 7.56425 21.0864 7.56425 20.7651C7.56425 20.4438 7.30042 20.1833 6.975 20.1833C6.64956 20.1833 6.38574 20.4438 6.38574 20.7651C6.38574 21.0864 6.64956 21.3469 6.975 21.3469Z" fill="black"/>
<path d="M6.97479 21.5961C6.51781 21.5961 6.14502 21.2281 6.14502 20.7769C6.14502 20.3258 6.51781 19.9578 6.97479 19.9578C7.43173 19.9578 7.80455 20.3258 7.80455 20.7769C7.80455 21.2281 7.43173 21.5961 6.97479 21.5961ZM6.97479 20.4326C6.78238 20.4326 6.63807 20.587 6.63807 20.7651C6.63807 20.9432 6.7944 21.0975 6.97479 21.0975C7.1672 21.0975 7.31147 20.9432 7.31147 20.7651C7.31147 20.587 7.15516 20.4326 6.97479 20.4326Z" fill="black"/>
<path d="M10.7631 9.61684C11.0885 9.61684 11.3524 9.35637 11.3524 9.03514C11.3524 8.71384 11.0885 8.45337 10.7631 8.45337C10.4377 8.45337 10.1738 8.71384 10.1738 9.03514C10.1738 9.35637 10.4377 9.61684 10.7631 9.61684Z" fill="black"/>
<path d="M10.7629 9.8662C10.3059 9.8662 9.93311 9.49814 9.93311 9.04699C9.93311 8.59584 10.3059 8.22778 10.7629 8.22778C11.2198 8.22778 11.5927 8.59584 11.5927 9.04699C11.5927 9.49814 11.2198 9.8662 10.7629 9.8662ZM10.7629 8.70273C10.5705 8.70273 10.4262 8.85701 10.4262 9.03516C10.4262 9.22507 10.5825 9.36759 10.7629 9.36759C10.9433 9.36759 11.0996 9.21324 11.0996 9.03516C11.0996 8.85701 10.9433 8.70273 10.7629 8.70273Z" fill="black"/>
<path d="M26.9975 21.3469C27.3229 21.3469 27.5867 21.0864 27.5867 20.7651C27.5867 20.4438 27.3229 20.1833 26.9975 20.1833C26.672 20.1833 26.4082 20.4438 26.4082 20.7651C26.4082 21.0864 26.672 21.3469 26.9975 21.3469Z" fill="black"/>
<path d="M26.9973 21.5961C26.5403 21.5961 26.1675 21.2281 26.1675 20.7769C26.1675 20.3258 26.5403 19.9578 26.9973 19.9578C27.4542 19.9578 27.827 20.3258 27.827 20.7769C27.827 21.2281 27.4663 21.5961 26.9973 21.5961ZM26.9973 20.4326C26.8049 20.4326 26.6606 20.587 26.6606 20.7651C26.6606 20.9432 26.8169 21.0975 26.9973 21.0975C27.1897 21.0975 27.334 20.9432 27.334 20.7651C27.334 20.587 27.1897 20.4326 26.9973 20.4326Z" fill="black"/>
<path d="M16.956 28.4701C17.2814 28.4701 17.5452 28.2097 17.5452 27.8884C17.5452 27.5671 17.2814 27.3066 16.956 27.3066C16.6305 27.3066 16.3667 27.5671 16.3667 27.8884C16.3667 28.2097 16.6305 28.4701 16.956 28.4701Z" fill="black"/>
<path d="M16.9562 28.7195C16.4993 28.7195 16.1265 28.3514 16.1265 27.9003C16.1265 27.4491 16.4993 27.0811 16.9562 27.0811C17.4132 27.0811 17.786 27.4491 17.786 27.9003C17.786 28.3514 17.4132 28.7195 16.9562 28.7195ZM16.9562 27.556C16.7638 27.556 16.6195 27.7104 16.6195 27.8884C16.6195 28.0665 16.7759 28.2209 16.9562 28.2209C17.1366 28.2209 17.2929 28.0665 17.2929 27.8884C17.2929 27.7104 17.1486 27.556 16.9562 27.556Z" fill="black"/>
<path d="M54.1027 24.2912L52.5995 15.0425L48.3905 24.1012H47.8615L43.6525 15.0544L42.1373 24.303H39.9727L42.0892 11.5283H44.1816L48.126 20.2071L52.0703 11.5283H54.1869L56.2673 24.2912H54.1027Z" fill="black"/>
<path d="M67.8481 19.3877C67.8481 19.6133 67.8241 19.827 67.8001 20.0526H59.7069C59.9594 21.6435 61.1259 22.6289 62.7614 22.6289C63.9519 22.6289 64.9139 22.0828 65.4431 21.1924H67.5957C66.8019 23.2701 64.9861 24.5285 62.7493 24.5285C59.8392 24.5285 57.6265 22.3084 57.6265 19.364C57.6265 16.4197 59.8271 14.1995 62.7493 14.1995C65.8158 14.1995 67.8481 16.5265 67.8481 19.3877ZM62.7614 16.0279C61.2221 16.0279 60.0917 16.942 59.755 18.4023H65.7918C65.431 16.9183 64.2886 16.0279 62.7614 16.0279Z" fill="black"/>
<path d="M75.4844 22.4508V24.2911H73.957C71.7681 24.2911 70.4213 22.9613 70.4213 20.7887V16.1822H68.6416V15.7904L72.1048 12.1455H72.4541V14.4488H75.4242V16.1822H72.4779V20.6343C72.4779 21.8097 73.1394 22.4627 74.342 22.4627H75.4844V22.4508Z" fill="black"/>
<path d="M83.1444 14.3894V16.3009H82.0622C80.3668 16.3009 79.5247 17.2507 79.5247 19.0434V24.291H77.48V14.4488H78.8632L79.2118 15.7904C79.9216 14.8525 80.9079 14.3894 82.2666 14.3894H83.1444Z" fill="black"/>
<path d="M84.7197 10.8279H86.8365V12.9175H84.7197V10.8279ZM84.7561 14.449H86.8001V24.2913H84.7561V14.449Z" fill="black"/>
<path d="M95.6034 24.2911L93.1142 20.5394L90.6005 24.2911H88.3521L91.8997 19.1979L88.6285 14.437H90.9372L93.138 17.7494L95.4108 14.437H97.6593L94.3406 19.091L97.9119 24.2792H95.6034V24.2911Z" fill="black"/>
<path d="M110.118 24.5168C106.294 24.5168 103.468 21.7268 103.468 17.9157C103.468 14.0928 106.294 11.3027 110.118 11.3027C113.173 11.3027 115.625 13.1786 116.311 16.0636H114.158C113.545 14.3659 112.03 13.3329 110.118 13.3329C107.533 13.3329 105.632 15.2563 105.632 17.9157C105.632 20.5751 107.533 22.4985 110.118 22.4985C112.09 22.4985 113.617 21.3944 114.206 19.5898H116.359C115.674 22.5816 113.233 24.5168 110.118 24.5168Z" fill="black"/>
<path d="M128.337 14.437V24.2792H126.677L126.473 23.0801C125.571 23.9824 124.308 24.5286 122.853 24.5286C119.883 24.5286 117.658 22.3085 117.658 19.3641C117.658 16.4078 119.883 14.2114 122.853 14.2114C124.32 14.2114 125.595 14.7576 126.496 15.6718L126.737 14.437H128.337ZM126.28 19.3641C126.28 17.512 124.91 16.1347 123.022 16.1347C121.146 16.1347 119.751 17.5238 119.751 19.3641C119.751 21.2043 121.133 22.5934 123.022 22.5934C124.91 22.5934 126.28 21.2162 126.28 19.3641Z" fill="black"/>
<path d="M136.622 14.1995C139.605 14.1995 141.793 16.3959 141.793 19.364C141.793 22.3202 139.616 24.5285 136.622 24.5285C135.335 24.5285 134.181 24.0893 133.315 23.3413V27.8172H131.271V14.4488H132.654L133.038 15.6598C133.928 14.7456 135.191 14.1995 136.622 14.1995ZM139.713 19.364C139.713 17.5119 138.342 16.1347 136.454 16.1347C134.578 16.1347 133.183 17.5238 133.183 19.364C133.183 21.2042 134.566 22.5933 136.454 22.5933C138.342 22.5933 139.713 21.228 139.713 19.364Z" fill="black"/>
<path d="M143.946 10.8279H146.062V12.9175H143.946V10.8279ZM143.982 14.449H146.026V24.2913H143.982V14.449Z" fill="black"/>
<path d="M154.54 22.4508V24.2911H153.013C150.824 24.2911 149.477 22.9613 149.477 20.7887V16.1822H147.698V15.7904L151.161 12.1455H151.509V14.4488H154.48V16.1822H151.534V20.6343C151.534 21.8097 152.195 22.4627 153.398 22.4627H154.54V22.4508Z" fill="black"/>
<path d="M166.35 14.437V24.2792H164.69L164.486 23.0801C163.583 23.9824 162.321 24.5286 160.866 24.5286C157.896 24.5286 155.67 22.3085 155.67 19.3641C155.67 16.4078 157.896 14.2114 160.866 14.2114C162.333 14.2114 163.608 14.7576 164.509 15.6718L164.75 14.437H166.35ZM164.293 19.3641C164.293 17.512 162.922 16.1347 161.034 16.1347C159.158 16.1347 157.763 17.5238 157.763 19.3641C157.763 21.2043 159.146 22.5934 161.034 22.5934C162.922 22.5934 164.293 21.2162 164.293 19.3641Z" fill="black"/>
<path d="M169.271 10.9109H171.316V24.2912H169.271V10.9109Z" fill="black"/>
</g>
<defs>
<clipPath id="clip0_918_1585">
<rect width="171.5" height="35" fill="white"/>
</clipPath>
</defs>
</svg>
