<svg width="136" height="50" viewBox="0 0 136 50" fill="none" xmlns="http://www.w3.org/2000/svg">
<path d="M17.4766 24.4354L21.4777 30.6228L22.9508 14.145L17.2739 20.6684L17.4766 24.4354Z" fill="black"/>
<path d="M26.4135 10.8731L22.5107 32.2233L23.3456 33.5137C23.5014 33.7538 23.6793 33.9809 23.8913 34.1729C24.211 34.4611 24.5728 34.6741 24.9546 34.8146L35.7696 0.19165L26.4135 10.8731Z" fill="black"/>
<path d="M21.8164 35.7398L21.9276 35.6509L21.8515 35.5596L21.8164 35.7398Z" fill="black"/>
<path d="M2.24825 13.9754L21.1511 37.0492L20.637 37.459L2.55036 18.7154L3.9473 27.2213L17.2951 39.9204L16.8607 40.2857L4.19204 31.2318L5.04333 38.219L11.3665 41.5199C12.5913 42.0024 12.644 43.7166 11.452 44.274L2.26814 49.6453L11.0269 49.9941L22.7412 44.0082L30.2693 40.1604L30.2892 40.1511C30.9847 39.8466 32.3291 39.2378 33.4859 38.589C35.1346 37.6616 36.1967 39.3115 36.1967 39.3115C36.9684 37.5913 34.5433 36.0445 32.1475 35.0292C32.1147 35.0153 32.0843 35.0024 32.0526 34.9907C32.9672 35.7084 33.8186 36.5012 34.1757 37.1826C34.0901 37.13 31.3513 35.4345 28.0984 34.9696C26.9168 36.7939 24.1592 36.9555 22.7318 35.1604L0 0L2.24825 13.9754Z" fill="black"/>
<path d="M51.0806 33.5035H49.103V39.4873H45.3164V22.3896H51.8143C53.1668 22.3896 54.3108 22.6512 55.2463 23.1723C56.1819 23.6933 56.8781 24.3806 57.3347 25.2364C57.7915 26.0922 58.0176 27.0166 58.0176 28.0077C58.0176 29.1161 57.7405 30.1116 57.1863 31.0006C56.6319 31.8874 55.8184 32.5524 54.743 32.9915L58.4079 39.4895H54.4283L51.0806 33.5035ZM49.103 30.402H51.2047C52.0848 30.402 52.8254 30.2179 53.4284 29.8522C54.0314 29.4864 54.333 28.8723 54.333 28.0077C54.333 27.1762 54.0359 26.5865 53.4417 26.2362C52.8475 25.886 52.1026 25.7108 51.2069 25.7108H49.1052V30.402H49.103Z" fill="black"/>
<path d="M64.297 25.7108V29.3511H70.7948V32.3065H64.297V36.1661H72.0164V39.4873H60.4614V22.3896H72.0142V25.7108H64.297Z" fill="black"/>
<path d="M74.2854 22.3652H81.0274C82.5416 22.3652 83.8762 22.7044 85.0336 23.3784C86.1886 24.0546 87.0887 25.0323 87.7316 26.3092C88.3745 27.5885 88.696 29.1138 88.696 30.8896C88.696 32.6964 88.3702 34.2439 87.7183 35.5298C87.0665 36.8156 86.1598 37.7934 84.9937 38.4608C83.8298 39.128 82.4906 39.4627 80.9765 39.4627H74.2832V22.3652H74.2854ZM80.2693 36.044C81.6039 36.044 82.6636 35.6629 83.4439 34.8958C84.2266 34.1309 84.6167 32.7962 84.6167 30.8896C84.6167 28.9852 84.2289 27.6483 83.4573 26.8834C82.6835 26.1185 81.6215 25.7351 80.2693 25.7351H77.9724V36.044H80.2693Z" fill="black"/>
<path d="M94.1675 22.3896H95.8523V30.1824H95.9742L103.009 22.3896H105.159L98.2467 29.79L105.796 39.4873H103.791L97.2202 31.0361L95.8523 32.5015V39.4873H94.1675V22.3896Z" fill="black"/>
<path d="M107.796 22.3896H109.506V39.4873H107.796V22.3896Z" fill="black"/>
<path d="M123.236 23.9283H118.057V39.4873H116.372V23.9283H111.193V22.3896H123.236V23.9283Z" fill="black"/>
<path d="M126.383 23.9283V30.034H134.007V31.4506H126.383V37.9487H134.982V39.4873H124.698V22.3896H134.982V23.9283H126.383Z" fill="black"/>
</svg>
