<svg width="500" height="200" viewBox="0 0 500 200" fill="none" xmlns="http://www.w3.org/2000/svg">
<g clip-path="url(#clip0_1312_1833)">
<path d="M71 139.521L106.25 73.7764L137.382 60L102.083 125.744L71 139.521Z" fill="white"/>
<path d="M106.152 124.519L132.92 74.561L148.216 89.6121L121.742 139.668L106.152 124.519Z" fill="white"/>
<path d="M151.158 91.0828L170.964 98.3388L161.061 116.576L137.038 117.41L151.158 91.0828Z" fill="white"/>
<path d="M195.38 125.695H182.192V88.4841H195.478C199.204 88.4841 202.44 89.2195 205.136 90.6903C207.833 92.1611 209.941 94.3183 211.363 97.0636C212.833 99.8583 213.52 103.143 213.52 107.016C213.52 110.889 212.784 114.223 211.314 117.018C209.843 119.812 207.784 121.92 205.038 123.44C202.391 124.96 199.155 125.695 195.38 125.695ZM190.036 118.93H195.037C198.518 118.93 201.165 117.998 202.979 116.086C204.793 114.223 205.676 111.183 205.676 107.016C205.676 102.898 204.793 99.9073 202.979 97.9953C201.165 96.1323 198.518 95.2006 195.037 95.2006H190.036V118.93Z" fill="white"/>
<path d="M219.403 125.695H210.97L223.815 88.5332H233.964L246.76 125.695H238.327L235.582 117.214H222.148L219.403 125.695ZM224.158 111.085H233.621L229.061 97.0147H228.767L224.158 111.085Z" fill="white"/>
<path d="M279.019 107.114C279.019 111.183 278.234 114.615 276.714 117.459C275.195 120.302 273.086 122.459 270.488 123.979C267.841 125.45 264.899 126.234 261.614 126.234C258.33 126.234 255.339 125.499 252.741 123.979C250.093 122.459 248.034 120.302 246.514 117.459C244.994 114.615 244.21 111.183 244.21 107.163C244.21 103.094 244.994 99.6623 246.514 96.8187C248.034 93.975 250.093 91.818 252.741 90.2982C255.388 88.8274 258.33 88.043 261.614 88.043C264.899 88.043 267.841 88.7784 270.488 90.2982C273.135 91.769 275.195 93.975 276.714 96.8187C278.283 99.564 279.019 103.045 279.019 107.114ZM271.076 107.114C271.076 103.192 270.194 100.152 268.478 98.0933C266.762 96.0343 264.458 94.9557 261.614 94.9557C258.771 94.9557 256.467 95.9853 254.751 98.0933C253.035 100.201 252.152 103.192 252.152 107.114C252.152 111.036 253.035 114.076 254.751 116.135C256.467 118.194 258.771 119.273 261.614 119.273C264.458 119.273 266.762 118.243 268.478 116.135C270.194 114.027 271.076 111.036 271.076 107.114Z" fill="white"/>
<path d="M289.56 88.4841H299.267L309.513 113.488H309.955L320.201 88.4841H329.859V125.695H322.211V101.476H321.917L312.308 125.499H307.111L297.502 101.378H297.208V125.695H289.56V88.4841Z" fill="white"/>
<path d="M341.282 126.186C338.635 126.186 336.428 125.499 334.664 124.077C332.899 122.705 332.016 120.597 332.016 117.851C332.016 115.792 332.506 114.125 333.487 112.948C334.467 111.772 335.742 110.889 337.36 110.35C338.929 109.811 340.645 109.419 342.508 109.271C344.91 109.026 346.675 108.781 347.705 108.487C348.734 108.193 349.274 107.654 349.274 106.722V106.624C349.274 105.496 348.93 104.565 348.195 103.977C347.459 103.339 346.479 103.045 345.155 103.045C343.782 103.045 342.655 103.339 341.821 103.977C340.988 104.565 340.449 105.349 340.203 106.281L333.046 105.693C333.585 103.143 334.909 101.133 337.017 99.6623C339.125 98.1913 341.87 97.407 345.204 97.407C347.263 97.407 349.225 97.7503 350.99 98.3876C352.804 99.025 354.225 100.054 355.353 101.427C356.481 102.8 357.02 104.614 357.02 106.82V125.695H349.666V121.822H349.47C348.783 123.097 347.803 124.175 346.43 125.009C345.057 125.793 343.341 126.186 341.282 126.186ZM343.488 120.891C345.205 120.891 346.577 120.4 347.656 119.42C348.734 118.439 349.274 117.214 349.274 115.743V112.801C348.98 112.997 348.489 113.194 347.852 113.341C347.214 113.488 346.528 113.635 345.842 113.733C345.106 113.831 344.469 113.929 343.93 114.027C342.557 114.223 341.478 114.615 340.645 115.155C339.811 115.743 339.419 116.576 339.419 117.655C339.419 118.734 339.811 119.518 340.596 120.057C341.331 120.597 342.312 120.891 343.488 120.891Z" fill="white"/>
<path d="M359.961 125.695V88.4841H367.707V108.34H368.149L377.071 97.7503H385.945L375.601 109.811L386.484 125.646H377.414L369.766 114.419L367.658 116.821V125.695H359.961Z" fill="white"/>
<path d="M397.662 126.234C394.819 126.234 392.368 125.646 390.259 124.47C388.2 123.293 386.582 121.626 385.504 119.518C384.376 117.361 383.837 114.811 383.837 111.87C383.837 109.026 384.376 106.477 385.504 104.32C386.631 102.163 388.2 100.447 390.21 99.2701C392.22 98.0444 394.623 97.4561 397.368 97.4561C399.82 97.4561 402.026 97.9954 404.036 99.0251C405.997 100.054 407.567 101.623 408.743 103.731C409.92 105.84 410.507 108.438 410.507 111.625V113.733H391.534C391.534 115.792 392.122 117.459 393.25 118.635C394.378 119.812 395.946 120.449 397.858 120.449C399.133 120.449 400.261 120.155 401.192 119.616C402.124 119.077 402.81 118.243 403.202 117.214L410.36 117.704C409.82 120.302 408.447 122.361 406.243 123.93C403.987 125.45 401.143 126.234 397.662 126.234ZM391.485 108.928H403.202C403.202 107.261 402.663 105.889 401.584 104.81C400.506 103.731 399.182 103.192 397.466 103.192C395.75 103.192 394.329 103.731 393.25 104.859C392.171 105.987 391.583 107.359 391.485 108.928Z" fill="white"/>
<path d="M412.42 125.695V97.7993H419.92V102.653H420.213C420.703 100.937 421.587 99.6133 422.763 98.7306C423.94 97.8483 425.363 97.407 426.883 97.407C427.763 97.407 428.55 97.505 429.333 97.7013V104.565C428.99 104.467 428.45 104.369 427.813 104.271C427.177 104.173 426.587 104.173 426.05 104.173C424.333 104.173 422.91 104.712 421.833 105.791C420.703 106.869 420.167 108.242 420.167 109.958V125.695H412.42Z" fill="white"/>
</g>
<defs>
<clipPath id="clip0_1312_1833">
<rect width="358.333" height="80" fill="white" transform="translate(71 60)"/>
</clipPath>
</defs>
</svg>
