<svg width="500" height="200" viewBox="0 0 500 200" fill="none" xmlns="http://www.w3.org/2000/svg">
<g clip-path="url(#clip0_1311_1779)">
<path d="M114.331 107.004H92.3462C91.7627 107.004 91.4708 106.712 91.4708 106.128V94.4553C91.4708 93.8068 91.7627 93.4826 92.3462 93.4826H121.335C122.372 93.4826 123.377 93.742 124.35 94.2608C125.388 94.7147 126.296 95.3632 127.074 96.2063C127.917 97.0495 128.565 97.9897 129.019 99.0274C129.538 100.065 129.798 101.103 129.798 102.14V116.44C129.798 117.542 129.538 118.612 129.019 119.65C128.565 120.623 127.917 121.53 127.074 122.374C126.296 123.152 125.388 123.8 124.35 124.319C123.377 124.773 122.372 125 121.335 125H77.5603C76.5227 125 75.4851 124.773 74.4475 124.319C73.4747 123.8 72.5668 123.152 71.7237 122.374C70.9455 121.53 70.297 120.623 69.7782 119.65C69.2594 118.612 69 117.542 69 116.44V84.144C69 83.1064 69.2594 82.0688 69.7782 81.0312C70.297 79.9936 70.9455 79.0857 71.7237 78.3075C72.5668 77.4644 73.4747 76.8159 74.4475 76.362C75.4851 75.8431 76.5227 75.5837 77.5603 75.5837H128.922C129.506 75.5837 129.798 75.8756 129.798 76.4592V89.2997C129.798 89.8834 129.506 90.1752 128.922 90.1752H84.5642V110.311H114.331V107.004Z" fill="white"/>
<path d="M179.616 92.4125C179.616 91.8937 179.227 91.6343 178.449 91.6343C177.93 91.6343 177.346 91.9261 176.698 92.5098C176.114 93.0286 175.563 93.5799 175.044 94.1635L175.141 94.0662L167.164 103.794H179.616V92.4125ZM195.083 87.2569V124.027C195.083 124.676 194.791 125 194.207 125H180.589C179.94 125 179.616 124.676 179.616 124.027V117.121H157.145L151.211 124.611C151.146 124.87 150.887 125 150.433 125H134.48C134.026 125 133.734 124.838 133.604 124.514C133.474 124.125 133.507 123.768 133.702 123.444L167.067 79.0857C168.689 77.7887 170.764 76.8808 173.293 76.362C175.822 75.8431 178.449 75.5837 181.172 75.5837C183.248 75.5837 185.128 75.7783 186.814 76.1674C188.565 76.4917 190.024 77.1077 191.192 78.0156C192.424 78.9236 193.364 80.1233 194.013 81.6149C194.726 83.1064 195.083 84.9871 195.083 87.2569Z" fill="white"/>
<path d="M217.725 125H204.106C203.457 125 203.133 124.676 203.133 124.027V82.4904C203.133 81.6473 203.36 80.8042 203.814 79.9612C204.268 79.1181 204.884 78.3723 205.662 77.7238C206.506 77.0753 207.446 76.5565 208.484 76.1674C209.521 75.7783 210.623 75.5837 211.791 75.5837H215.585C217.465 75.7783 219.281 76.4592 221.032 77.6265C222.783 78.729 224.177 80.1233 225.215 81.8094L239.417 105.35L253.717 81.8094C254.755 80.1233 256.116 78.729 257.803 77.6265C259.553 76.4592 261.369 75.7783 263.25 75.5837H267.044C268.211 75.5837 269.313 75.7783 270.351 76.1674C271.454 76.5565 272.394 77.0753 273.172 77.7238C274.015 78.3723 274.664 79.1181 275.118 79.9612C275.572 80.8042 275.799 81.6473 275.799 82.4904V124.027C275.799 124.676 275.474 125 274.826 125H261.207C260.559 125 260.235 124.676 260.235 124.027V101.07C257.511 105.61 254.982 109.598 252.647 113.035C250.377 116.407 248.626 118.937 247.394 120.623C245.967 122.503 244.638 123.703 243.406 124.222C242.173 124.741 241.201 125 240.487 125H238.445C237.277 125 236.175 124.741 235.137 124.222C234.164 123.703 232.965 122.503 231.538 120.623C230.241 118.937 228.425 116.407 226.091 113.035C223.821 109.598 221.324 105.61 218.6 101.07V124.027C218.6 124.676 218.309 125 217.725 125Z" fill="white"/>
<path d="M328.67 93.4826H303.67C303.087 93.4826 302.795 93.8068 302.795 94.4553V106.128C302.795 106.712 303.087 107.004 303.67 107.004H335.674C336.712 107.004 337.716 106.777 338.689 106.323C339.727 105.804 340.635 105.156 341.414 104.378C342.256 103.534 342.906 102.627 343.358 101.654C343.879 100.616 344.137 99.5461 344.137 98.4436V84.144C344.137 83.1064 343.879 82.0688 343.358 81.0312C342.906 79.9936 342.256 79.0857 341.414 78.3075C340.635 77.4644 339.727 76.8159 338.689 76.362C337.716 75.8431 336.712 75.5837 335.674 75.5837H292.483C291.445 75.5837 290.408 75.8431 289.37 76.362C288.397 76.8159 287.489 77.4644 286.647 78.3075C285.868 79.0857 285.22 79.9936 284.702 81.0312C284.183 82.0688 283.922 83.1064 283.922 84.144V116.44C283.922 117.542 284.183 118.612 284.702 119.65C285.22 120.623 285.868 121.53 286.647 122.374C287.489 123.152 288.397 123.8 289.37 124.319C290.408 124.773 291.445 125 292.483 125H343.262C343.845 125 344.137 124.676 344.137 124.027V111.284C344.137 110.636 343.845 110.311 343.262 110.311H299.487V90.1752H328.67V93.4826Z" fill="white"/>
<path d="M353.345 123.152H366.574V105.642H405.097V94.358H366.574V89.2996H405.193V76.8482H360.641C359.733 76.8482 358.858 77.0752 358.014 77.5292C357.172 77.9183 356.393 78.4695 355.68 79.1829C354.966 79.8962 354.383 80.7069 353.928 81.6148C353.541 82.5227 353.345 83.4306 353.345 84.3385V123.152ZM366.574 125H353.345C352.114 125 351.497 124.384 351.497 123.152V84.3385C351.497 83.1712 351.758 82.0363 352.276 80.9339C352.86 79.8314 353.572 78.8586 354.416 78.0156C355.324 77.1076 356.295 76.3943 357.335 75.8755C358.437 75.2918 359.539 75 360.641 75H405.193C406.426 75 407.041 75.6161 407.041 76.8482V89.2996C407.041 90.5318 406.426 91.1479 405.193 91.1479H368.424V92.5097H405.097C406.328 92.5097 406.945 93.1258 406.945 94.358V105.642C406.945 106.874 406.328 107.49 405.097 107.49H368.424V123.152C368.424 124.384 367.807 125 366.574 125Z" fill="white"/>
<path d="M428.923 123.152V77.9183H415.792V123.152H428.923ZM430.673 77.9183V123.152C430.673 124.384 430.09 125 428.923 125H415.792C414.623 125 414.04 124.384 414.04 123.152V77.9183C414.04 76.6861 414.623 76.0701 415.792 76.0701H428.923C430.09 76.0701 430.673 76.6861 430.673 77.9183Z" fill="white"/>
</g>
<defs>
<clipPath id="clip0_1311_1779">
<rect width="362.5" height="50" fill="white" transform="translate(69 75)"/>
</clipPath>
</defs>
</svg>
