<svg width="500" height="200" viewBox="0 0 500 200" fill="none" xmlns="http://www.w3.org/2000/svg">
<path d="M125.179 99.211L124.311 98.3393C123.655 97.6847 122.528 98.1483 122.528 99.0768V111.527C122.528 112.102 122.999 112.569 123.577 112.569H136.029C136.956 112.569 137.425 111.445 136.764 110.789C136.569 110.594 136.46 110.329 136.46 110.052C136.46 109.776 136.569 109.511 136.764 109.316L150.01 96.0345C150.416 95.6285 150.416 94.9691 150.01 94.5602L148.803 93.3581C148.148 92.7035 148.615 91.5786 149.541 91.5786H161.986C162.561 91.5786 163.032 92.046 163.032 92.6215V105.072C163.032 105.999 161.902 106.465 161.246 105.809L160.406 104.971C159.994 104.552 159.338 104.552 158.934 104.971L136.605 127.29C136.199 127.695 135.54 127.695 135.129 127.29L107.81 99.9699C107.712 99.8731 107.635 99.7579 107.582 99.631C107.529 99.5041 107.502 99.368 107.502 99.2305C107.502 99.093 107.529 98.9569 107.582 98.83C107.635 98.7031 107.712 98.5879 107.81 98.4911L145.629 60.6728C146.034 60.2658 146.034 59.6017 145.629 59.1961L136.736 50.3039C136.54 50.1092 136.275 50 135.998 50C135.721 50 135.456 50.1092 135.26 50.3039L86.3043 99.2646C85.8986 99.6718 85.8986 100.336 86.3043 100.741L135.26 149.697C135.666 150.101 136.332 150.101 136.736 149.697L185.69 100.741C186.094 100.334 186.094 99.6736 185.69 99.2678L156.889 70.4664C156.486 70.0612 155.824 70.0612 155.415 70.4664L126.658 99.2114C126.561 99.309 126.446 99.3865 126.319 99.4394C126.192 99.4923 126.056 99.5195 125.918 99.5195C125.781 99.5195 125.645 99.4923 125.518 99.4394C125.391 99.3865 125.276 99.309 125.179 99.2114L125.179 99.211V99.211ZM351.158 111.598C349.896 111.598 348.807 112.051 347.894 112.96C346.993 113.87 346.533 114.944 346.533 116.189C346.533 118.085 347.495 119.56 349.406 120.615C351.501 121.187 353.186 120.814 354.454 119.517C355.37 118.602 355.821 117.504 355.821 116.224C355.821 114.929 355.37 113.847 354.454 112.96C353.545 112.057 352.452 111.605 351.155 111.605L351.158 111.599V111.598V111.598ZM276.766 76.4081H273.314C271.823 76.4081 270.611 77.6116 270.611 79.1025V81.0277C266.939 77.2092 262.782 75.299 258.139 75.299C252.776 75.299 248.302 77.2944 244.735 81.2743C241.157 85.2542 239.375 90.2289 239.375 96.2018C239.375 102.277 241.157 107.349 244.724 111.414C248.331 115.395 252.879 117.386 258.388 117.386C262.745 117.386 266.822 115.607 270.611 112.059V115.865C270.611 117.714 272.114 119.217 273.96 119.217H279.854V79.493C279.854 77.7936 278.468 76.4081 276.766 76.4081V76.4081ZM268.043 105.643C265.942 107.989 263.193 109.16 259.782 109.16C256.587 109.16 253.941 107.947 251.848 105.523C249.798 103.128 248.776 100.011 248.776 96.1958C248.776 92.6269 249.828 89.6212 251.926 87.1976C254.051 84.7962 256.696 83.6021 259.86 83.6021C263.215 83.6021 265.937 84.7852 268.038 87.168C270.139 89.5922 271.189 92.6681 271.189 96.4044C271.189 100.141 270.139 103.216 268.038 105.647L268.043 105.644L268.043 105.643ZM239.372 83.1295V79.1909C239.372 77.6534 238.128 76.4149 236.59 76.4149H232.952C231.42 76.4149 230.173 77.6476 230.173 79.1909V80.9113C226.846 77.1724 222.675 75.2996 217.658 75.2996C211.933 75.2996 207.32 77.4596 203.833 81.7621C200.587 85.8183 198.966 90.7579 198.966 96.566C198.966 102.536 200.714 107.517 204.206 111.493C207.669 115.429 212.111 117.381 217.538 117.381C222.303 117.381 226.519 115.52 230.173 111.784V117.346C230.173 125.611 226.807 129.743 220.074 129.743C216.419 129.743 213.643 128.499 211.735 126.016C211.248 125.388 210.844 124.601 210.523 123.662C210.072 122.347 208.822 121.473 207.436 121.473H203.949C202.191 121.473 200.884 123.145 201.329 124.848C202.282 128.469 204.124 131.416 206.866 133.696C210.3 136.561 214.679 137.997 219.992 137.997C226.289 137.997 231.238 135.919 234.84 131.78C236.748 129.626 238.024 127.049 238.681 124.05C238.899 122.964 239.071 121.7 239.191 120.264C239.311 118.838 239.371 117.182 239.371 115.298V109.51C236.796 105.797 235.5 101.363 235.5 96.1974C235.5 91.1227 236.794 86.776 239.371 83.1337V83.1307L239.372 83.1295V83.1295ZM227.717 105.329C225.673 107.883 222.897 109.159 219.375 109.159C215.858 109.159 213.105 107.891 211.11 105.353C209.287 103.04 208.374 100.064 208.374 96.4422C208.374 92.7587 209.287 89.7594 211.11 87.444C213.133 84.858 215.883 83.5643 219.375 83.5643C222.645 83.5643 225.332 84.7494 227.428 87.1182C229.501 89.434 230.542 92.5282 230.542 96.405C230.542 100.03 229.598 103 227.717 105.324V105.33L227.717 105.329ZM315.865 76.4375V76.4083H296.782V64.7241C296.782 63.2216 295.567 62.0035 294.061 62.0035H290.336C288.816 62.0035 287.583 63.2362 287.583 64.7567V76.4085H283.654V84.9904H287.578V119.212H292.825C293.344 119.213 293.858 119.112 294.338 118.914C294.818 118.715 295.254 118.424 295.621 118.057C295.988 117.69 296.279 117.254 296.477 116.774C296.675 116.295 296.777 115.78 296.776 115.261V84.996H306.212C306.952 83.5752 307.866 82.252 308.933 81.0569C310.887 78.9263 313.2 77.3824 315.859 76.4375H315.865H315.865V76.4375ZM362.818 62.0033C361.186 62.0033 359.783 62.5905 358.609 63.7644C357.441 64.9351 356.848 66.3293 356.848 67.9348C356.848 69.6289 357.436 71.0489 358.609 72.232C359.783 73.4028 361.204 73.9871 362.865 73.9871C364.528 73.9871 365.928 73.403 367.07 72.2287C368.241 71.0489 368.835 69.6405 368.835 67.9762C368.835 66.3175 368.247 64.9093 367.073 63.7706C365.896 62.5909 364.48 62.0033 362.818 62.0033ZM364.682 80.9161H361.344C359.634 80.9161 358.239 82.3018 358.239 84.0213V113.236C358.943 114.061 359.278 115.032 359.278 116.162C359.278 117.292 358.943 118.275 358.239 119.106V120.75H364.162C365.976 120.75 367.443 119.279 367.443 117.462V83.6693C367.443 82.1486 366.205 80.9161 364.678 80.9161H364.682V80.9161ZM407.928 86.5577C403.784 82.4982 398.739 80.4672 392.795 80.4672C386.879 80.4672 381.859 82.4808 377.745 86.5223C373.631 90.5547 371.57 95.4505 371.57 101.203C371.57 107.308 373.583 112.379 377.622 116.418C381.66 120.503 386.667 122.549 392.63 122.549C398.653 122.549 403.74 120.547 407.887 116.538C411.996 112.496 414.062 107.501 414.062 101.529C414.062 95.6087 412.016 90.6191 407.928 86.5513V86.5577V86.5577ZM401.418 110.853C399.27 113.174 396.393 114.322 392.796 114.322C389.218 114.322 386.344 113.157 384.161 110.806C382.036 108.493 380.971 105.335 380.971 101.361C380.971 97.6575 382.068 94.6286 384.249 92.2864C386.426 89.9442 389.274 88.7671 392.795 88.7671C396.361 88.7671 399.241 89.9442 401.418 92.2864C403.573 94.599 404.653 97.6987 404.653 101.561C404.653 105.441 403.573 108.528 401.418 110.847V110.853Z" fill="white"/>
<path d="M319.292 109.244C317.396 107.325 316.337 104.707 316.093 101.437H342.466C343.67 101.437 344.662 100.475 344.679 99.2743C344.679 92.6912 342.988 87.5607 339.611 83.8504C336.198 80.1179 331.56 78.2509 325.701 78.2509C319.902 78.2509 315.236 80.1761 311.72 84.0154C308.228 87.9186 306.484 93.0134 306.484 99.3121C306.484 105.664 308.286 110.764 311.878 114.604C314.39 117.274 317.47 119.006 321.123 119.813C322.656 120.174 324.247 120.361 325.852 120.338C332.405 120.473 338.102 120.608 344.653 120.743L344.662 119.783C343.86 118.912 343.458 117.861 343.458 116.634C343.458 115.443 343.878 114.418 344.696 113.532L344.702 112.367C339.531 112.238 327.011 112.114 326.512 112.114C323.577 112.114 321.164 111.166 319.292 109.25V109.244H319.292V109.244ZM318.012 90.8482C318.591 89.9499 319.275 89.1809 320.082 88.5412C320.889 87.8926 321.776 87.4081 322.762 87.0679C323.742 86.7273 324.792 86.557 325.913 86.557C330.815 86.557 333.908 89.0078 335.199 93.9123H316.707C317.008 92.7702 317.443 91.7489 318.012 90.8478V90.8482V90.8482Z" fill="white"/>
</svg>
