<svg width="148" height="45" viewBox="0 0 148 45" fill="none" xmlns="http://www.w3.org/2000/svg">
<path d="M17.6305 22.1449L17.2397 21.7527C16.9449 21.4581 16.4378 21.6667 16.4378 22.0846V27.687C16.4378 27.946 16.6498 28.1562 16.9095 28.1562H22.5129C22.9303 28.1562 23.1414 27.6501 22.8439 27.3552C22.7562 27.2671 22.7069 27.1479 22.7069 27.0236C22.7069 26.8993 22.7562 26.7801 22.8439 26.6921L28.8043 20.7155C28.9873 20.5328 28.9873 20.2361 28.8043 20.0521L28.2614 19.5111C27.9664 19.2166 28.1767 18.7104 28.5933 18.7104H34.1936C34.4525 18.7104 34.6643 18.9207 34.6643 19.1797V24.7824C34.6643 25.1997 34.1558 25.4092 33.8608 25.1143L33.4826 24.7368C33.2972 24.5486 33.0022 24.5486 32.8203 24.7368L22.7723 34.7805C22.5897 34.9626 22.293 34.9626 22.1079 34.7805L9.81447 22.4865C9.77055 22.4429 9.73568 22.3911 9.71189 22.334C9.6881 22.2768 9.67585 22.2156 9.67585 22.1537C9.67585 22.0919 9.6881 22.0306 9.71189 21.9735C9.73568 21.9164 9.77055 21.8645 9.81447 21.821L26.8331 4.80276C27.0152 4.61963 27.0152 4.32077 26.8331 4.13826L22.8313 0.136746C22.7429 0.0491471 22.6235 0 22.4991 0C22.3746 0 22.2552 0.0491471 22.1668 0.136746L0.136946 22.1691C-0.0456487 22.3523 -0.0456487 22.6512 0.136946 22.8336L22.1668 44.8635C22.3495 45.0455 22.6493 45.0455 22.8313 44.8635L44.8604 22.8336C45.0424 22.6504 45.0424 22.3531 44.8604 22.1705L31.9 9.20988C31.7187 9.02755 31.4206 9.02755 31.2369 9.20988L18.2959 22.1451C18.2524 22.1891 18.2005 22.2239 18.1434 22.2477C18.0863 22.2715 18.0251 22.2838 17.9632 22.2838C17.9014 22.2838 17.8401 22.2715 17.783 22.2477C17.726 22.2239 17.6741 22.1891 17.6306 22.1451L17.6305 22.1449ZM119.321 27.7192C118.753 27.7192 118.263 27.9227 117.852 28.3319C117.447 28.7415 117.24 29.225 117.24 29.7849C117.24 30.6383 117.673 31.3022 118.532 31.7766C119.476 32.034 120.234 31.8665 120.804 31.2828C121.216 30.8707 121.419 30.3766 121.419 29.801C121.419 29.2183 121.216 28.7311 120.804 28.3321C120.395 27.9254 119.904 27.7222 119.32 27.7222L119.321 27.7197V27.7192ZM85.8445 11.8836H84.2913C83.6204 11.8836 83.0747 12.4252 83.0747 13.0961V13.9625C81.4226 12.2442 79.5517 11.3845 77.4624 11.3845C75.0494 11.3845 73.036 12.2825 71.4306 14.0734C69.8206 15.8644 69.0189 18.103 69.0189 20.7908C69.0189 23.5246 69.8206 25.8069 71.4259 27.6361C73.049 29.428 75.0956 30.3236 77.5747 30.3236C79.5352 30.3236 81.3698 29.5232 83.0749 27.9263V29.6393C83.0749 30.4713 83.7513 31.1476 84.5821 31.1476H87.2341V13.2719C87.2341 12.5071 86.6107 11.8836 85.8445 11.8836ZM81.9192 25.0396C80.974 26.095 79.7366 26.6219 78.2018 26.6219C76.7642 26.6219 75.5732 26.0764 74.6315 24.9853C73.7091 23.9075 73.2493 22.5049 73.2493 20.7881C73.2493 19.1821 73.7225 17.8295 74.6666 16.7389C75.623 15.6583 76.8133 15.1209 78.2372 15.1209C79.7466 15.1209 80.9718 15.6533 81.9169 16.7256C82.8624 17.8165 83.335 19.2007 83.335 20.882C83.335 22.5634 82.8624 23.9474 81.9169 25.041L81.9195 25.0396L81.9192 25.0396ZM69.0175 14.9083V13.1359C69.0175 12.444 68.4575 11.8867 67.7653 11.8867H66.1284C65.4388 11.8867 64.8777 12.4414 64.8777 13.1359V13.9101C63.3806 12.2276 61.5035 11.3848 59.2462 11.3848C56.6699 11.3848 54.594 12.3568 53.0247 14.2929C51.5642 16.1182 50.8345 18.3411 50.8345 20.9547C50.8345 23.6412 51.6214 25.8825 53.1926 27.672C54.7509 29.4432 56.75 30.3214 59.192 30.3214C61.3365 30.3214 63.2334 29.4842 64.8776 27.8027V30.3056C64.8776 34.0248 63.363 35.8844 60.3334 35.8844C58.6887 35.8844 57.4393 35.3244 56.5807 34.2072C56.3617 33.9244 56.1799 33.5706 56.0353 33.1479C55.8324 32.5562 55.2698 32.1626 54.6463 32.1626H53.0772C52.2859 32.1626 51.6978 32.9154 51.8979 33.6814C52.3271 35.3111 53.1557 36.6372 54.3895 37.6633C55.9352 38.9527 57.9056 39.5986 60.2964 39.5986C63.13 39.5986 65.3573 38.6635 66.978 36.8012C67.8366 35.8318 68.411 34.6722 68.7063 33.3225C68.8047 32.8338 68.8818 32.2648 68.936 31.6188C68.9901 30.9769 69.0169 30.2318 69.0169 29.3841V26.7796C67.8583 25.1089 67.2751 23.1132 67.2751 20.7888C67.2751 18.5052 67.8571 16.5492 69.0169 14.9102V14.9088L69.0175 14.9083ZM63.7728 24.8983C62.8531 26.0473 61.6035 26.6217 60.0187 26.6217C58.4359 26.6217 57.197 26.0509 56.2996 24.9087C55.4794 23.8681 55.0684 22.5287 55.0684 20.899C55.0684 19.2414 55.4792 17.8917 56.2996 16.8498C57.2097 15.6861 58.4472 15.1039 60.0187 15.1039C61.4901 15.1039 62.6992 15.6372 63.6428 16.7032C64.5756 17.7453 65.0438 19.1377 65.0438 20.8823C65.0438 22.5133 64.6192 23.8499 63.7726 24.8958V24.8986L63.7728 24.8983ZM103.439 11.8969V11.8837H94.8517V6.62583C94.8517 5.94972 94.3051 5.40158 93.6274 5.40158H91.9511C91.267 5.40158 90.7121 5.95629 90.7121 6.6405V11.8838H88.9441V15.7457H90.7099V31.1454H93.0711C93.3047 31.1459 93.5361 31.1002 93.7521 31.0111C93.968 30.9219 94.1642 30.791 94.3294 30.6258C94.4946 30.4606 94.6256 30.2644 94.7148 30.0485C94.804 29.8326 94.8497 29.6012 94.8492 29.3676V15.7482H99.0954C99.4284 15.1088 99.8396 14.5134 100.32 13.9756C101.199 13.0168 102.24 12.3221 103.437 11.8969H103.439H103.439ZM124.568 5.40149C123.834 5.40149 123.202 5.6657 122.674 6.19396C122.148 6.72078 121.882 7.3482 121.882 8.07066C121.882 8.83299 122.146 9.47203 122.674 10.0044C123.202 10.5312 123.842 10.7942 124.589 10.7942C125.338 10.7942 125.968 10.5313 126.482 10.0029C127.009 9.47203 127.276 8.83821 127.276 8.08929C127.276 7.34289 127.011 6.70917 126.483 6.19675C125.953 5.66588 125.316 5.40149 124.568 5.40149ZM125.407 13.9123H123.905C123.135 13.9123 122.508 14.5358 122.508 15.3096V28.4561C122.825 28.8273 122.975 29.2645 122.975 29.7729C122.975 30.2813 122.825 30.7237 122.508 31.0976V31.8374H125.173C125.989 31.8374 126.65 31.1756 126.65 30.3579V15.1512C126.65 14.4669 126.092 13.9123 125.405 13.9123H125.407ZM144.868 16.4509C143.003 14.6242 140.732 13.7102 138.058 13.7102C135.395 13.7102 133.137 14.6164 131.285 16.435C129.434 18.2496 128.506 20.4527 128.506 23.0413C128.506 25.7885 129.412 28.0708 131.23 29.8879C133.047 31.7265 135.3 32.647 137.984 32.647C140.694 32.647 142.983 31.7462 144.849 29.942C146.698 28.1233 147.628 25.8754 147.628 23.1879C147.628 20.5239 146.707 18.2786 144.868 16.4481V16.4509ZM141.938 27.3839C140.971 28.4285 139.677 28.945 138.058 28.945C136.448 28.945 135.155 28.4207 134.173 27.3626C133.216 26.322 132.737 24.901 132.737 23.1126C132.737 21.4459 133.231 20.0829 134.212 19.0289C135.192 17.9749 136.473 17.4452 138.058 17.4452C139.663 17.4452 140.958 17.9749 141.938 19.0289C142.908 20.0695 143.394 21.4644 143.394 23.2024C143.394 24.9485 142.908 26.3378 141.938 27.3811V27.3839Z" fill="black"/>
<path d="M104.982 26.66C104.128 25.7961 103.652 24.6181 103.542 23.1468H115.41C115.951 23.1468 116.398 22.7136 116.406 22.1734C116.406 19.2111 115.645 16.9023 114.125 15.2327C112.589 13.5531 110.502 12.7129 107.866 12.7129C105.256 12.7129 103.156 13.5792 101.574 15.3069C100.002 17.0634 99.2178 19.356 99.2178 22.1904C99.2178 25.0487 100.029 27.344 101.645 29.0717C102.776 30.2735 104.161 31.0525 105.806 31.4158C106.495 31.5781 107.211 31.6626 107.933 31.652C110.882 31.7129 113.446 31.7736 116.394 31.8344L116.398 31.4024C116.037 31.0103 115.856 30.5375 115.856 29.9852C115.856 29.4492 116.045 28.9882 116.413 28.5895L116.416 28.0651C114.089 28.0069 108.455 27.9514 108.23 27.9514C106.91 27.9514 105.824 27.5248 104.982 26.6625V26.66H104.982ZM104.405 18.3817C104.666 17.9775 104.974 17.6314 105.337 17.3435C105.7 17.0517 106.099 16.8336 106.543 16.6806C106.984 16.5273 107.457 16.4506 107.961 16.4506C110.167 16.4506 111.559 17.5535 112.14 19.7606H103.818C103.954 19.2466 104.149 18.787 104.405 18.3815V18.3817Z" fill="black"/>
</svg>
