<svg width="187" height="50" viewBox="0 0 187 50" fill="none" xmlns="http://www.w3.org/2000/svg">
<path d="M62.4817 13.2973H59.5139V23.8907H62.4817V13.2973ZM60.9978 8C60.5234 8 60.112 8.1663 59.741 8.47716C59.3701 8.78929 59.1846 9.22551 59.1846 9.78582C59.1846 10.0557 59.2262 10.3052 59.3499 10.5124C59.4319 10.7414 59.577 10.9282 59.741 11.0945C59.9063 11.2403 60.0918 11.3644 60.3177 11.4475C60.5448 11.5307 60.7707 11.5716 60.9978 11.5716C61.4723 11.5716 61.9051 11.4053 62.2761 11.0945C62.6268 10.7619 62.8123 10.3257 62.8123 9.78582C62.8123 9.22551 62.6268 8.78929 62.2761 8.47716C61.9038 8.1663 61.471 8 60.9978 8Z" fill="black"/>
<path d="M76.1109 9.20679H73.1632V13.7967C72.8124 13.5473 72.3796 13.3605 71.9064 13.2364C71.432 13.1123 70.9374 13.0496 70.4427 13.0496C69.6591 13.0496 68.9172 13.1737 68.237 13.4449C67.5569 13.7161 66.9588 14.0884 66.4642 14.5463C65.9494 15.0452 65.5569 15.626 65.2692 16.3117C64.9803 16.9974 64.8364 17.7662 64.8364 18.6169C64.8364 19.4893 64.9601 20.2581 65.2074 20.9438C65.4547 21.6295 65.8055 22.1898 66.2585 22.6887C66.7115 23.1454 67.2478 23.5202 67.9077 23.7684C68.526 24.0178 69.2478 24.1419 70.0301 24.1419C70.7922 24.1419 71.4522 23.9961 72.0705 23.7262C72.6471 23.4562 73.1632 23.02 73.5544 22.438L73.7815 23.8925H76.1109V9.20679ZM73.1632 16.414V19.5085C72.9777 20.1737 72.6269 20.6713 72.1121 21.0244C71.5973 21.3775 70.9992 21.5438 70.3191 21.5438C69.9683 21.5438 69.6389 21.4811 69.35 21.3365C69.0206 21.1907 68.7733 21.0039 68.526 20.734C68.3203 20.4846 68.1348 20.1737 67.9897 19.8206C67.8459 19.4471 67.7841 19.0314 67.7841 18.5747C67.7841 17.6613 68.0516 16.9539 68.5676 16.414C69.1039 15.9151 69.8244 15.6452 70.7317 15.6452C71.6995 15.6452 72.5033 15.8947 73.1632 16.414Z" fill="black"/>
<path d="M84.213 13.0491C83.3676 13.0491 82.5853 13.1949 81.8837 13.4648C81.1821 13.7347 80.5853 14.13 80.0705 14.6072C79.5556 15.0843 79.1632 15.6664 78.8957 16.3725C78.6067 17.0377 78.4629 17.7848 78.4629 18.5946C78.4629 19.4248 78.6067 20.1936 78.8957 20.8588C79.1632 21.5649 79.5556 22.147 80.0705 22.6241C80.5853 23.1026 81.1834 23.4761 81.8837 23.746C82.584 24.016 83.3676 24.1413 84.213 24.1413C85.037 24.1413 85.8004 24.0172 86.5007 23.7256C87.2011 23.4761 87.7992 23.0821 88.3354 22.6037C88.8301 22.1048 89.2427 21.524 89.5304 20.8383C89.8193 20.1527 89.9632 19.4043 89.9632 18.5946C89.9632 17.7631 89.8193 17.016 89.5304 16.3303C89.2629 15.6446 88.8704 15.0639 88.3556 14.5854C87.8408 14.0865 87.2427 13.713 86.5209 13.4431C85.8206 13.1732 85.0585 13.0491 84.213 13.0491ZM84.213 15.6664C85.0787 15.6664 85.7588 15.9363 86.2736 16.4557C86.7682 16.9955 87.0156 17.7016 87.0156 18.5946C87.0156 19.4875 86.7682 20.2141 86.2736 20.7334C85.779 21.2733 85.0988 21.5432 84.213 21.5432C83.3474 21.5432 82.6673 21.2733 82.1525 20.7334C81.6377 20.2141 81.3903 19.4875 81.3903 18.5946C81.3903 17.7221 81.6377 17.016 82.1525 16.4761C82.6471 15.9363 83.3272 15.6664 84.213 15.6664Z" fill="black"/>
<path d="M94.6713 13.2972H92.3003V23.8906H95.248V17.7848C95.4536 17.2027 95.7842 16.7255 96.2574 16.352C96.7104 15.9785 97.2467 15.7917 97.865 15.7917C98.3395 15.7917 98.7723 15.8749 99.1433 15.9989C99.5345 16.1652 99.8651 16.352 100.133 16.6015L101.844 14.3167C101.452 13.9432 100.958 13.6311 100.38 13.4034C99.8032 13.1744 99.1849 13.0503 98.5048 13.0503C97.619 13.0503 96.8556 13.2166 96.2574 13.5492C95.6593 13.9023 95.1861 14.3807 94.8555 15.0037L94.6713 13.2972Z" fill="black"/>
<path d="M105.543 19.5507H113.21C113.272 19.3217 113.313 19.094 113.334 18.8446C113.375 18.5951 113.395 18.3457 113.395 18.0962C113.395 17.3274 113.272 16.6417 113.024 16.0392C112.777 15.4162 112.426 14.8764 111.973 14.4402C111.54 14.0039 111.004 13.6509 110.366 13.4219C109.747 13.1724 109.067 13.0483 108.325 13.0483C107.46 13.0483 106.676 13.1942 105.956 13.4846C105.255 13.7749 104.657 14.1702 104.142 14.6691C103.648 15.168 103.277 15.7488 102.988 16.4345C102.741 17.1202 102.597 17.8468 102.597 18.6156C102.597 19.4471 102.72 20.1942 102.988 20.8798C103.235 21.5655 103.606 22.1476 104.081 22.6247C104.555 23.1032 105.152 23.4767 105.874 23.7466C106.595 24.0165 107.399 24.1419 108.327 24.1419C109.274 24.1419 110.141 24.0383 110.923 23.8093C111.707 23.5803 112.449 23.2285 113.171 22.7092L111.913 20.5485C110.944 21.2137 109.79 21.545 108.492 21.545C107.606 21.545 106.925 21.3583 106.452 20.9847C105.954 20.6099 105.645 20.1328 105.543 19.5507ZM110.386 17.3696H105.625C105.811 16.8093 106.1 16.3731 106.532 16.0609C106.945 15.7488 107.522 15.5838 108.243 15.5838C108.965 15.5838 109.48 15.7501 109.831 16.0827C110.18 16.414 110.366 16.8502 110.386 17.3696Z" fill="black"/>
<path d="M123.644 16.393L124.819 14.171C123.562 13.4226 122.057 13.0491 120.305 13.0491C118.801 13.0491 117.627 13.3612 116.801 14.0047C115.998 14.6276 115.585 15.4591 115.585 16.5184C115.585 17.4944 115.874 18.2632 116.451 18.7826C117.027 19.302 117.831 19.6346 118.862 19.7382L121.232 20.0081C121.623 20.049 121.912 20.1322 122.097 20.2371C122.283 20.3612 122.365 20.5492 122.365 20.7769C122.365 21.0673 122.179 21.2758 121.828 21.4421C121.478 21.5662 120.901 21.6494 120.117 21.6494C119.458 21.6494 118.819 21.5662 118.201 21.4204C117.582 21.2745 116.964 21.0046 116.346 20.6516L115.233 22.8531C115.995 23.3303 116.779 23.6833 117.541 23.8496C118.303 24.0569 119.148 24.14 120.056 24.14C121.683 24.14 122.941 23.8279 123.849 23.2266C124.776 22.6037 125.229 21.7312 125.229 20.6093C125.229 19.5923 124.9 18.8235 124.22 18.3246C123.54 17.8257 122.612 17.4944 121.416 17.3486L119.417 17.1196C118.779 17.0364 118.469 16.787 118.469 16.393C118.469 15.8327 119.068 15.5615 120.263 15.5615C121.5 15.5615 122.635 15.8314 123.644 16.393Z" fill="black"/>
<path d="M130.098 19.5507H137.765C137.827 19.3217 137.868 19.094 137.889 18.8446C137.93 18.5951 137.95 18.3457 137.95 18.0962C137.95 17.3274 137.827 16.6417 137.579 16.0392C137.332 15.4162 136.981 14.8764 136.528 14.4402C136.095 14.0039 135.559 13.6509 134.921 13.4219C134.302 13.1724 133.622 13.0483 132.88 13.0483C132.015 13.0483 131.231 13.1942 130.511 13.4846C129.81 13.7749 129.212 14.1702 128.696 14.6691C128.201 15.168 127.831 15.7488 127.542 16.4345C127.294 17.1202 127.15 17.8468 127.15 18.6156C127.15 19.4471 127.274 20.1942 127.542 20.8798C127.789 21.5655 128.16 22.1476 128.634 22.6247C129.109 23.1032 129.706 23.4767 130.427 23.7466C131.149 24.0165 131.953 24.1419 132.88 24.1419C133.828 24.1419 134.694 24.0383 135.477 23.8093C136.261 23.5803 137.003 23.2285 137.723 22.7092L136.466 20.5485C135.497 21.2137 134.344 21.545 133.044 21.545C132.159 21.545 131.478 21.3583 131.004 20.9847C130.511 20.6099 130.2 20.1328 130.098 19.5507ZM134.941 17.3696H130.18C130.366 16.8093 130.654 16.3731 131.087 16.0609C131.5 15.7488 132.077 15.5838 132.798 15.5838C133.52 15.5838 134.035 15.7501 134.386 16.0827C134.735 16.414 134.921 16.8502 134.941 17.3696Z" fill="black"/>
<path d="M140.201 14.2956L141.356 16.4562C142.449 15.9369 143.582 15.6669 144.757 15.6669C145.417 15.6669 145.911 15.791 146.22 16.0405C146.53 16.3104 146.695 16.6635 146.695 17.1202V17.4528C146.386 17.3696 146.056 17.3069 145.684 17.2455C145.355 17.1828 144.962 17.1624 144.53 17.1624C143.788 17.1624 143.128 17.2455 142.509 17.3696C141.933 17.5359 141.396 17.7431 140.984 18.0348C140.531 18.3252 140.2 18.6783 139.974 19.1145C139.747 19.5507 139.624 20.0496 139.624 20.6099C139.624 21.7523 139.995 22.6452 140.695 23.2272C141.437 23.8502 142.406 24.1406 143.621 24.1406C144.425 24.1406 145.147 24.0165 145.745 23.7453C146.343 23.4754 146.858 23.0596 147.249 22.4789C147.352 23.0814 147.62 23.4959 148.011 23.7453C148.402 23.9948 148.897 24.1189 149.475 24.1189C149.742 24.1189 149.989 24.0984 150.217 24.0562C150.444 24.0152 150.649 23.9526 150.835 23.8899L150.567 21.5425C150.485 21.5847 150.362 21.6052 150.217 21.6052C149.804 21.6052 149.598 21.3352 149.598 20.7749V17.5756C149.598 16.8899 149.516 16.2874 149.309 15.7271C149.144 15.1668 148.856 14.7088 148.444 14.2943C148.073 13.9208 147.558 13.6086 146.96 13.3809C146.341 13.152 145.62 13.0483 144.776 13.0483C143.972 13.0483 143.188 13.152 142.426 13.3387C141.685 13.5268 140.945 13.8594 140.201 14.2956ZM146.715 19.5085V19.7579C146.715 20.2351 146.488 20.6713 146.055 21.0257C145.622 21.3992 144.984 21.586 144.138 21.586C143.624 21.586 143.231 21.4824 143.005 21.2738C142.758 21.0871 142.634 20.8171 142.634 20.4641C142.634 20.111 142.8 19.8206 143.087 19.6121C143.417 19.3831 143.911 19.2795 144.613 19.2795C145.375 19.2808 146.077 19.3639 146.715 19.5085Z" fill="black"/>
<path d="M155.094 13.2972H152.724V23.8906H155.672V17.7848C155.877 17.2027 156.208 16.7255 156.682 16.352C157.135 15.9785 157.672 15.7917 158.29 15.7917C158.764 15.7917 159.197 15.8749 159.568 15.9989C159.959 16.1652 160.29 16.352 160.558 16.6015L162.269 14.3167C161.877 13.9432 161.383 13.6311 160.805 13.4034C160.227 13.1744 159.61 13.0503 158.93 13.0503C158.044 13.0503 157.281 13.2166 156.684 13.5492C156.086 13.9023 155.612 14.3807 155.282 15.0037L155.094 13.2972Z" fill="black"/>
<path d="M171.447 16.6839L173.096 14.6691C172.519 14.1293 171.879 13.7135 171.179 13.4641C170.479 13.1737 169.654 13.0483 168.706 13.0483C167.902 13.0483 167.14 13.1942 166.46 13.4641C165.78 13.734 165.182 14.1293 164.645 14.6269C164.151 15.1258 163.738 15.7066 163.45 16.3923C163.161 17.0779 163.018 17.8045 163.018 18.6143C163.018 19.3831 163.141 20.0893 163.368 20.7749C163.616 21.4401 163.987 22.0209 164.44 22.5198C164.934 23.0187 165.511 23.4127 166.213 23.7044C166.893 23.9948 167.696 24.1406 168.624 24.1406C169.551 24.1406 170.397 23.9948 171.159 23.7249C171.921 23.4345 172.601 22.956 173.241 22.3126L171.53 20.34C171.179 20.6931 170.788 20.963 170.313 21.1497C169.839 21.357 169.324 21.4619 168.746 21.4619C167.881 21.4619 167.201 21.192 166.706 20.6521C166.191 20.1123 165.944 19.4062 165.944 18.5337C165.944 18.0975 166.026 17.7239 166.171 17.3709C166.315 17.0178 166.522 16.7274 166.789 16.4984C167.036 16.249 167.325 16.0622 167.675 15.9164C168.026 15.7923 168.377 15.7296 168.768 15.7296C169.881 15.7283 170.766 16.0405 171.447 16.6839Z" fill="black"/>
<path d="M178.475 9.20679H175.528V23.8925H178.475V17.7854C178.703 17.0997 179.052 16.5599 179.527 16.2068C180.001 15.8537 180.537 15.667 181.154 15.667C181.793 15.667 182.289 15.8537 182.618 16.249C182.989 16.6443 183.154 17.2251 183.154 17.9939V23.8938H186.08V17.7457C186.08 16.2081 185.689 15.0453 184.926 14.256C184.142 13.4462 183.051 13.0509 181.669 13.0509C180.927 13.0509 180.309 13.175 179.773 13.4245C179.278 13.6944 178.825 14.0474 178.474 14.5041V9.20679H178.475Z" fill="black"/>
<path d="M62.6877 32.1555H59.1836L63.6151 42.7911H66.7281L71.1583 32.1555H67.7994L65.3464 39.8616H65.1407L62.6877 32.1555Z" fill="black"/>
<path d="M75.3392 38.4076H83.0061C83.0679 38.1786 83.1095 37.9509 83.1297 37.7014C83.1714 37.452 83.1916 37.2025 83.1916 36.9531C83.1916 36.1843 83.0679 35.4986 82.8206 34.8973C82.5733 34.2744 82.2225 33.7345 81.7695 33.2983C81.3367 32.8621 80.8004 32.509 80.1619 32.28C79.5436 32.0306 78.8635 31.9065 78.1215 31.9065C77.2559 31.9065 76.4723 32.0523 75.7506 32.3427C75.0503 32.6331 74.4522 33.0284 73.9373 33.5273C73.4427 34.0262 73.0717 34.607 72.7828 35.2926C72.5354 35.9783 72.3916 36.7049 72.3916 37.4737C72.3916 38.304 72.5153 39.0523 72.7828 39.738C73.0301 40.4236 73.4011 41.0044 73.8755 41.4828C74.35 41.96 74.9468 42.3348 75.6686 42.6047C76.3903 42.8747 77.1941 43 78.1215 43C79.0692 43 79.9348 42.8964 80.7184 42.6674C81.502 42.4384 82.2439 42.0854 82.9644 41.5673L81.7077 39.4067C80.7386 40.0719 79.584 40.4032 78.2856 40.4032C77.3998 40.4032 76.7184 40.2164 76.2452 39.8429C75.7518 39.4668 75.4427 38.9896 75.3392 38.4076ZM80.1834 36.2265H75.4225C75.608 35.6649 75.8969 35.2287 76.3298 34.9178C76.7424 34.6057 77.319 34.4407 78.0408 34.4407C78.7626 34.4407 79.2774 34.607 79.6282 34.9396C79.9777 35.2709 80.1632 35.7071 80.1834 36.2265Z" fill="black"/>
<path d="M87.8764 32.1559H85.5269V42.7493H88.4745V36.6844C88.7016 35.9783 89.0511 35.4385 89.5256 35.0649C89.9786 34.7119 90.5149 34.5251 91.1533 34.5251C91.7918 34.5251 92.2865 34.7119 92.6171 35.1059C92.988 35.5011 93.1533 36.0819 93.1533 36.8507V42.7493H96.0808V36.6013C96.0808 35.0636 95.6896 33.9008 94.8858 33.1115C94.1022 32.3018 93.0107 31.9065 91.6089 31.9065C90.8051 31.9065 90.0833 32.0728 89.4865 32.4054C88.8682 32.7585 88.3937 33.2369 88.0846 33.8599L87.8764 32.1559Z" fill="black"/>
<path d="M99.5543 32.1967L98.0288 32.3208V34.7923H99.5947V38.8846C99.5947 40.2764 99.924 41.2934 100.584 41.979C101.244 42.6647 102.171 42.9973 103.386 42.9973C104.046 42.9973 104.643 42.9142 105.18 42.7683C105.716 42.6225 106.231 42.373 106.747 42.0417L105.757 39.757C105.51 39.9233 105.243 40.0474 104.933 40.151C104.645 40.2546 104.315 40.2968 103.964 40.2968C103.532 40.2968 103.181 40.1728 102.913 39.9438C102.666 39.7148 102.542 39.3617 102.542 38.9255V34.7923H106.025V32.1545H102.521L102.645 29.5167L99.8408 29.3708L99.5543 32.1967Z" fill="black"/>
<path d="M111.499 32.1555H108.551V38.3035C108.551 39.8617 108.942 41.0245 109.706 41.8138C110.489 42.6031 111.581 42.9984 113.003 42.9984C113.787 42.9984 114.467 42.832 115.064 42.4994C115.662 42.1464 116.115 41.6679 116.424 41.045L116.63 42.7489H118.982V32.1555H116.034V38.2421C115.807 38.9278 115.477 39.4472 115.024 39.8412C114.571 40.2147 114.035 40.4015 113.437 40.4015C112.139 40.4015 111.5 39.6122 111.5 38.0541V32.1555H111.499Z" fill="black"/>
<path d="M124.147 32.1556H121.777V42.749H124.724V36.6419C124.93 36.0599 125.261 35.5827 125.735 35.2092C126.188 34.8356 126.724 34.6489 127.343 34.6489C127.817 34.6489 128.25 34.732 128.621 34.8561C129.012 35.0224 129.343 35.2092 129.61 35.4586L131.321 33.1739C130.93 32.8004 130.435 32.4882 129.858 32.2605C129.281 32.0316 128.663 31.9075 127.983 31.9075C127.097 31.9075 126.333 32.0738 125.736 32.4064C125.138 32.7594 124.665 33.2379 124.335 33.8609L124.147 32.1556Z" fill="black"/>
<path d="M135.018 38.4076H142.685C142.747 38.1786 142.788 37.9509 142.809 37.7014C142.85 37.452 142.87 37.2025 142.87 36.9531C142.87 36.1843 142.747 35.4986 142.5 34.8973C142.252 34.2744 141.901 33.7345 141.448 33.2983C141.016 32.8621 140.479 32.509 139.841 32.28C139.223 32.0306 138.542 31.9065 137.8 31.9065C136.935 31.9065 136.151 32.0523 135.431 32.3427C134.73 32.6331 134.132 33.0284 133.618 33.5273C133.123 34.0262 132.752 34.607 132.463 35.2926C132.216 35.9783 132.072 36.7049 132.072 37.4737C132.072 38.304 132.195 39.0523 132.463 39.738C132.71 40.4236 133.081 41.0044 133.556 41.4828C134.03 41.96 134.627 42.3348 135.349 42.6047C136.07 42.8747 136.874 43 137.802 43C138.749 43 139.616 42.8964 140.399 42.6674C141.182 42.4384 141.924 42.0854 142.646 41.5673L141.389 39.4067C140.42 40.0719 139.265 40.4032 137.967 40.4032C137.081 40.4032 136.401 40.2164 135.927 39.8429C135.43 39.4668 135.12 38.9896 135.018 38.4076ZM139.861 36.2265H135.1C135.286 35.6649 135.575 35.2287 136.007 34.9178C136.42 34.6057 136.997 34.4407 137.718 34.4407C138.44 34.4407 138.955 34.607 139.306 34.9396C139.655 35.2709 139.841 35.7071 139.861 36.2265Z" fill="black"/>
<path d="M153.119 35.2504L154.294 33.0284C153.037 32.28 151.531 31.9065 149.78 31.9065C148.276 31.9065 147.101 32.2186 146.276 32.8621C145.472 33.4851 145.06 34.3166 145.06 35.3758C145.06 36.3518 145.349 37.1207 145.925 37.64C146.502 38.1594 147.306 38.492 148.337 38.5956L150.706 38.8655C151.097 38.9065 151.386 38.9896 151.572 39.0945C151.757 39.2186 151.839 39.4067 151.839 39.6344C151.839 39.9247 151.654 40.1333 151.303 40.2996C150.952 40.4236 150.376 40.5068 149.592 40.5068C148.932 40.5068 148.294 40.4236 147.675 40.2778C147.057 40.132 146.439 39.8621 145.82 39.509L144.708 41.7106C145.47 42.189 146.253 42.5421 147.015 42.7071C147.778 42.9143 148.623 42.9975 149.53 42.9975C151.158 42.9975 152.416 42.6853 153.323 42.0828C154.251 41.4598 154.704 40.5874 154.704 39.4655C154.704 38.4472 154.374 37.6784 153.693 37.1808C153.013 36.6819 152.085 36.3506 150.89 36.2047L148.892 35.9757C148.253 35.8926 147.944 35.6431 147.944 35.2491C147.944 34.6888 148.542 34.4176 149.737 34.4176C150.975 34.4202 152.108 34.6901 153.119 35.2504Z" fill="black"/>
<path d="M26.9529 38.7137L26.9682 38.6868H26.9375L26.9529 38.7137Z" fill="black"/>
<path d="M30.1667 33.4264L25.0429 24.9995H18.5049L26.937 38.6867H26.9685H33.3659H33.3944L41.7145 24.9995H35.2886L30.1667 33.4264Z" fill="black"/>
<path d="M33.3787 38.7098L33.3941 38.6868H33.3662L33.3787 38.7098Z" fill="black"/>
<path d="M32.8025 18.7662C31.5319 15.0931 28.0849 12.459 24.0271 12.459H12.3564V18.7662H24.0261C25.7265 18.7662 27.1014 20.16 27.1014 21.8809C27.1014 23.2747 26.2891 24.6028 25.0421 24.9986L28.2511 30.2759C30.3626 29.1821 32.0079 27.2937 32.7986 24.9986C33.1369 24.0235 33.3198 22.9746 33.3198 21.8809C33.3208 20.7901 33.1379 19.7413 32.8025 18.7662Z" fill="black"/>
<path d="M15.2537 24.9995H12.3564V31.3037V38.6867H18.505V31.3037V29.4612V24.9995H15.2537Z" fill="black"/>
<path d="M18.3005 20.7682C17.8599 19.5966 16.7417 18.7661 15.4297 18.7661C13.7323 18.7661 12.3574 20.163 12.3574 21.8838C12.3574 23.5539 13.6517 24.9198 15.2812 24.9966C15.3314 25.0016 15.3806 25.0016 15.4307 25.0016C17.1311 25.0016 18.506 23.6047 18.506 21.8838C18.505 21.49 18.4342 21.1151 18.3005 20.7682Z" fill="black"/>
<path d="M37.9752 50H11.3432C5.08841 50 0 44.8414 0 38.5003V11.4997C0 5.15863 5.08841 0 11.3432 0H37.9762C44.231 0 49.3194 5.15863 49.3194 11.4997V38.4993C49.3194 44.8404 44.23 50 37.9752 50ZM11.3432 2.99906C6.71996 2.99906 2.95922 6.8117 2.95922 11.4987V38.4993C2.95922 43.1863 6.71996 46.9989 11.3432 46.9989H37.9762C42.5994 46.9989 46.3602 43.1863 46.3602 38.4993V11.4997C46.3602 6.8127 42.5994 3.00006 37.9762 3.00006H11.3432V2.99906Z" fill="black"/>
</svg>
