<svg width="292" height="80" viewBox="0 0 292 80" fill="none" xmlns="http://www.w3.org/2000/svg">
<path d="M77.2461 59.6512C77.2216 58.7463 77.2048 57.8415 77.2009 56.9366L77.0601 25.696C77.2604 20.4362 71.5497 17.3158 71.5497 17.3158L43.1927 1.2068C42.4663 0.791943 41.6867 0.477962 40.8756 0.273513C37.1279 -0.655899 34.0393 1.08142 34.0393 1.08142L3.69865 18.6213C2.29005 19.3969 1.40611 20.7309 0.85559 21.9938C0.285521 23.3162 -0.00571701 24.742 8.50144e-05 26.182L0.0479015 60.5017C0.0459112 62.2273 0.579155 63.911 1.57411 65.3207L1.63097 65.3996C2.31708 66.3394 3.1933 67.1243 4.20265 67.7031L14.0552 73.4204L14.0888 73.3829L14.2904 72.3488C14.2974 72.3115 14.3176 72.278 14.3472 72.2543C14.3769 72.2306 14.414 72.2183 14.4519 72.2196C14.7013 72.2286 15.2273 72.2855 15.584 72.5867C15.6594 72.6521 15.7114 72.7405 15.7319 72.8383C15.7525 72.9361 15.7404 73.038 15.6977 73.1283C15.5967 73.3786 15.4019 73.5794 15.1549 73.688C15.1397 73.6935 15.1263 73.7032 15.1164 73.7161C15.1065 73.7289 15.1004 73.7443 15.0989 73.7604C15.0974 73.7766 15.1006 73.7928 15.108 73.8072C15.1154 73.8216 15.1267 73.8336 15.1407 73.8418L18.5756 75.8144C18.6028 75.8303 18.6337 75.8387 18.6652 75.8389C18.6967 75.839 18.7276 75.8309 18.755 75.8153C18.7823 75.7998 18.8051 75.7773 18.821 75.7501C18.837 75.7229 18.8455 75.6921 18.8457 75.6606C18.8548 74.916 18.9 73.0469 19.121 72.6461C19.3975 72.1433 20.7803 71.9675 20.7803 72.7224C20.7803 73.4773 19.9765 74.5088 19.8498 75.0375C19.7232 75.5662 19.8498 76.4711 20.4533 76.5719C20.947 76.6546 20.6511 76.1324 20.5128 75.8144C20.5078 75.8036 20.5067 75.7913 20.5095 75.7797C20.5123 75.7681 20.519 75.7578 20.5284 75.7505C20.5379 75.7432 20.5495 75.7392 20.5614 75.7393C20.5734 75.7394 20.5849 75.7436 20.5942 75.7511L21.8775 76.749C21.888 76.7566 21.9007 76.7607 21.9137 76.7608C21.9267 76.7608 21.9393 76.7567 21.9499 76.7492C21.9605 76.7416 21.9684 76.7309 21.9726 76.7186C21.9767 76.7062 21.9769 76.6929 21.9731 76.6805C21.9266 76.5512 21.4639 75.9527 21.5105 75.1629C21.6397 73.0481 21.5777 70.9941 21.6022 70.3052C21.6026 70.2933 21.6071 70.282 21.615 70.2732C21.6229 70.2644 21.6336 70.2586 21.6454 70.2569C21.6571 70.2552 21.669 70.2577 21.6791 70.2639C21.6891 70.2701 21.6967 70.2797 21.7004 70.2909C22.0084 71.2119 22.2248 72.161 22.3466 73.1244C22.5598 74.6756 23.0987 74.9341 23.3378 74.982C23.3517 74.9848 23.3649 74.9905 23.3765 74.9986C23.3881 75.0068 23.3979 75.0173 23.4053 75.0294C23.4127 75.0415 23.4175 75.0551 23.4195 75.0691C23.4214 75.0832 23.4204 75.0975 23.4166 75.1112L23.0703 76.2436C23.002 76.4756 23.012 76.7236 23.0987 76.9494L23.2667 77.3863C23.2742 77.4051 23.2866 77.4216 23.3027 77.4339C23.3187 77.4463 23.3378 77.4541 23.358 77.4565C23.3781 77.4589 23.3985 77.4557 23.417 77.4475C23.4355 77.4392 23.4515 77.4261 23.4631 77.4095C23.8637 76.8149 25.0824 74.8682 24.2979 74.2102C23.3675 73.4347 23.8456 73.0029 23.8198 72.4005C23.7939 71.7982 23.3416 69.8075 22.4616 68.8264C21.5815 67.8453 23.4954 67.9461 23.8198 68.5498C24.1041 69.0733 24.1791 71.1686 24.1946 71.7154C24.1964 71.8003 24.229 71.8816 24.2863 71.9442L24.7696 72.4794C24.779 72.4901 24.7915 72.4976 24.8053 72.5008C24.8192 72.504 24.8337 72.5027 24.8468 72.497C24.8599 72.4914 24.8708 72.4818 24.8781 72.4696C24.8854 72.4574 24.8886 72.4431 24.8872 72.429L24.7903 70.9644C24.7893 70.9531 24.7915 70.9418 24.7967 70.9318C24.8019 70.9217 24.8098 70.9133 24.8196 70.9076C24.8293 70.9019 24.8405 70.8991 24.8518 70.8996C24.8631 70.9 24.8741 70.9037 24.8834 70.9101L25.2387 71.1531C25.2684 71.1735 25.2929 71.2004 25.3104 71.2318C25.3279 71.2632 25.3379 71.2982 25.3395 71.3341L25.4145 73.2433C25.419 73.379 25.4749 73.5079 25.5709 73.604C25.6669 73.7 25.7958 73.7559 25.9314 73.7604C26.0015 73.762 26.0712 73.7494 26.1364 73.7236C26.2016 73.6978 26.2609 73.6591 26.3109 73.61C26.3609 73.5608 26.4005 73.5021 26.4275 73.4374C26.4544 73.3726 26.4681 73.3031 26.4677 73.233L26.447 67.9487C26.447 67.9265 26.4541 67.9048 26.4672 67.8869C26.4803 67.8689 26.4987 67.8556 26.5198 67.8489C26.541 67.8421 26.5637 67.8423 26.5848 67.8493C26.6059 67.8563 26.6241 67.8698 26.637 67.8879L27.4693 69.0513C27.4807 69.0677 27.4971 69.0799 27.5161 69.0863C27.5351 69.0926 27.5556 69.0927 27.5745 69.0864C27.5935 69.0802 27.61 69.068 27.6215 69.0517C27.6331 69.0353 27.639 69.0157 27.6385 68.9957L27.6153 65.9438C27.6153 65.9438 26.4522 60.7086 26.6486 56.7453C26.6855 55.9821 26.8197 55.2266 27.048 54.4974C27.2521 53.8407 27.477 52.7575 27.0596 51.9793C26.9205 51.7256 26.8149 51.4549 26.7456 51.174C26.6784 50.8896 26.5957 50.4876 26.5078 49.9395C26.2635 48.3884 25.2155 47.8235 25.0255 47.2612C24.9945 47.1681 24.9557 47.0776 24.917 46.9871C24.7722 46.6407 24.4892 45.6544 24.5461 43.2953C24.621 40.1503 24.1429 39.7729 24.0434 39.1434C23.9439 38.5138 23.8418 36.0992 25.5528 34.5635C27.2638 33.0279 27.5016 32.5625 28.6091 32.5884C29.7166 32.6142 29.7153 34.2688 29.5899 34.5002C29.4646 34.7316 28.3571 36.4883 28.3571 36.4883L28.2563 37.5456L29.7217 39.1783C30.0672 39.5628 30.3423 40.0052 30.5346 40.4851L30.5966 40.6402L30.6121 40.6118C30.7982 39.8362 30.753 39.0296 30.9481 38.1997C31.1807 37.2186 31.2751 36.1612 31.7028 35.1801C31.7028 35.1801 31.9794 34.8815 31.9807 34.8776C32.2133 34.2042 32.1836 33.7375 32.1513 33.0253L32.0711 31.2711C32.0647 31.1199 32.0608 30.9674 32.0569 30.8161C32.0324 30.4694 31.9893 30.1242 31.9277 29.782C31.6486 28.5101 31.655 28.4726 31.6163 27.6181L31.4702 24.2999C31.4498 23.8949 31.4934 23.4892 31.5995 23.0978C31.9509 21.8823 32.6086 20.7776 33.5095 19.8894C33.7537 19.6425 33.9902 19.3904 34.2202 19.1293C34.8819 18.3783 36.3823 16.9163 37.3579 17.7966C38.6399 18.96 37.7353 20.5112 37.7353 20.5112C37.7353 20.5112 36.4081 22.8121 36.0553 24.0737C36.0049 24.256 35.9468 24.4369 35.8847 24.6166C35.6986 25.1518 35.3872 26.2712 35.7219 26.9796C36.1031 27.7823 37.9059 30.2228 38.4706 30.9868C38.5086 31.04 38.5606 31.0816 38.6208 31.1071C38.681 31.1325 38.747 31.1408 38.8116 31.1311C38.8763 31.1213 38.9369 31.0938 38.9869 31.0517C39.0369 31.0096 39.0742 30.9544 39.0948 30.8924C39.1573 30.7153 39.2006 30.532 39.224 30.3456C39.3726 29.3697 39.8082 27.3531 39.8353 26.0217C39.8481 25.4354 39.9883 24.8589 40.2462 24.3322C40.7141 23.3692 41.5476 21.9628 42.712 21.1601C42.9932 20.9674 43.3248 20.8613 43.6657 20.855C44.397 20.8302 45.1279 20.9174 45.8329 21.1135C45.9878 21.1599 46.1465 21.1924 46.3071 21.2105C46.9533 21.2868 48.5945 21.4832 48.9357 21.5828C49.3634 21.712 50.3184 22.0611 49.9695 22.9672C49.7368 23.5055 49.4325 24.0098 49.0649 24.4667C48.8964 24.6799 48.6857 24.8559 48.4459 24.9837C48.1893 25.1021 47.9116 25.168 47.6292 25.1776C47.1962 25.2112 46.5953 25.1479 46.196 25.228C45.792 25.333 45.4146 25.522 45.0885 25.7826L44.6659 26.1833C44.6129 26.235 44.5612 26.288 44.5121 26.3436L44.233 26.6629C43.9864 26.9603 43.7987 27.3021 43.6799 27.6698C43.4964 28.4015 43.5171 30.184 43.3025 31.0411C43.026 32.1489 43.2521 33.6832 43.8052 34.0607C44.1348 34.2856 44.516 34.4666 45.2643 34.1615C45.9272 33.8926 46.6574 33.5152 47.1019 32.9542C47.509 32.4371 47.9665 31.6874 48.6527 31.4133L48.7496 31.3746C49.2355 31.1574 53.5582 29.2094 55.436 30.9299C55.4566 30.9493 55.4773 30.9687 55.4993 30.9868C55.688 31.1496 56.8407 32.2445 56.2553 34.2067C56.2227 34.321 56.1652 34.4266 56.087 34.5159C56.0088 34.6053 55.9118 34.6763 55.803 34.7238C55.1878 34.9888 55.0521 34.7135 52.8307 34.7445C52.3693 34.7509 51.3626 34.8634 50.9258 35.0134C50.1504 35.2796 49.0585 35.82 48.7651 36.7959C48.7315 36.9084 48.6953 37.0221 48.654 37.1333C48.4045 37.8184 47.6628 40.0831 48.3955 41.0254C48.473 41.125 48.5467 41.2271 48.6216 41.3279C48.7987 41.5671 49.4074 41.9743 51.444 41.3874C54.0984 40.626 55.551 40.4399 56.8833 41.4391C56.9492 41.4895 57.0126 41.5386 57.0849 41.5852C57.3835 41.7946 58.1614 42.3439 58.2118 42.8222C58.2338 43.0342 58.3062 43.4143 58.3126 43.7788C58.3191 44.1433 58.3126 44.3889 58.3126 44.5544C58.2897 44.7582 58.2415 44.9584 58.1692 45.1503C58.1319 45.2884 58.0577 45.4137 57.9545 45.5127C57.8514 45.6118 57.7232 45.6809 57.5838 45.7126C56.9544 45.8418 56.652 45.3093 56.3251 44.756L56.3147 44.7392C56.0899 44.3644 55.6776 44.1834 55.2408 44.1562C53.986 44.0761 50.8237 44.5363 48.6772 46.2917C48.6772 46.2917 46.6393 47.4745 46.5385 49.2854C46.5385 49.2854 46.4092 51.9535 42.7404 55.9801C39.0715 60.0067 38.6645 62.7988 38.941 64.4353C39.1051 65.406 39.7577 67.9706 40.3755 70.1229C40.7981 71.5978 41.1806 72.5893 41.3059 73.3442C41.4597 74.2684 42.3553 76.8731 42.6758 77.6099C42.7107 77.6887 43.0299 77.7172 43.0337 77.6306L42.9808 76.4788C42.9743 76.3211 42.9472 76.1156 43.0415 76.0122C43.225 75.8118 43.4124 75.795 43.6398 75.9411L44.1128 76.2436C44.1889 76.2924 44.2775 76.3181 44.3679 76.3176C44.4583 76.317 44.5466 76.2901 44.622 76.2403C44.6975 76.1904 44.7568 76.1197 44.7928 76.0368C44.8288 75.9538 44.84 75.8622 44.8249 75.773C44.746 75.2921 44.6008 74.8244 44.3932 74.3835C44.1493 73.9322 43.9436 73.4613 43.7781 72.9758C43.6747 72.6306 43.8815 72.3294 44.242 72.3294C44.2934 72.3295 44.3442 72.3183 44.3908 72.2965C44.4374 72.2748 44.4786 72.243 44.5115 72.2036C44.5445 72.1641 44.5683 72.1178 44.5814 72.0681C44.5944 72.0184 44.5964 71.9664 44.5871 71.9158C44.5333 71.6326 44.4305 71.3609 44.2834 71.1131L44.1464 70.8817C44.1152 70.8271 44.1049 70.763 44.1175 70.7013C44.1301 70.6397 44.1647 70.5848 44.2149 70.5469L46.0409 69.2219C46.0669 69.2033 46.0975 69.1923 46.1294 69.19C46.1613 69.1877 46.1931 69.1943 46.2215 69.209C46.2498 69.2237 46.2736 69.246 46.2901 69.2734C46.3065 69.3008 46.3151 69.3322 46.3149 69.3641L46.1689 72.1291C46.1661 72.1634 46.1692 72.1979 46.1779 72.2312C46.186 72.2621 46.2015 72.2905 46.2232 72.314C46.2448 72.3374 46.2718 72.3552 46.3019 72.3658C46.332 72.3764 46.3643 72.3795 46.3958 72.3747C46.4274 72.3699 46.4573 72.3575 46.4829 72.3385L46.5294 72.3075C46.552 72.2919 46.5784 72.283 46.6058 72.2817C46.6332 72.2805 46.6604 72.287 46.6842 72.3005C46.7081 72.314 46.7277 72.3339 46.7408 72.358C46.7538 72.3821 46.7599 72.4094 46.7582 72.4367C46.7493 72.6426 46.7011 72.8449 46.616 73.0326L46.174 74.006C46.1361 74.0889 46.1214 74.1804 46.1314 74.271L46.2089 74.96C46.2108 74.9861 46.2205 75.0111 46.2369 75.0316C46.2532 75.0521 46.2754 75.0671 46.3005 75.0747C46.3256 75.0823 46.3524 75.082 46.3774 75.074C46.4023 75.066 46.4243 75.0506 46.4402 75.0298C46.784 74.6123 47.4883 73.7087 47.8773 72.8736L49.0016 70.468C49.0103 70.4492 49.0247 70.4335 49.0427 70.4232C49.0607 70.4129 49.0816 70.4085 49.1022 70.4106C49.1229 70.4128 49.1424 70.4213 49.1579 70.4351C49.1735 70.4489 49.1843 70.4672 49.189 70.4874C49.2962 70.9398 49.6064 71.7258 50.4528 71.6508C50.4681 71.6503 50.4832 71.654 50.4965 71.6616C50.5098 71.6691 50.5207 71.6802 50.528 71.6936C50.5354 71.707 50.5389 71.7222 50.5382 71.7374C50.5375 71.7527 50.5325 71.7674 50.5239 71.7801L48.6423 73.9776C48.4239 74.2287 48.2798 74.5358 48.2262 74.8643C48.2062 74.9759 48.2062 75.0901 48.2262 75.2017C48.2359 75.2435 48.2567 75.2819 48.2863 75.313C48.3159 75.3441 48.3533 75.3667 48.3946 75.3784C48.4358 75.3902 48.4795 75.3906 48.521 75.3798C48.5626 75.3689 48.6004 75.3472 48.6307 75.3167L49.5741 74.3899C49.5892 74.3752 49.6089 74.3664 49.6299 74.3649C49.6509 74.3633 49.6717 74.3693 49.6887 74.3817C49.7057 74.3941 49.7178 74.412 49.7229 74.4325C49.7279 74.4529 49.7256 74.4745 49.7162 74.4933L48.8013 76.272C48.7871 76.3002 48.7816 76.3318 48.7853 76.3631C48.7891 76.3944 48.802 76.4239 48.8224 76.4479C48.8428 76.4719 48.8698 76.4893 48.9001 76.4981C48.9303 76.5068 48.9625 76.5064 48.9925 76.4969C49.3906 76.3677 50.0264 76.0859 50.4037 75.5585C50.4982 75.4261 50.6023 75.3008 50.7152 75.1836L50.8819 75.0117C50.898 74.9952 50.9189 74.9844 50.9416 74.9807C50.9643 74.9771 50.9875 74.9808 51.0079 74.9914C51.0283 75.002 51.0448 75.0188 51.0549 75.0394C51.065 75.0601 51.0683 75.0834 51.0641 75.106C50.9492 75.5584 50.7091 75.9693 50.3714 76.2914C50.3301 76.3328 50.2151 76.4853 50.2719 76.6184C50.2937 76.6751 50.3314 76.7243 50.3805 76.7601C50.4295 76.7958 50.4879 76.8167 50.5485 76.8201C50.9452 76.8201 51.7309 76.2643 51.7309 75.6877C51.7278 75.6656 51.7329 75.6431 51.7454 75.6246C51.7579 75.606 51.7767 75.5927 51.7984 75.5873C51.8201 75.5818 51.843 75.5846 51.8627 75.595C51.8825 75.6054 51.8977 75.6228 51.9054 75.6438C52.1644 76.3284 52.2475 77.0671 52.1471 77.7922C52.1393 77.8633 52.1354 77.9343 52.1315 78.0042C52.1245 78.1473 52.105 78.2896 52.0734 78.4294V78.4488L52.0269 78.6893C52.0157 78.7678 51.9807 78.841 51.9266 78.899C51.8726 78.957 51.802 78.9971 51.7245 79.0137C51.6857 79.0215 51.6482 79.0292 51.6107 79.0396L51.1145 79.1688C51.0905 79.1707 51.0674 79.1784 51.0471 79.1913C51.0269 79.2043 51.0101 79.222 50.9983 79.243C50.9866 79.264 50.9802 79.2875 50.9797 79.3116C50.9792 79.3356 50.9847 79.3594 50.9956 79.3808L51.3045 80L73.5657 67.2028C77.0394 65.0312 77.2836 61.108 77.2461 59.6512ZM17.3596 70.1332C16.7302 70.2341 15.7739 68.8005 15.7739 68.8005C15.7739 68.8005 15.2467 68.096 16.1009 68.0702C16.4139 68.0616 16.7272 68.0711 17.0391 68.0986C17.1993 68.1131 17.3496 68.1821 17.4651 68.2941C17.5806 68.406 17.6542 68.5542 17.6736 68.7139C17.7421 69.2723 17.7718 70.0686 17.3596 70.1332ZM17.0068 66.7866C15.9342 65.8507 16.455 63.533 16.5971 62.981C16.6006 62.9667 16.6074 62.9535 16.6171 62.9423C16.6267 62.9312 16.6388 62.9225 16.6524 62.917C16.666 62.9114 16.6807 62.9092 16.6954 62.9104C16.7101 62.9117 16.7242 62.9164 16.7367 62.9242C17.8881 63.6274 18.2293 64.9109 18.2874 65.141C18.2874 65.1604 18.3017 65.1798 18.3055 65.2005C18.4412 65.8804 17.9644 67.6216 17.0068 66.7866ZM21.2132 70.331C21.2112 70.5654 21.1239 70.791 20.9677 70.9657C20.7338 71.2242 20.4327 71.2747 19.9778 70.7498C19.947 70.7146 19.9198 70.6765 19.8964 70.6361C19.7527 70.3906 19.5632 70.1751 19.3381 70.0014C19.1559 69.8721 19.0254 69.7351 19.0021 69.5011C18.9956 69.4185 18.9956 69.3356 19.0021 69.253L19.0396 68.6816C19.0447 68.5954 19.0473 68.5062 19.0473 68.414V67.9913C19.0474 67.7748 19.0301 67.5587 18.9956 67.345L18.9297 66.9339C18.9286 66.8924 18.9361 66.8511 18.9516 66.8125C18.9671 66.774 18.9903 66.739 19.0199 66.7098C19.0495 66.6806 19.0847 66.6578 19.1234 66.6428C19.1621 66.6277 19.2035 66.6208 19.245 66.6224L20.7454 66.6741C20.7885 66.6754 20.8306 66.6866 20.8686 66.7068C20.9066 66.7271 20.9394 66.7559 20.9644 66.7909C20.9895 66.826 21.0061 66.8663 21.0129 66.9089C21.0197 66.9514 21.0166 66.9949 21.0039 67.0361L20.4378 68.8664C20.4289 68.8957 20.4271 68.9266 20.4326 68.9566C20.4381 68.9867 20.4508 69.0149 20.4696 69.039C20.4883 69.0631 20.5126 69.0824 20.5404 69.0951C20.5682 69.1078 20.5986 69.1136 20.6291 69.112L20.8876 69.0965C20.9324 69.094 20.9773 69.1008 21.0195 69.1165C21.0616 69.1321 21.1001 69.1563 21.1324 69.1874C21.1648 69.2186 21.1904 69.2561 21.2077 69.2977C21.2249 69.3392 21.2334 69.3838 21.2326 69.4287L21.2132 70.331Z" fill="white"/>
<path d="M112.953 17.0063C115.821 16.9941 117.583 16.6903 118.24 16.0948C118.896 15.4993 119.084 14.6911 118.805 13.6703C118.525 12.6495 117.365 12.1451 115.323 12.1573C114.74 12.0601 113.871 12.0175 112.716 12.0297C112.728 14.9342 112.777 16.5931 112.862 17.0063H112.953ZM106.555 11.3005C106.409 7.75191 106.33 5.61302 106.318 4.88385C117.474 4.37344 123.502 6.2875 124.401 10.626C125.312 14.9646 124.845 18.1122 122.997 20.0688C121.15 22.0132 117.857 22.9854 113.117 22.9854L112.844 30.7875C110.024 30.909 108.11 30.8969 107.102 30.751C106.846 22.0497 106.664 15.5661 106.555 11.3005Z" fill="white"/>
<path d="M135.576 11.9021C138.359 11.8899 140.631 12.8804 142.393 14.8734C143.426 15.9915 144.095 17.1946 144.398 18.4828C144.957 21.5939 144.459 24.5653 142.904 27.3969C141.251 29.6694 139.027 30.8118 136.232 30.824C133.704 30.8361 131.425 29.9429 129.396 28.1443C128.168 26.7953 127.318 25.1182 126.844 23.113C125.993 19.5036 126.74 16.5566 129.086 14.2719C130.447 12.9472 132.61 12.1573 135.576 11.9021ZM133.68 22.4568C133.996 23.9151 134.877 24.7901 136.323 25.0818C137.66 25.0696 138.565 24.6139 139.039 23.7146C139.367 22.9003 139.428 22.0193 139.221 21.0714C138.857 19.37 137.763 18.5193 135.94 18.5193C134.445 18.7502 133.674 19.4611 133.625 20.6521C133.516 21.1747 133.534 21.7762 133.68 22.4568Z" fill="white"/>
<path d="M145.857 4.975C148.615 4.86563 150.864 4.85347 152.602 4.93854L151.836 30.8604C149.211 30.9819 147.431 30.9698 146.495 30.824C146.045 13.8101 145.832 5.19375 145.857 4.975Z" fill="white"/>
<path d="M160.878 31.0974L154.242 12.7589C155.166 12.6495 157.335 12.5523 160.75 12.4672L163.922 22.1104L167.076 12.4672C169.798 12.5523 171.967 12.6495 173.583 12.7589C169.877 24.6807 167.531 32.2033 166.547 35.3266C165.562 38.4498 165.046 40.0722 164.997 40.1938C162.348 39.4281 160.209 38.7233 158.581 38.0792L160.878 31.0974Z" fill="white"/>
<path d="M181.932 22.2563C181.981 23.4472 182.753 24.1582 184.247 24.3891C186.07 24.3891 187.164 23.5384 187.529 21.837C187.735 20.8891 187.674 20.008 187.346 19.1938C186.872 18.2944 185.967 17.8387 184.63 17.8266C183.184 18.1182 182.303 18.9932 181.987 20.4516C181.841 21.1321 181.823 21.7337 181.932 22.2563ZM187.966 29.6573C186.398 30.5566 184.843 31.0063 183.299 31.0063C180.638 30.751 178.7 29.9611 177.484 28.6365C175.382 26.3517 174.714 23.4047 175.479 19.7953C175.905 17.7901 176.67 16.113 177.776 14.7641C179.587 12.9655 181.622 12.0722 183.883 12.0844C185.475 12.0844 186.86 12.5462 188.039 13.4698C188.051 12.9958 188.069 12.5219 188.094 12.0479C189.151 11.9385 191.168 11.9325 194.146 12.0297C194.437 26.4793 193.781 34.5913 192.177 36.3656C190.682 38.4559 188.373 39.5071 185.25 39.5193C182.625 39.5314 180.267 38.6382 178.177 36.8396C176.889 35.5028 176.056 34.008 175.68 32.3552L182.333 31.2068C182.552 32.3856 183.391 33.1208 184.849 33.4125C186.198 33.4003 187.115 32.9446 187.602 32.0453C187.832 31.4741 187.954 30.6781 187.966 29.6573Z" fill="white"/>
<path d="M205.174 11.9021C207.957 11.8899 210.23 12.8804 211.992 14.8734C213.025 15.9915 213.694 17.1946 213.997 18.4828C214.556 21.5939 214.058 24.5653 212.503 27.3969C210.85 29.6694 208.626 30.8118 205.831 30.824C203.303 30.8361 201.024 29.9429 198.995 28.1443C197.767 26.7953 196.917 25.1182 196.443 23.113C195.592 19.5036 196.339 16.5566 198.685 14.2719C200.046 12.9472 202.209 12.1573 205.174 11.9021ZM203.279 22.4568C203.595 23.9151 204.476 24.7901 205.922 25.0818C207.259 25.0696 208.164 24.6139 208.638 23.7146C208.966 22.9003 209.027 22.0193 208.82 21.0714C208.456 19.37 207.362 18.5193 205.539 18.5193C204.044 18.7502 203.273 19.4611 203.224 20.6521C203.115 21.1747 203.133 21.7762 203.279 22.4568Z" fill="white"/>
<path d="M223.312 30.9698L216.458 31.0427L215.82 11.9932C217.789 11.9325 220.329 11.9446 223.44 12.0297C223.452 12.0661 223.446 12.4003 223.422 13.0323C224.613 12.2667 225.98 11.8899 227.523 11.9021C230.185 12.1573 232.123 12.9472 233.339 14.2719C234.882 15.949 235.654 17.9906 235.654 20.3969L235.508 30.7146L228.836 30.8604C228.909 24.2128 228.927 20.8101 228.891 20.6521C228.842 19.4611 228.07 18.7502 226.576 18.5193C224.753 18.5193 223.659 19.37 223.294 21.0714C223.246 21.3144 223.252 24.6139 223.312 30.9698Z" fill="white"/>
<path d="M250 11.975L256.854 11.9021L257.492 30.9516C255.523 31.0123 252.983 31.0002 249.872 30.9151C249.86 30.8786 249.866 30.5444 249.891 29.9125C248.7 30.6781 247.332 31.0549 245.789 31.0427C243.128 30.7875 241.189 29.9976 239.974 28.6729C238.418 26.9837 237.647 24.942 237.659 22.5479L237.805 12.2302L244.477 12.0844C244.404 18.7319 244.385 22.1347 244.422 22.2927C244.47 23.4837 245.242 24.1946 246.737 24.4255C248.56 24.4255 249.654 23.5748 250.018 21.8734C250.067 21.6182 250.061 18.3188 250 11.975Z" fill="white"/>
<path d="M272.568 31.1703C272.653 29.6512 272.683 27.5609 272.659 24.8995C272.635 22.2259 272.604 20.8101 272.568 20.6521C272.519 19.4611 271.747 18.7502 270.253 18.5193C268.43 18.5193 267.336 19.37 266.971 21.0714C266.923 21.3144 266.929 24.6139 266.99 30.9698L260.135 31.0427L259.497 11.9932C261.466 11.9325 264.006 11.9446 267.117 12.0297C267.129 12.0661 267.123 12.4003 267.099 13.0323C268.29 12.2667 269.657 11.8899 271.201 11.9021C273.655 11.817 275.576 12.8925 276.961 15.1286C278.164 13.0505 280.388 12.0175 283.633 12.0297C286.294 12.2849 288.233 13.0748 289.448 14.3995C290.991 16.0766 291.763 18.1182 291.763 20.5245L291.617 30.8422L284.945 30.988C285.018 24.3405 285.036 20.9377 285 20.7797C284.951 19.5887 284.18 18.8778 282.685 18.6469C280.862 18.6469 279.768 19.4976 279.404 21.199C279.355 21.442 279.361 24.7415 279.422 31.0974L272.568 31.1703Z" fill="white"/>
<path d="M116.562 45.4125C119.698 45.3882 122.262 46.7189 124.255 49.4047C125.422 50.8995 126.175 52.5158 126.516 54.2536C127.148 58.4221 126.589 62.4082 124.839 66.212C122.967 69.2623 120.451 70.7997 117.292 70.824C114.436 70.8483 111.865 69.6512 109.581 67.2328C108.183 65.4221 107.217 63.1677 106.682 60.4698C105.722 55.6208 106.567 51.6651 109.216 48.6026C110.76 46.8161 113.208 45.7528 116.562 45.4125ZM114.63 60.8162C115.019 62.7727 116.119 63.9455 117.93 64.3344C119.595 64.3222 120.719 63.7085 121.302 62.4932C121.703 61.4116 121.776 60.2267 121.521 58.9385C121.071 56.6538 119.71 55.5175 117.437 55.5297C115.59 55.8335 114.636 56.7875 114.576 58.3917C114.43 59.0844 114.448 59.8925 114.63 60.8162Z" fill="white"/>
<path d="M135.995 70.9698L129.141 71.0427L128.503 51.9932C130.471 51.9325 133.011 51.9446 136.122 52.0297C136.135 52.0661 136.128 52.4003 136.104 53.0323C137.295 52.2667 138.662 51.8899 140.206 51.9021C142.867 52.1573 144.806 52.9472 146.021 54.2719C147.564 55.949 148.336 57.9906 148.336 60.3969L148.19 70.7146L141.518 70.8604C141.591 64.2129 141.609 60.8101 141.573 60.6521C141.524 59.4611 140.753 58.7502 139.258 58.5193C137.435 58.5193 136.341 59.37 135.977 61.0714C135.928 61.3144 135.934 64.6139 135.995 70.9698Z" fill="white"/>
<path d="M149.977 44.975C152.735 44.8656 154.984 44.8535 156.721 44.9385L155.956 70.8604C153.331 70.9819 151.55 70.9698 150.615 70.824C150.165 53.8101 149.952 45.1938 149.977 44.975Z" fill="white"/>
<path d="M158.034 52.7406C160.793 52.6677 163.041 52.6616 164.779 52.7224L164.013 70.8786C161.388 70.9637 159.608 70.9576 158.672 70.8604C158.222 58.9385 158.01 52.8986 158.034 52.7406ZM161.589 44.3188C164.238 44.2337 165.417 45.4125 165.125 47.8552C164.833 50.2858 163.6 51.4707 161.424 51.4099C159.249 51.3491 158.07 50.1764 157.888 47.8917C157.706 45.5948 158.939 44.4038 161.589 44.3188Z" fill="white"/>
<path d="M173.948 70.9698L167.094 71.0427L166.456 51.9932C168.424 51.9325 170.964 51.9446 174.076 52.0297C174.088 52.0661 174.082 52.4003 174.057 53.0323C175.248 52.2667 176.615 51.8899 178.159 51.9021C180.82 52.1573 182.759 52.9472 183.974 54.2719C185.517 55.949 186.289 57.9906 186.289 60.3969L186.143 70.7146L179.471 70.8604C179.544 64.2129 179.562 60.8101 179.526 60.6521C179.477 59.4611 178.706 58.7502 177.211 58.5193C175.388 58.5193 174.294 59.37 173.93 61.0714C173.881 61.3144 173.887 64.6139 173.948 70.9698Z" fill="white"/>
<path d="M195.422 59.8135C195.519 58.6833 196.291 58.0089 197.737 57.7901C199.171 57.7901 200.155 58.3188 200.69 59.376L195.422 59.8135ZM200.891 63.4047C201.802 63.3439 203.582 63.2346 206.232 63.0766C206.487 61.5818 206.475 60.0505 206.195 58.4828C205.891 57.1946 205.223 55.9915 204.19 54.8734C202.428 52.8804 200.155 51.8899 197.372 51.9021C194.407 52.1573 192.244 52.9472 190.883 54.2719C188.537 56.5566 187.79 59.5037 188.641 63.113C189.115 65.1182 189.965 66.7953 191.193 68.1443C193.222 69.9429 195.501 70.8361 198.029 70.824C200.824 70.8118 203.048 69.6694 204.701 67.3969C204.834 67.1538 204.962 66.9047 205.083 66.6495L200.326 64.3708C199.815 64.8326 199.08 65.0696 198.12 65.0818C197.16 64.8873 196.449 64.4377 195.987 63.7328C198.345 63.5627 199.979 63.4533 200.891 63.4047Z" fill="white"/>
</svg>
