<svg width="290" height="300" viewBox="0 0 290 300" fill="none" xmlns="http://www.w3.org/2000/svg">
<path d="M289.673 223.692C289.581 220.299 289.518 216.906 289.503 213.512L288.975 96.3599C289.726 76.6357 268.311 64.9341 268.311 64.9341L161.973 4.52551C159.248 2.96979 156.325 1.79236 153.284 1.02567C139.23 -2.45962 127.647 4.05531 127.647 4.05531L13.87 69.83C8.58767 72.7384 5.27292 77.7409 3.20846 82.4769C1.0707 87.4357 -0.0214388 92.7823 0.000318804 98.1825L0.179631 226.882C0.172167 233.352 2.17183 239.666 5.90291 244.953L6.11614 245.248C8.68905 248.773 11.9749 251.716 15.7599 253.886L52.7069 275.327L52.8329 275.186L53.5889 271.308C53.6154 271.168 53.691 271.043 53.8021 270.954C53.9132 270.865 54.0524 270.819 54.1946 270.823C55.1299 270.857 57.1023 271.071 58.4398 272.2C58.7229 272.446 58.9178 272.777 58.9948 273.144C59.0718 273.511 59.0267 273.892 58.8663 274.231C58.4876 275.17 57.7572 275.923 56.8309 276.33C56.7738 276.351 56.7237 276.387 56.6865 276.435C56.6493 276.483 56.6266 276.541 56.621 276.602C56.6154 276.662 56.6272 276.723 56.6549 276.777C56.6826 276.831 56.7252 276.876 56.7776 276.907L69.6586 284.304C69.7606 284.363 69.8764 284.395 69.9944 284.396C70.1125 284.396 70.2286 284.366 70.3312 284.307C70.4338 284.249 70.5192 284.165 70.5789 284.063C70.6386 283.961 70.6705 283.845 70.6715 283.727C70.7054 280.935 70.875 273.926 71.7037 272.423C72.7408 270.537 77.9261 269.878 77.9261 272.709C77.9261 275.54 74.9118 279.408 74.4369 281.391C73.962 283.373 74.4369 286.767 76.7001 287.145C78.5513 287.455 77.4415 285.497 76.923 284.304C76.9043 284.263 76.9 284.217 76.9106 284.174C76.9213 284.131 76.9463 284.092 76.9816 284.064C77.017 284.037 77.0606 284.022 77.1053 284.023C77.1501 284.023 77.1934 284.038 77.2283 284.067L82.0405 287.809C82.08 287.837 82.1275 287.853 82.1763 287.853C82.225 287.853 82.2726 287.838 82.3122 287.809C82.3518 287.781 82.3816 287.741 82.3971 287.695C82.4127 287.648 82.4134 287.598 82.3991 287.552C82.2247 287.067 80.4897 284.823 80.6642 281.861C81.1488 273.931 80.9162 266.228 81.0083 263.644C81.0097 263.6 81.0267 263.558 81.0563 263.524C81.0859 263.491 81.1262 263.47 81.1701 263.463C81.214 263.457 81.2588 263.466 81.2965 263.49C81.3343 263.513 81.3626 263.549 81.3766 263.591C82.5315 267.045 83.3432 270.604 83.7996 274.217C84.5993 280.033 86.6201 281.003 87.5166 281.182C87.5688 281.193 87.6182 281.214 87.6618 281.245C87.7054 281.276 87.7422 281.315 87.77 281.36C87.7977 281.406 87.8158 281.456 87.823 281.509C87.8303 281.562 87.8266 281.616 87.8122 281.667L86.5135 285.913C86.2575 286.783 86.295 287.713 86.6201 288.56L87.2501 290.198C87.2781 290.269 87.3247 290.331 87.385 290.377C87.4452 290.424 87.5169 290.453 87.5924 290.462C87.6679 290.471 87.7444 290.459 87.8138 290.428C87.8832 290.397 87.9429 290.348 87.9867 290.286C89.489 288.056 94.0589 280.756 91.1173 278.288C87.6281 275.38 89.4212 273.761 89.3242 271.502C89.2273 269.243 87.5312 261.778 84.2309 258.099C80.9307 254.42 88.1078 254.798 89.3242 257.062C90.3904 259.025 90.6715 266.882 90.7296 268.933C90.7366 269.251 90.8589 269.556 91.0737 269.791L92.8861 271.798C92.9212 271.838 92.968 271.866 93.02 271.878C93.072 271.89 93.1265 271.885 93.1755 271.864C93.2245 271.843 93.2656 271.807 93.2929 271.761C93.3201 271.715 93.3321 271.662 93.3271 271.609L92.9637 266.117C92.9598 266.074 92.9681 266.032 92.9875 265.994C93.0069 265.956 93.0367 265.925 93.0734 265.904C93.11 265.882 93.152 265.872 93.1943 265.873C93.2367 265.875 93.2777 265.889 93.3126 265.913L94.6453 266.824C94.7564 266.9 94.8484 267.001 94.914 267.119C94.9795 267.237 95.017 267.368 95.0233 267.503L95.3044 274.663C95.3213 275.171 95.531 275.655 95.8909 276.015C96.2508 276.375 96.7341 276.585 97.2428 276.602C97.5057 276.607 97.767 276.56 98.0114 276.464C98.2558 276.367 98.4783 276.222 98.6658 276.037C98.8533 275.853 99.0019 275.633 99.103 275.39C99.204 275.147 99.2553 274.887 99.254 274.624L99.1764 254.807C99.1764 254.724 99.2028 254.643 99.2519 254.576C99.3009 254.509 99.3701 254.459 99.4494 254.433C99.5287 254.408 99.614 254.408 99.693 254.435C99.772 254.461 99.8405 254.512 99.8888 254.58L103.01 258.942C103.053 259.004 103.114 259.05 103.185 259.074C103.256 259.097 103.333 259.097 103.405 259.074C103.476 259.051 103.538 259.005 103.581 258.944C103.624 258.882 103.646 258.809 103.645 258.734L103.557 247.289C103.557 247.289 99.1958 227.657 99.9324 212.795C100.071 209.933 100.574 207.1 101.43 204.365C102.196 201.903 103.039 197.841 101.473 194.922C100.952 193.971 100.556 192.956 100.296 191.903C100.044 190.836 99.7337 189.329 99.4042 187.273C98.4883 181.456 94.5581 179.338 93.8457 177.229C93.7294 176.88 93.584 176.541 93.4386 176.202C92.8958 174.903 91.8345 171.204 92.0478 162.357C92.3288 150.564 90.5358 149.148 90.1626 146.788C89.7895 144.427 89.4066 135.372 95.8229 129.613C102.239 123.854 103.131 122.109 107.284 122.206C111.437 122.303 111.432 128.508 110.962 129.376C110.492 130.243 106.339 136.831 106.339 136.831L105.961 140.796L111.457 146.918C112.752 148.361 113.784 150.02 114.505 151.819L114.737 152.401L114.795 152.294C115.493 149.386 115.324 146.361 116.055 143.249C116.928 139.57 117.282 135.605 118.886 131.925C118.886 131.925 119.923 130.806 119.928 130.791C120.8 128.266 120.688 126.516 120.567 123.845L120.267 117.267C120.243 116.7 120.228 116.128 120.213 115.561C120.122 114.26 119.96 112.966 119.729 111.683C118.682 106.913 118.706 106.772 118.561 103.568L118.013 91.1247C117.937 89.6058 118.1 88.0844 118.498 86.6166C119.816 82.0588 122.282 77.916 125.661 74.5853C126.576 73.6594 127.463 72.7142 128.326 71.735C130.807 68.9186 136.433 63.4362 140.092 66.7373C144.9 71.1 141.507 76.9169 141.507 76.9169C141.507 76.9169 136.53 85.5453 135.207 90.2764C135.018 90.9599 134.8 91.6385 134.568 92.3123C133.87 94.3191 132.702 98.517 133.957 101.173C135.387 104.184 142.147 113.336 144.265 116.2C144.407 116.4 144.602 116.556 144.828 116.651C145.054 116.747 145.301 116.778 145.544 116.742C145.786 116.705 146.013 116.602 146.201 116.444C146.388 116.286 146.528 116.079 146.606 115.847C146.84 115.182 147.002 114.495 147.09 113.796C147.647 110.136 149.281 102.574 149.382 97.5814C149.43 95.3827 149.956 93.2208 150.923 91.2458C152.678 87.6345 155.803 82.3605 160.17 79.3503C161.225 78.6276 162.468 78.2299 163.746 78.2063C166.489 78.1132 169.23 78.4402 171.873 79.1758C172.454 79.3497 173.049 79.4714 173.652 79.5393C176.075 79.8253 182.229 80.5621 183.509 80.9354C185.113 81.4201 188.694 82.7289 187.386 86.127C186.513 88.1455 185.372 90.0369 183.993 91.75C183.362 92.5495 182.571 93.2096 181.672 93.689C180.71 94.1329 179.669 94.3801 178.609 94.4161C176.986 94.5421 174.732 94.3046 173.235 94.6051C171.72 94.9989 170.305 95.7075 169.082 96.6847L167.497 98.1874C167.298 98.3813 167.105 98.58 166.921 98.7884L165.874 99.9857C164.949 101.101 164.245 102.383 163.8 103.762C163.111 106.506 163.189 113.19 162.385 116.404C161.347 120.558 162.196 126.312 164.27 127.728C165.505 128.571 166.935 129.25 169.741 128.106C172.227 127.097 174.965 125.682 176.632 123.578C178.159 121.639 179.874 118.828 182.448 117.8L182.811 117.655C184.633 116.84 200.843 109.535 207.885 115.987C207.962 116.06 208.04 116.133 208.122 116.2C208.83 116.811 213.153 120.917 210.957 128.275C210.835 128.704 210.62 129.1 210.326 129.435C210.033 129.77 209.669 130.036 209.261 130.214C206.954 131.208 206.446 130.175 198.115 130.292C196.385 130.316 192.61 130.738 190.972 131.3C188.064 132.299 183.969 134.325 182.869 137.985C182.743 138.406 182.607 138.833 182.452 139.25C181.517 141.819 178.735 150.312 181.483 153.845C181.774 154.219 182.05 154.602 182.331 154.98C182.995 155.876 185.278 157.403 192.915 155.203C202.869 152.348 208.316 151.65 213.313 155.397C213.56 155.586 213.797 155.77 214.069 155.944C215.188 156.73 218.105 158.79 218.294 160.583C218.377 161.378 218.648 162.803 218.672 164.17C218.697 165.537 218.672 166.458 218.672 167.079C218.586 167.843 218.406 168.594 218.134 169.314C217.995 169.831 217.716 170.301 217.329 170.673C216.943 171.044 216.462 171.303 215.939 171.422C213.579 171.907 212.445 169.91 211.219 167.835L211.18 167.772C210.337 166.366 208.791 165.688 207.153 165.586C202.447 165.285 190.589 167.011 182.54 173.594C182.54 173.594 174.897 178.029 174.519 184.82C174.519 184.82 174.035 194.826 160.276 209.925C146.518 225.025 144.992 235.495 146.029 241.632C146.644 245.273 149.092 254.89 151.408 262.961C152.993 268.492 154.427 272.21 154.897 275.041C155.474 278.507 158.832 288.274 160.034 291.037C160.165 291.333 161.362 291.439 161.377 291.115L161.178 286.796C161.154 286.204 161.052 285.433 161.406 285.046C162.094 284.294 162.796 284.231 163.649 284.779L165.423 285.913C165.708 286.097 166.041 286.193 166.38 286.191C166.719 286.189 167.05 286.088 167.333 285.901C167.616 285.714 167.838 285.449 167.973 285.138C168.108 284.827 168.15 284.483 168.093 284.149C167.798 282.345 167.253 280.592 166.475 278.938C165.56 277.246 164.788 275.48 164.168 273.659C163.78 272.365 164.556 271.235 165.908 271.235C166.1 271.236 166.291 271.194 166.466 271.112C166.64 271.03 166.795 270.911 166.918 270.763C167.042 270.615 167.131 270.442 167.18 270.255C167.229 270.069 167.236 269.874 167.202 269.684C167 268.622 166.615 267.603 166.063 266.674L165.549 265.806C165.432 265.602 165.393 265.361 165.441 265.13C165.488 264.899 165.618 264.693 165.806 264.551L172.653 259.582C172.751 259.512 172.866 259.471 172.985 259.462C173.105 259.454 173.224 259.479 173.331 259.534C173.437 259.589 173.526 259.673 173.588 259.775C173.65 259.878 173.682 259.996 173.681 260.115L173.133 270.484C173.123 270.613 173.134 270.742 173.167 270.867C173.198 270.983 173.256 271.089 173.337 271.177C173.418 271.265 173.519 271.332 173.632 271.372C173.745 271.412 173.866 271.423 173.984 271.405C174.103 271.387 174.215 271.341 174.311 271.269L174.485 271.153C174.57 271.095 174.669 271.061 174.772 271.056C174.875 271.052 174.976 271.076 175.066 271.127C175.155 271.177 175.229 271.252 175.278 271.342C175.327 271.433 175.349 271.535 175.343 271.638C175.31 272.41 175.129 273.168 174.81 273.872L173.153 277.523C173.011 277.833 172.955 278.177 172.993 278.516L173.283 281.1C173.29 281.198 173.327 281.292 173.388 281.368C173.45 281.445 173.533 281.502 173.627 281.53C173.721 281.558 173.822 281.558 173.915 281.527C174.009 281.497 174.091 281.44 174.151 281.362C175.44 279.796 178.081 276.408 179.54 273.276L183.756 264.255C183.789 264.184 183.842 264.126 183.91 264.087C183.978 264.048 184.056 264.032 184.133 264.04C184.211 264.048 184.284 264.08 184.342 264.132C184.401 264.183 184.441 264.252 184.459 264.328C184.861 266.024 186.024 268.972 189.198 268.69C189.255 268.689 189.312 268.703 189.362 268.731C189.412 268.759 189.453 268.801 189.48 268.851C189.508 268.901 189.521 268.958 189.518 269.015C189.515 269.073 189.497 269.128 189.465 269.175L182.409 277.416C181.59 278.358 181.049 279.509 180.848 280.741C180.773 281.16 180.773 281.588 180.848 282.006C180.885 282.163 180.963 282.307 181.074 282.424C181.185 282.54 181.325 282.625 181.48 282.669C181.634 282.713 181.798 282.715 181.954 282.674C182.11 282.634 182.252 282.552 182.365 282.438L185.903 278.962C185.959 278.907 186.033 278.874 186.112 278.868C186.191 278.863 186.269 278.885 186.333 278.931C186.397 278.978 186.442 279.045 186.461 279.122C186.48 279.198 186.471 279.279 186.436 279.35L183.005 286.02C182.952 286.126 182.931 286.244 182.945 286.362C182.959 286.479 183.007 286.59 183.084 286.68C183.16 286.77 183.262 286.835 183.375 286.868C183.489 286.9 183.609 286.899 183.722 286.863C185.215 286.379 187.599 285.322 189.014 283.344C189.368 282.848 189.759 282.378 190.182 281.939L190.807 281.294C190.867 281.232 190.946 281.191 191.031 281.178C191.116 281.164 191.203 281.178 191.28 281.218C191.356 281.257 191.418 281.32 191.456 281.398C191.494 281.475 191.506 281.563 191.49 281.648C191.059 283.344 190.159 284.885 188.893 286.093C188.738 286.248 188.306 286.82 188.52 287.319C188.601 287.532 188.743 287.716 188.927 287.85C189.111 287.984 189.329 288.062 189.557 288.075C191.045 288.075 193.991 285.991 193.991 283.829C193.979 283.746 193.999 283.662 194.045 283.592C194.092 283.523 194.163 283.473 194.244 283.452C194.325 283.432 194.411 283.442 194.485 283.481C194.559 283.52 194.616 283.586 194.645 283.664C195.616 286.232 195.928 289.002 195.551 291.721C195.522 291.987 195.508 292.254 195.493 292.516C195.467 293.052 195.394 293.586 195.275 294.11V294.183L195.101 295.085C195.059 295.379 194.928 295.654 194.725 295.871C194.522 296.089 194.257 296.239 193.967 296.301C193.821 296.331 193.681 296.36 193.54 296.398L191.679 296.883C191.59 296.89 191.503 296.919 191.427 296.968C191.351 297.016 191.288 297.083 191.244 297.161C191.2 297.24 191.176 297.328 191.174 297.418C191.172 297.509 191.193 297.598 191.234 297.678L192.392 300L275.871 252.011C288.898 243.867 289.814 229.155 289.673 223.692ZM65.0984 263C62.7383 263.378 59.1522 258.002 59.1522 258.002C59.1522 258.002 57.175 255.36 60.3783 255.263C61.5521 255.231 62.7268 255.267 63.8966 255.37C64.4972 255.424 65.0611 255.683 65.4941 256.103C65.9271 256.523 66.2031 257.078 66.276 257.677C66.5329 259.771 66.6443 262.757 65.0984 263ZM63.7754 250.45C59.7531 246.94 61.7061 238.249 62.2392 236.179C62.2523 236.125 62.2779 236.076 62.314 236.034C62.35 235.992 62.3954 235.959 62.4465 235.939C62.4975 235.918 62.5528 235.909 62.6078 235.914C62.6627 235.919 62.7158 235.936 62.7626 235.966C67.0805 238.603 68.3599 243.416 68.5779 244.279C68.5779 244.352 68.6312 244.424 68.6458 244.502C69.1546 247.052 67.3664 253.581 63.7754 250.45ZM79.5496 263.741C79.542 264.62 79.2147 265.466 78.6288 266.121C77.7517 267.091 76.6225 267.28 74.9167 265.312C74.8014 265.18 74.6992 265.037 74.6114 264.885C74.0727 263.965 73.3619 263.157 72.5178 262.505C71.8345 262.02 71.3451 261.507 71.2578 260.629C71.2336 260.319 71.2336 260.008 71.2578 259.699L71.3984 257.556C71.4178 257.233 71.4275 256.898 71.4275 256.553V254.967C71.4278 254.156 71.363 253.345 71.2336 252.544L70.9865 251.002C70.9824 250.846 71.0103 250.692 71.0684 250.547C71.1266 250.402 71.2138 250.271 71.3246 250.162C71.4355 250.052 71.5676 249.967 71.7128 249.91C71.858 249.854 72.0133 249.828 72.1689 249.834L77.7953 250.028C77.9567 250.033 78.1148 250.075 78.2573 250.151C78.3998 250.227 78.5228 250.335 78.6167 250.466C78.7105 250.597 78.7727 250.749 78.7984 250.908C78.824 251.068 78.8124 251.231 78.7645 251.385L76.6419 258.249C76.6083 258.359 76.6015 258.475 76.6222 258.587C76.6429 258.7 76.6905 258.806 76.7608 258.896C76.8312 258.987 76.9223 259.059 77.0265 259.107C77.1307 259.154 77.2447 259.176 77.3591 259.17L78.3284 259.112C78.4966 259.103 78.665 259.128 78.823 259.187C78.981 259.245 79.1252 259.336 79.2467 259.453C79.3681 259.57 79.4641 259.711 79.5287 259.866C79.5933 260.022 79.6252 260.189 79.6223 260.358L79.5496 263.741Z" fill="white"/>
</svg>
