<svg width="500" height="200" viewBox="0 0 500 200" fill="none" xmlns="http://www.w3.org/2000/svg">
<path d="M145.76 50V90.5298H154.104V62.0908H154.218L164.151 90.5298H171.02L180.954 61.807H181.067V90.5298H189.412V50H176.867L167.898 77.8713H167.784L158.305 50H145.76Z" fill="white"/>
<path d="M196.066 70.2081C196.179 68.316 196.652 66.7455 197.485 65.4967C198.317 64.2479 199.377 63.245 200.664 62.4882C201.95 61.7313 203.388 61.2015 204.978 60.8988C206.605 60.5582 208.232 60.3879 209.86 60.3879C211.335 60.3879 212.83 60.5014 214.344 60.7285C215.858 60.9177 217.239 61.315 218.488 61.9205C219.737 62.526 220.758 63.3775 221.553 64.4749C222.348 65.5345 222.745 66.9536 222.745 68.7323V84.0019C222.745 85.3264 222.821 86.5941 222.972 87.8051C223.124 89.0161 223.388 89.9243 223.767 90.5298H215.593C215.441 90.0757 215.309 89.6216 215.195 89.1675C215.12 88.6755 215.063 88.1835 215.025 87.6916C213.738 89.0161 212.225 89.9432 210.484 90.473C208.743 91.0028 206.965 91.2677 205.148 91.2677C203.748 91.2677 202.442 91.0974 201.231 90.7569C200.02 90.4163 198.961 89.8865 198.053 89.1675C197.144 88.4484 196.425 87.5402 195.896 86.4428C195.404 85.3453 195.158 84.0397 195.158 82.526C195.158 80.8609 195.441 79.4986 196.009 78.439C196.615 77.3415 197.371 76.4711 198.28 75.8278C199.226 75.1845 200.285 74.7114 201.458 74.4087C202.669 74.0681 203.88 73.8032 205.091 73.614C206.302 73.4248 207.494 73.2734 208.668 73.1599C209.841 73.0464 210.881 72.8761 211.79 72.649C212.698 72.4219 213.417 72.1003 213.947 71.684C214.476 71.2299 214.722 70.5866 214.685 69.754C214.685 68.8836 214.533 68.2025 214.23 67.7105C213.966 67.1807 213.587 66.7834 213.095 66.5185C212.641 66.2157 212.092 66.0265 211.449 65.9508C210.844 65.8373 210.181 65.7805 209.462 65.7805C207.873 65.7805 206.624 66.1211 205.716 66.8023C204.808 67.4834 204.278 68.6187 204.126 70.2081H196.066ZM214.685 76.1684C214.344 76.4711 213.909 76.7171 213.379 76.9063C212.887 77.0577 212.338 77.1902 211.733 77.3037C211.165 77.4172 210.56 77.5118 209.916 77.5875C209.273 77.6632 208.63 77.7578 207.986 77.8713C207.381 77.9849 206.775 78.1362 206.17 78.3255C205.602 78.5147 205.091 78.7796 204.637 79.1202C204.221 79.4229 203.88 79.8202 203.616 80.3122C203.351 80.8042 203.218 81.4286 203.218 82.1854C203.218 82.9044 203.351 83.5099 203.616 84.0019C203.88 84.4939 204.24 84.8912 204.694 85.1939C205.148 85.4588 205.678 85.6481 206.283 85.7616C206.889 85.8751 207.513 85.9319 208.157 85.9319C209.746 85.9319 210.976 85.667 211.846 85.1372C212.717 84.6074 213.36 83.983 213.776 83.264C214.193 82.5071 214.439 81.7502 214.514 80.9934C214.628 80.2365 214.685 79.631 214.685 79.1769V76.1684Z" fill="white"/>
<path d="M229.002 61.1826V90.5298H237.062V77.3037C237.062 75.9792 237.195 74.7493 237.46 73.614C237.724 72.4787 238.16 71.4948 238.765 70.6623C239.408 69.7919 240.241 69.1107 241.263 68.6187C242.284 68.1268 243.533 67.8808 245.009 67.8808C245.501 67.8808 246.012 67.9186 246.542 67.9943C247.072 68.0322 247.526 68.0889 247.904 68.1646V60.6717C247.261 60.4825 246.674 60.3879 246.144 60.3879C245.123 60.3879 244.139 60.5393 243.193 60.842C242.247 61.1448 241.357 61.5799 240.525 62.1476C239.692 62.6774 238.954 63.3396 238.311 64.1343C237.668 64.8912 237.157 65.7237 236.778 66.632H236.665V61.1826H229.002Z" fill="white"/>
<path d="M270.048 71.5137H277.938C277.824 69.6216 277.37 67.9943 276.576 66.632C275.781 65.2318 274.74 64.0776 273.453 63.1693C272.205 62.2233 270.767 61.5232 269.139 61.0691C267.55 60.6149 265.885 60.3879 264.144 60.3879C261.76 60.3879 259.641 60.7852 257.787 61.5799C255.932 62.3746 254.362 63.491 253.075 64.929C251.788 66.3292 250.804 68.0132 250.123 69.9811C249.48 71.9111 249.158 74.0114 249.158 76.2819C249.158 78.4768 249.518 80.5014 250.237 82.3557C250.956 84.1722 251.959 85.7427 253.245 87.0672C254.532 88.3917 256.084 89.4324 257.9 90.1892C259.754 90.9082 261.779 91.2677 263.974 91.2677C267.872 91.2677 271.069 90.246 273.567 88.2025C276.065 86.1589 277.578 83.1883 278.108 79.2904H270.331C270.067 81.1069 269.404 82.5639 268.345 83.6613C267.323 84.7209 265.847 85.2507 263.917 85.2507C262.668 85.2507 261.609 84.9669 260.738 84.3992C259.868 83.8316 259.168 83.1126 258.638 82.2422C258.146 81.334 257.786 80.3311 257.559 79.2337C257.332 78.1362 257.219 77.0577 257.219 75.9981C257.219 74.9007 257.332 73.8032 257.559 72.7058C257.786 71.5705 258.165 70.5487 258.695 69.6405C259.262 68.6944 259.981 67.9376 260.852 67.3699C261.722 66.7644 262.801 66.4617 264.087 66.4617C267.531 66.4617 269.518 68.1457 270.048 71.5137Z" fill="white"/>
<path d="M290.949 56.6414V50H282.889V56.6414H290.949ZM282.889 61.1826V90.5298H290.949V61.1826H282.889Z" fill="white"/>
<path d="M324.827 90.5298V61.1826H316.767V76.5658C316.767 79.5553 316.275 81.7124 315.291 83.0369C314.307 84.3236 312.717 84.9669 310.522 84.9669C308.592 84.9669 307.249 84.3803 306.492 83.2072C305.735 81.9962 305.357 80.1798 305.357 77.7578V61.1826H297.296V79.2337C297.296 81.0501 297.448 82.7152 297.75 84.229C298.091 85.7048 298.659 86.9726 299.453 88.0322C300.248 89.0539 301.327 89.8486 302.689 90.4163C304.089 90.9839 305.868 91.2677 308.025 91.2677C309.728 91.2677 311.393 90.8893 313.02 90.1325C314.647 89.3756 315.972 88.1457 316.994 86.4428H317.164V90.5298H324.827Z" fill="white"/>
<path d="M337.189 80.9934H329.526C329.601 82.9612 330.037 84.6074 330.831 85.9319C331.664 87.2185 332.704 88.2592 333.953 89.0539C335.24 89.8486 336.697 90.4163 338.324 90.7569C339.951 91.0974 341.616 91.2677 343.319 91.2677C344.984 91.2677 346.612 91.0974 348.201 90.7569C349.828 90.4541 351.266 89.9054 352.515 89.1107C353.764 88.316 354.767 87.2753 355.524 85.9886C356.318 84.6641 356.716 83.0369 356.716 81.1069C356.716 79.7446 356.451 78.6093 355.921 77.701C355.391 76.755 354.691 75.9792 353.821 75.3737C352.95 74.7304 351.948 74.2195 350.812 73.8411C349.715 73.4626 348.58 73.141 347.406 72.8761C346.271 72.6112 345.155 72.3652 344.057 72.1381C342.96 71.9111 341.976 71.6651 341.106 71.4002C340.273 71.0974 339.592 70.719 339.062 70.2649C338.532 69.8108 338.267 69.2242 338.267 68.5052C338.267 67.8997 338.419 67.4267 338.721 67.0861C339.024 66.7077 339.384 66.4238 339.8 66.2346C340.254 66.0454 340.746 65.9319 341.276 65.894C341.806 65.8184 342.298 65.7805 342.752 65.7805C344.19 65.7805 345.439 66.0643 346.498 66.632C347.558 67.1618 348.144 68.2025 348.258 69.754H355.921C355.77 67.9376 355.297 66.4428 354.502 65.2696C353.745 64.0587 352.78 63.0937 351.607 62.3746C350.434 61.6556 349.09 61.1448 347.577 60.842C346.101 60.5393 344.568 60.3879 342.979 60.3879C341.389 60.3879 339.838 60.5393 338.324 60.842C336.81 61.1069 335.448 61.5989 334.237 62.3179C333.026 62.9991 332.042 63.9451 331.285 65.1561C330.566 66.3671 330.207 67.9186 330.207 69.8108C330.207 71.0974 330.472 72.1949 331.002 73.1031C331.531 73.9735 332.231 74.7114 333.102 75.3169C333.972 75.8846 334.956 76.3576 336.054 76.736C337.189 77.0766 338.343 77.3794 339.516 77.6443C342.392 78.2498 344.625 78.8553 346.214 79.4607C347.842 80.0662 348.655 80.9745 348.655 82.1854C348.655 82.9044 348.485 83.5099 348.144 84.0019C347.804 84.456 347.369 84.8344 346.839 85.1372C346.347 85.4021 345.779 85.6102 345.136 85.7616C344.53 85.8751 343.944 85.9319 343.376 85.9319C342.581 85.9319 341.806 85.8373 341.049 85.6481C340.33 85.4588 339.686 85.175 339.119 84.7966C338.551 84.3803 338.078 83.8694 337.7 83.264C337.359 82.6206 337.189 81.8638 337.189 80.9934Z" fill="white"/>
<path d="M172.78 112.819H181.408C181.143 110.473 180.5 108.392 179.478 106.575C178.456 104.759 177.15 103.245 175.561 102.034C174.009 100.785 172.231 99.8392 170.225 99.1958C168.257 98.5525 166.157 98.2308 163.924 98.2308C160.821 98.2308 158.021 98.7796 155.523 99.877C153.063 100.974 150.982 102.488 149.279 104.418C147.576 106.348 146.271 108.619 145.362 111.23C144.454 113.803 144 116.604 144 119.631C144 122.583 144.454 125.345 145.362 127.919C146.271 130.454 147.576 132.668 149.279 134.56C150.982 136.452 153.063 137.947 155.523 139.044C158.021 140.104 160.821 140.634 163.924 140.634C166.422 140.634 168.711 140.255 170.793 139.499C172.874 138.742 174.691 137.644 176.242 136.206C177.794 134.768 179.043 133.027 179.989 130.984C180.935 128.94 181.521 126.651 181.748 124.115H173.12C172.78 126.84 171.833 129.035 170.282 130.7C168.768 132.365 166.649 133.198 163.924 133.198C161.919 133.198 160.216 132.819 158.816 132.062C157.415 131.268 156.28 130.227 155.41 128.94C154.539 127.654 153.896 126.216 153.48 124.626C153.101 122.999 152.912 121.334 152.912 119.631C152.912 117.852 153.101 116.131 153.48 114.465C153.896 112.8 154.539 111.325 155.41 110.038C156.28 108.713 157.415 107.673 158.816 106.916C160.216 106.121 161.919 105.724 163.924 105.724C165.022 105.724 166.062 105.913 167.046 106.291C168.068 106.632 168.976 107.124 169.771 107.767C170.566 108.411 171.228 109.167 171.758 110.038C172.288 110.87 172.628 111.798 172.78 112.819Z" fill="white"/>
<path d="M186.642 119.404C186.756 117.512 187.229 115.941 188.061 114.693C188.894 113.444 189.953 112.441 191.24 111.684C192.527 110.927 193.965 110.397 195.554 110.095C197.181 109.754 198.809 109.584 200.436 109.584C201.912 109.584 203.406 109.697 204.92 109.924C206.434 110.114 207.815 110.511 209.064 111.116C210.313 111.722 211.335 112.573 212.129 113.671C212.924 114.73 213.321 116.149 213.321 117.928V133.198C213.321 134.522 213.397 135.79 213.548 137.001C213.7 138.212 213.965 139.12 214.343 139.726H206.169C206.018 139.272 205.885 138.817 205.772 138.363C205.696 137.871 205.639 137.379 205.601 136.887C204.315 138.212 202.801 139.139 201.06 139.669C199.319 140.199 197.541 140.464 195.724 140.464C194.324 140.464 193.019 140.293 191.808 139.953C190.597 139.612 189.537 139.082 188.629 138.363C187.721 137.644 187.002 136.736 186.472 135.639C185.98 134.541 185.734 133.236 185.734 131.722C185.734 130.057 186.018 128.694 186.585 127.635C187.191 126.537 187.948 125.667 188.856 125.024C189.802 124.38 190.862 123.907 192.035 123.605C193.246 123.264 194.457 122.999 195.668 122.81C196.879 122.621 198.071 122.469 199.244 122.356C200.417 122.242 201.458 122.072 202.366 121.845C203.274 121.618 203.993 121.296 204.523 120.88C205.053 120.426 205.299 119.782 205.261 118.95C205.261 118.079 205.109 117.398 204.807 116.906C204.542 116.377 204.163 115.979 203.671 115.714C203.217 115.412 202.669 115.222 202.025 115.147C201.42 115.033 200.757 114.976 200.038 114.976C198.449 114.976 197.2 115.317 196.292 115.998C195.384 116.679 194.854 117.815 194.703 119.404H186.642ZM205.261 125.364C204.92 125.667 204.485 125.913 203.955 126.102C203.463 126.254 202.915 126.386 202.309 126.5C201.741 126.613 201.136 126.708 200.493 126.783C199.849 126.859 199.206 126.954 198.563 127.067C197.957 127.181 197.352 127.332 196.746 127.521C196.178 127.711 195.668 127.975 195.213 128.316C194.797 128.619 194.457 129.016 194.192 129.508C193.927 130 193.794 130.624 193.794 131.381C193.794 132.1 193.927 132.706 194.192 133.198C194.457 133.69 194.816 134.087 195.27 134.39C195.724 134.655 196.254 134.844 196.86 134.957C197.465 135.071 198.09 135.128 198.733 135.128C200.322 135.128 201.552 134.863 202.423 134.333C203.293 133.803 203.936 133.179 204.353 132.46C204.769 131.703 205.015 130.946 205.09 130.189C205.204 129.432 205.261 128.827 205.261 128.373V125.364Z" fill="white"/>
<path d="M234.393 134.447C233.107 134.447 232.009 134.182 231.101 133.652C230.193 133.122 229.455 132.441 228.887 131.608C228.357 130.738 227.96 129.735 227.695 128.6C227.468 127.465 227.355 126.31 227.355 125.137C227.355 123.926 227.468 122.753 227.695 121.618C227.922 120.483 228.301 119.48 228.83 118.609C229.398 117.739 230.117 117.039 230.987 116.509C231.896 115.941 233.012 115.658 234.337 115.658C235.623 115.658 236.702 115.941 237.572 116.509C238.48 117.039 239.218 117.758 239.786 118.666C240.354 119.536 240.751 120.539 240.978 121.675C241.243 122.81 241.375 123.964 241.375 125.137C241.375 126.31 241.262 127.465 241.035 128.6C240.808 129.735 240.41 130.738 239.843 131.608C239.313 132.441 238.594 133.122 237.686 133.652C236.815 134.182 235.718 134.447 234.393 134.447ZM219.578 110.378V150H227.638V136.093H227.752C228.736 137.531 229.985 138.628 231.498 139.385C233.05 140.104 234.734 140.464 236.55 140.464C238.707 140.464 240.581 140.047 242.17 139.215C243.797 138.382 245.141 137.266 246.2 135.866C247.298 134.465 248.111 132.857 248.641 131.041C249.171 129.224 249.436 127.332 249.436 125.364C249.436 123.283 249.171 121.296 248.641 119.404C248.111 117.474 247.298 115.79 246.2 114.352C245.103 112.914 243.722 111.76 242.057 110.889C240.391 110.019 238.405 109.584 236.096 109.584C234.28 109.584 232.615 109.943 231.101 110.662C229.587 111.381 228.338 112.535 227.355 114.125H227.241V110.378H219.578Z" fill="white"/>
<path d="M262.567 105.837V99.1958H254.507V105.837H262.567ZM254.507 110.378V139.726H262.567V110.378H254.507Z" fill="white"/>
<path d="M279.132 110.378V101.58H271.071V110.378H266.189V115.771H271.071V133.084C271.071 134.56 271.317 135.752 271.809 136.66C272.301 137.569 272.963 138.269 273.796 138.761C274.666 139.253 275.65 139.574 276.748 139.726C277.883 139.915 279.075 140.009 280.324 140.009C281.118 140.009 281.932 139.991 282.765 139.953C283.597 139.915 284.354 139.839 285.035 139.726V133.482C284.657 133.557 284.259 133.614 283.843 133.652C283.427 133.69 282.992 133.709 282.538 133.709C281.175 133.709 280.267 133.482 279.813 133.027C279.359 132.573 279.132 131.665 279.132 130.303V115.771H285.035V110.378H279.132Z" fill="white"/>
<path d="M288.53 119.404C288.643 117.512 289.116 115.941 289.949 114.693C290.781 113.444 291.841 112.441 293.128 111.684C294.414 110.927 295.852 110.397 297.442 110.095C299.069 109.754 300.696 109.584 302.324 109.584C303.799 109.584 305.294 109.697 306.808 109.924C308.322 110.114 309.703 110.511 310.952 111.116C312.201 111.722 313.222 112.573 314.017 113.671C314.812 114.73 315.209 116.149 315.209 117.928V133.198C315.209 134.522 315.285 135.79 315.436 137.001C315.587 138.212 315.852 139.12 316.231 139.726H308.057C307.905 139.272 307.773 138.817 307.659 138.363C307.584 137.871 307.527 137.379 307.489 136.887C306.202 138.212 304.689 139.139 302.948 139.669C301.207 140.199 299.429 140.464 297.612 140.464C296.212 140.464 294.906 140.293 293.695 139.953C292.484 139.612 291.425 139.082 290.517 138.363C289.608 137.644 288.889 136.736 288.359 135.639C287.868 134.541 287.622 133.236 287.622 131.722C287.622 130.057 287.905 128.694 288.473 127.635C289.078 126.537 289.835 125.667 290.744 125.024C291.69 124.38 292.749 123.907 293.922 123.605C295.133 123.264 296.344 122.999 297.555 122.81C298.766 122.621 299.958 122.469 301.131 122.356C302.305 122.242 303.345 122.072 304.254 121.845C305.162 121.618 305.881 121.296 306.411 120.88C306.94 120.426 307.186 119.782 307.148 118.95C307.148 118.079 306.997 117.398 306.694 116.906C306.429 116.377 306.051 115.979 305.559 115.714C305.105 115.412 304.556 115.222 303.913 115.147C303.307 115.033 302.645 114.976 301.926 114.976C300.337 114.976 299.088 115.317 298.18 115.998C297.271 116.679 296.742 117.815 296.59 119.404H288.53ZM307.148 125.364C306.808 125.667 306.373 125.913 305.843 126.102C305.351 126.254 304.802 126.386 304.197 126.5C303.629 126.613 303.024 126.708 302.38 126.783C301.737 126.859 301.094 126.954 300.45 127.067C299.845 127.181 299.239 127.332 298.634 127.521C298.066 127.711 297.555 127.975 297.101 128.316C296.685 128.619 296.344 129.016 296.079 129.508C295.815 130 295.682 130.624 295.682 131.381C295.682 132.1 295.815 132.706 296.079 133.198C296.344 133.69 296.704 134.087 297.158 134.39C297.612 134.655 298.142 134.844 298.747 134.957C299.353 135.071 299.977 135.128 300.621 135.128C302.21 135.128 303.44 134.863 304.31 134.333C305.181 133.803 305.824 133.179 306.24 132.46C306.657 131.703 306.903 130.946 306.978 130.189C307.092 129.432 307.148 128.827 307.148 128.373V125.364Z" fill="white"/>
<path d="M321.693 99.1958V139.726H329.753V99.1958H321.693Z" fill="white"/>
<path d="M336.441 130.984V139.726H345.353V130.984H336.441Z" fill="white"/>
</svg>
