<svg width="193" height="50" viewBox="0 0 193 50" fill="none" xmlns="http://www.w3.org/2000/svg">
<path d="M119.219 23.1926V20.4663H120.299V19.5017H116.895V20.4663H117.976V23.1926H119.219Z" fill="black"/>
<path d="M146.397 22.2645H146.734L147.36 23.1926H148.688L147.912 22.054C148.137 21.938 148.31 21.7822 148.429 21.585C148.549 21.3878 148.608 21.1574 148.608 20.8939C148.608 20.6121 148.54 20.3668 148.403 20.1564C148.265 19.9459 148.071 19.7835 147.818 19.6708C147.564 19.5581 147.267 19.5017 146.926 19.5017H145.154V23.1909H146.399V22.2645H146.397ZM146.397 20.4613H146.85C147.019 20.4613 147.145 20.4994 147.229 20.574C147.314 20.6502 147.355 20.7563 147.355 20.8939C147.355 21.0314 147.314 21.1375 147.229 21.2121C147.145 21.2883 147.019 21.3248 146.85 21.3248H146.397V20.4613Z" fill="black"/>
<path d="M130.764 19.5017V21.5319C130.764 22.0838 130.923 22.5131 131.238 22.818C131.554 23.123 131.995 23.2771 132.56 23.2771C133.125 23.2771 133.566 23.1246 133.883 22.818C134.199 22.5131 134.357 22.0838 134.357 21.5319V19.5017H133.134V21.4938C133.134 21.764 133.086 21.9612 132.989 22.0838C132.893 22.2065 132.752 22.2678 132.57 22.2678C132.388 22.2678 132.247 22.2065 132.151 22.0838C132.055 21.9612 132.005 21.764 132.005 21.4938V19.5017H130.764Z" fill="black"/>
<path d="M127.48 15.0768V7.06689H121.047C120.402 7.06689 119.855 7.29395 119.404 7.74806C118.95 8.19885 118.723 8.74577 118.723 9.39047V15.0768H120.563V9.37887C120.563 9.24629 120.611 9.13359 120.705 9.03746C120.8 8.94134 120.914 8.89493 121.045 8.89493H125.638V15.0751H127.48V15.0768Z" fill="black"/>
<path d="M144.496 13.083C144.387 13.1924 144.256 13.2471 144.107 13.2471H138.152V15.0768H144.325C144.949 15.0768 145.491 14.8464 145.951 14.384C146.394 13.9415 146.616 13.3863 146.616 12.7201L146.611 10.2092H139.864V9.42362C139.864 9.30595 139.925 9.18496 140.045 9.06066C140.154 8.95128 140.285 8.89659 140.434 8.89659H146.609V7.06689H140.434C139.811 7.06689 139.269 7.29727 138.808 7.75966C138.364 8.20217 138.144 8.75737 138.144 9.42362V11.9295H144.67V12.7814C144.654 12.8792 144.594 12.9803 144.496 13.083Z" fill="black"/>
<path d="M175.961 10.249V7.06689H169.363C168.718 7.06689 168.171 7.29727 167.72 7.75966C167.263 8.22537 167.034 8.77063 167.034 9.3971V15.0784H168.864V12.5626H172.694L174.035 15.0784H175.859L174.524 12.4085C174.809 12.2958 175.067 12.1218 175.298 11.8864C175.738 11.4389 175.961 10.8937 175.961 10.249ZM174.131 10.249C174.131 10.3915 174.089 10.5059 174.005 10.5904C173.91 10.6815 173.801 10.7279 173.68 10.7279H168.862V9.39876C168.862 9.26617 168.914 9.15182 169.016 9.05238C169.111 8.94962 169.227 8.89825 169.363 8.89825H174.131V10.249Z" fill="black"/>
<path d="M152.979 15.0768V8.89659H156.297V7.06689H147.715V8.89659H151.149V15.0768H152.979Z" fill="black"/>
<path d="M174.835 22.2777C174.761 22.3109 174.638 22.3275 174.466 22.3275C174.265 22.3275 174.056 22.296 173.839 22.2346C173.622 22.1733 173.425 22.0921 173.249 21.9894L172.848 22.8959C173.034 23.0119 173.272 23.1047 173.562 23.1727C173.852 23.2406 174.151 23.2754 174.456 23.2754C174.825 23.2754 175.139 23.2208 175.397 23.1097C175.656 22.9987 175.85 22.8495 175.979 22.6622C176.11 22.475 176.174 22.2645 176.174 22.0325C176.174 21.7656 176.103 21.5551 175.961 21.3994C175.818 21.2452 175.651 21.1325 175.457 21.0646C175.263 20.9966 175.026 20.9353 174.746 20.8823C174.527 20.8392 174.371 20.8011 174.277 20.7629C174.182 20.7265 174.134 20.6701 174.134 20.5972C174.134 20.4431 174.293 20.3652 174.613 20.3652C174.936 20.3652 175.279 20.4563 175.641 20.6386L176.015 19.737C175.83 19.631 175.614 19.5514 175.369 19.4967C175.125 19.442 174.877 19.4155 174.623 19.4155C174.254 19.4155 173.94 19.4702 173.682 19.5796C173.423 19.689 173.229 19.8381 173.1 20.0271C172.969 20.2177 172.904 20.4282 172.904 20.6602C172.904 20.927 172.974 21.1391 173.115 21.2949C173.256 21.4507 173.422 21.5634 173.611 21.6314C173.799 21.6993 174.038 21.764 174.322 21.8236C174.542 21.87 174.701 21.9115 174.799 21.9496C174.895 21.9877 174.945 22.0457 174.945 22.1236C174.946 22.1932 174.91 22.2446 174.835 22.2777Z" fill="black"/>
<path d="M165.934 15.0768V7.06689H159.714C159.087 7.06689 158.54 7.30224 158.071 7.77623C157.62 8.22703 157.395 8.78389 157.395 9.44682V15.0784H159.225V13.0449H164.104V15.0784H165.934V15.0768ZM159.225 11.2152V9.32584C159.225 9.21314 159.273 9.10873 159.367 9.0126C159.452 8.93139 159.566 8.89162 159.714 8.89162H164.104V11.2152H159.225Z" fill="black"/>
<path d="M162.306 20.4398V19.5017H159.306V23.1926H162.374V22.2529H160.529V21.7689H162.089V20.8723H160.529V20.4398H162.306Z" fill="black"/>
<path d="M137.045 11.0727H135.215V13.2537H130.407V9.42362C130.407 9.2844 130.46 9.16342 130.566 9.06066C130.672 8.95128 130.792 8.89659 130.922 8.89659H136.702V7.06689H130.922C130.281 7.06689 129.731 7.29727 129.268 7.75966C128.808 8.2204 128.576 8.7756 128.576 9.42362V15.0768H137.041V11.0727H137.045Z" fill="black"/>
<path d="M94.1366 14.3691C94.5874 13.9183 94.8128 13.3614 94.8128 12.6985V7.06689H88.3293C87.7029 7.06689 87.156 7.30224 86.6869 7.77623C86.2361 8.22703 86.0107 8.78389 86.0107 9.44682V12.7002C86.0107 13.3631 86.2361 13.92 86.6869 14.3707C87.156 14.8431 87.7029 15.0801 88.3293 15.0801H92.4942C93.1207 15.0768 93.6693 14.8414 94.1366 14.3691ZM88.8912 13.2487V13.2537H88.331C88.1885 13.2537 88.0725 13.2139 87.9846 13.1327C87.8885 13.0333 87.8421 12.9289 87.8421 12.8195V9.32584C87.8421 9.21645 87.8902 9.11204 87.9846 9.0126C88.0725 8.93139 88.1868 8.89162 88.331 8.89162H88.8912V8.89659H92.9848V12.8195C92.9848 12.9289 92.9367 13.0333 92.8423 13.1327C92.7544 13.2139 92.6384 13.2537 92.4959 13.2537H91.9357V13.2487H88.8912Z" fill="black"/>
<path d="M117.624 7.06689H115.794V15.0768H117.624V7.06689Z" fill="black"/>
<path d="M91.9353 20.4398V19.5017H88.9355V23.1926H92.0033V22.2529H90.1587V21.7689H91.7182V20.8723H90.1587V20.4398H91.9353Z" fill="black"/>
<path d="M75.5826 19.5017H74.2451L75.8047 23.1926H77.0278L78.589 19.5017H77.3659L76.4643 21.6579L75.5826 19.5017Z" fill="black"/>
<path d="M84.9117 15.0768V7.06689H76.703C76.0583 7.06689 75.5114 7.29395 75.0606 7.74806C74.6065 8.19885 74.3794 8.74577 74.3794 9.39047V15.0768H76.219V9.37887C76.219 9.24629 76.2671 9.13359 76.3616 9.03746C76.456 8.94134 76.5704 8.89493 76.7013 8.89493H78.7349V15.0751H80.5645V8.89493H83.0704V15.0751H84.9117V15.0768Z" fill="black"/>
<path d="M103.921 21.5154L105.324 23.1926H106.346V19.5017H105.135V21.1789L103.733 19.5017H102.71V23.1926H103.921V21.5154Z" fill="black"/>
<path d="M114.696 15.0768V7.06689H108.262C107.617 7.06689 107.07 7.29395 106.62 7.74806C106.166 8.19885 105.938 8.74577 105.938 9.39047V15.0768H107.778V9.37887C107.778 9.24629 107.826 9.13359 107.921 9.03746C108.015 8.94134 108.129 8.89493 108.26 8.89493H112.853V15.0751H114.696V15.0768Z" fill="black"/>
<path d="M104.839 10.249V7.06689H98.2416C97.5969 7.06689 97.05 7.29727 96.5992 7.75966C96.1418 8.22537 95.9131 8.77063 95.9131 9.3971V15.0784H97.7428V12.5626H101.573L102.914 15.0784H104.738L103.403 12.4085C103.688 12.2958 103.946 12.1218 104.177 11.8864C104.617 11.4389 104.839 10.8937 104.839 10.249ZM103.01 10.249C103.01 10.3915 102.968 10.5059 102.884 10.5904C102.789 10.6815 102.68 10.7279 102.559 10.7279H97.7411V9.39876C97.7411 9.26617 97.7925 9.15182 97.8953 9.05238C97.9897 8.94962 98.1057 8.89825 98.2416 8.89825H103.01V10.249Z" fill="black"/>
<path d="M48.9542 19.6377L16.6826 50L47.0449 17.7285C48.6376 16.0347 48.6973 13.4111 47.1825 11.6477L37.1821 0L48.9691 10.1197C50.6745 11.5831 53.192 11.5831 54.8957 10.1197L66.6826 0L56.563 11.7869C55.0995 13.4923 55.0995 16.0098 56.563 17.7135L66.6826 29.5005L55.0349 19.5002C53.2715 17.9837 50.648 18.0434 48.9542 19.6377Z" fill="black"/>
</svg>
