<svg width="152" height="46" viewBox="0 0 152 46" fill="none" xmlns="http://www.w3.org/2000/svg">
<path d="M16.3906 39.1032V27.6L23.4105 0L30.4369 27.6V39.1032L23.4105 46L16.3906 39.1032Z" fill="black"/>
<path d="M28.7925 12.2559L46.8209 23L33.3425 36.242L35.1189 25.3032L28.7925 12.2559Z" fill="black"/>
<path d="M0 23L18.0284 12.2559L11.7086 25.3032L13.4784 36.242L0 23Z" fill="black"/>
<path d="M22.2416 0L19.3162 8.05162L0 18.4L22.2416 0Z" fill="black"/>
<path d="M24.5859 0L27.5114 8.05162L46.821 18.4L24.5859 0Z" fill="black"/>
<path d="M60.3457 5.36568C60.3457 5.30549 60.3579 5.2459 60.3815 5.19037C60.4052 5.13484 60.4398 5.08449 60.4834 5.04223C60.5271 4.99997 60.5788 4.96665 60.6356 4.94421C60.6925 4.92178 60.7533 4.91066 60.8146 4.91152H68.1184C68.8155 4.90639 69.5068 5.03685 70.1523 5.29539C70.7979 5.55393 71.3849 5.93544 71.8797 6.41793C72.3745 6.90041 72.7672 7.47434 73.0352 8.10662C73.3031 8.7389 73.4411 9.41703 73.4411 10.1019C73.4089 11.1709 73.046 12.2049 72.4007 13.0661C71.7553 13.9273 70.8582 14.5749 69.8288 14.9225L73.1703 21.0213C73.2151 21.0917 73.2394 21.1729 73.2405 21.2559C73.2416 21.339 73.2195 21.4208 73.1766 21.4924C73.1337 21.5639 73.0717 21.6226 72.9972 21.6619C72.9227 21.7013 72.8387 21.7198 72.7543 21.7155H69.5052C69.427 21.7156 69.3501 21.696 69.2819 21.6585C69.2136 21.621 69.1564 21.5669 69.1156 21.5014L65.8665 15.1431H64.1825V21.2613C64.1792 21.3807 64.1294 21.4944 64.0434 21.5788C63.9575 21.6633 63.8418 21.7122 63.7203 21.7155H60.8146C60.7533 21.7163 60.6925 21.7052 60.6356 21.6828C60.5788 21.6603 60.5271 21.627 60.4834 21.5848C60.4398 21.5425 60.4052 21.4922 60.3815 21.4366C60.3579 21.3811 60.3457 21.3215 60.3457 21.2613V5.36568ZM67.8014 12.0873C68.3048 12.0559 68.777 11.837 69.1219 11.4754C69.4667 11.1137 69.6581 10.6364 69.6571 10.1409C69.6519 9.65891 69.4548 9.19812 69.1079 8.85731C68.761 8.5165 68.292 8.32279 67.8014 8.31773H64.1825V12.0613L67.8014 12.0873Z" fill="black"/>
<path d="M74.5176 21.0861L82.1648 4.9374C82.2018 4.86576 82.256 4.80409 82.3228 4.75773C82.3895 4.71137 82.4668 4.68173 82.5478 4.67139H82.7922C82.8791 4.67648 82.9631 4.70369 83.036 4.75032C83.109 4.79696 83.1683 4.86142 83.2082 4.9374L90.8818 21.0861C90.9268 21.1537 90.9511 21.2325 90.9518 21.3133C90.9525 21.394 90.9296 21.4733 90.8858 21.5416C90.8419 21.61 90.7791 21.6645 90.7046 21.6988C90.6302 21.733 90.5473 21.7455 90.4658 21.7349H87.7582C87.3158 21.7349 87.0979 21.5921 86.8998 21.138L86.0214 19.237H79.378L78.4997 21.1834C78.4334 21.3579 78.3129 21.5076 78.1553 21.6112C77.9977 21.7148 77.8109 21.7671 77.6214 21.7608H74.9337C74.8479 21.7764 74.7594 21.766 74.6799 21.7309C74.6003 21.6959 74.5335 21.6379 74.4884 21.5646C74.4432 21.4914 74.4218 21.4064 74.427 21.3209C74.4323 21.2354 74.4639 21.1535 74.5176 21.0861ZM84.529 15.9476L82.6733 11.9899L80.8441 15.9476H84.529Z" fill="black"/>
<path d="M92.8824 5.36558C92.8824 5.30539 92.8945 5.2458 92.9182 5.19027C92.9418 5.13474 92.9765 5.08439 93.0201 5.04213C93.0637 4.99987 93.1155 4.96655 93.1723 4.94411C93.2292 4.92168 93.29 4.91056 93.3512 4.91142H99.2352C100.68 4.91142 102.066 5.47536 103.088 6.47917C104.109 7.48298 104.683 8.84443 104.683 10.264C104.683 11.6836 104.109 13.0451 103.088 14.0489C102.066 15.0527 100.68 15.6166 99.2352 15.6166H96.6664V21.2547C96.663 21.3741 96.6133 21.4878 96.5273 21.5722C96.4413 21.6567 96.3256 21.7056 96.2041 21.7089H93.3248C93.2636 21.7097 93.2028 21.6986 93.1459 21.6762C93.0891 21.6538 93.0373 21.6204 92.9937 21.5782C92.95 21.5359 92.9154 21.4856 92.8918 21.43C92.8681 21.3745 92.856 21.3149 92.856 21.2547L92.8824 5.36558ZM99.0173 12.1131C99.2713 12.114 99.523 12.0654 99.7578 11.97C99.9926 11.8747 100.206 11.7346 100.385 11.5579C100.564 11.3811 100.706 11.1711 100.803 10.9401C100.899 10.7091 100.947 10.4617 100.946 10.2121C100.939 9.9707 100.883 9.73299 100.783 9.5127C100.682 9.29242 100.538 9.09392 100.358 8.92865C100.179 8.76339 99.9683 8.63463 99.7381 8.5498C99.508 8.46497 99.263 8.42576 99.0173 8.43441H96.6928V12.1066L99.0173 12.1131Z" fill="black"/>
<path d="M109.471 8.43433H105.978C105.917 8.43434 105.856 8.42238 105.799 8.39915C105.743 8.37592 105.692 8.34189 105.649 8.29902C105.606 8.25616 105.572 8.20533 105.549 8.14947C105.526 8.09362 105.515 8.03387 105.516 7.97368V5.37848C105.516 5.25803 105.564 5.14251 105.651 5.05734C105.738 4.97217 105.855 4.92432 105.978 4.92432H116.821C116.944 4.92432 117.062 4.97217 117.148 5.05734C117.235 5.14251 117.284 5.25803 117.284 5.37848V7.97368C117.285 8.03387 117.273 8.09362 117.25 8.14947C117.228 8.20533 117.194 8.25616 117.151 8.29902C117.108 8.34189 117.056 8.37592 117 8.39915C116.943 8.42238 116.883 8.43434 116.821 8.43433H113.328V21.2546C113.325 21.3741 113.275 21.4877 113.189 21.5722C113.103 21.6566 112.987 21.7055 112.866 21.7088H109.934C109.812 21.7055 109.696 21.6566 109.61 21.5722C109.524 21.4877 109.475 21.3741 109.471 21.2546V8.43433Z" fill="black"/>
<path d="M127.157 4.67143C128.897 4.6663 130.599 5.16829 132.049 6.1139C133.498 7.05952 134.63 8.40627 135.3 9.9838C135.971 11.5613 136.15 13.2988 135.815 14.9763C135.48 16.6539 134.646 18.1962 133.419 19.4082C132.192 20.6201 130.627 21.4473 128.921 21.7851C127.215 22.1229 125.446 21.956 123.837 21.3057C122.228 20.6553 120.851 19.5507 119.881 18.1315C118.911 16.7124 118.391 15.0424 118.387 13.3329C118.382 12.1979 118.605 11.073 119.043 10.0228C119.481 8.97254 120.126 8.01768 120.941 7.21296C121.756 6.40824 122.724 5.76949 123.791 5.33335C124.858 4.89721 126.001 4.67227 127.157 4.67143ZM127.157 18.1081C128.125 18.1132 129.074 17.8354 129.882 17.3098C130.689 16.7842 131.32 16.0346 131.693 15.1563C132.066 14.278 132.165 13.3105 131.977 12.3767C131.789 11.443 131.324 10.5851 130.639 9.91213C129.953 9.23912 129.08 8.78133 128.13 8.5969C127.18 8.41248 126.195 8.50974 125.301 8.87634C124.407 9.24294 123.644 9.86233 123.109 10.6558C122.574 11.4493 122.291 12.3812 122.296 13.3329C122.305 14.5968 122.82 15.8064 123.729 16.7001C124.639 17.5938 125.87 18.0996 127.157 18.1081Z" fill="black"/>
<path d="M138.905 5.36574C138.905 5.24529 138.954 5.12977 139.04 5.0446C139.127 4.95942 139.244 4.91158 139.367 4.91158H146.671C147.369 4.90558 148.061 5.0354 148.707 5.29356C149.353 5.55172 149.941 5.93309 150.436 6.41566C150.932 6.89823 151.325 7.47245 151.594 8.10515C151.862 8.73786 152 9.41653 152 10.102C152 12.3079 150.508 14.0856 148.381 14.9226L151.729 21.0213C151.774 21.0918 151.798 21.1729 151.8 21.256C151.801 21.3391 151.779 21.4208 151.736 21.4924C151.693 21.564 151.631 21.6226 151.556 21.662C151.482 21.7013 151.398 21.7198 151.313 21.7155H148.064C147.986 21.7177 147.908 21.6989 147.839 21.6612C147.771 21.6235 147.714 21.5683 147.675 21.5014L144.426 15.1432H142.742V21.2614C142.737 21.3814 142.685 21.495 142.598 21.5793C142.511 21.6637 142.395 21.7123 142.273 21.7155H139.341C139.28 21.7155 139.22 21.7038 139.164 21.681C139.108 21.6581 139.057 21.6247 139.014 21.5825C138.971 21.5403 138.937 21.4903 138.914 21.4352C138.89 21.3801 138.878 21.321 138.878 21.2614L138.905 5.36574ZM146.354 12.0873C146.857 12.0559 147.33 11.8371 147.674 11.4754C148.019 11.1137 148.211 10.6365 148.21 10.1409C148.206 9.65844 148.01 9.19669 147.662 8.85552C147.315 8.51435 146.845 8.32118 146.354 8.31778H142.742V12.0614L146.354 12.0873Z" fill="black"/>
<path d="M68.1578 27.3729C69.7923 27.334 71.3768 27.9283 72.5691 29.0273C72.6115 29.0698 72.6352 29.1268 72.6352 29.1863C72.6352 29.2457 72.6115 29.3028 72.5691 29.3452L72.2786 29.6502C72.1729 29.7605 72.0805 29.741 71.9748 29.6502C71.2873 29.0456 70.4607 28.614 69.566 28.3926C68.6713 28.1711 67.7352 28.1664 66.8383 28.3788C65.9413 28.5912 65.1102 29.0144 64.4164 29.612C63.7227 30.2096 63.187 30.9638 62.8554 31.8097C62.5238 32.6557 62.4062 33.568 62.5127 34.4685C62.6192 35.3689 62.9467 36.2304 63.4669 36.9791C63.9872 37.7277 64.6846 38.3411 65.4994 38.7665C66.3142 39.1918 67.2219 39.4165 68.1446 39.4211C69.5655 39.4012 70.9291 38.8677 71.9748 37.9224C72.0112 37.8839 72.06 37.8589 72.113 37.8518C72.166 37.8448 72.2198 37.8559 72.2654 37.8835L72.5691 38.1884C72.5905 38.2078 72.6076 38.2314 72.6193 38.2577C72.631 38.2839 72.637 38.3122 72.637 38.3409C72.637 38.3695 72.631 38.3978 72.6193 38.4241C72.6076 38.4503 72.5905 38.4739 72.5691 38.4933C71.3835 39.6192 69.7933 40.2394 68.1446 40.2191C67.2699 40.2465 66.3985 40.1008 65.5822 39.7908C64.7659 39.4808 64.0213 39.0128 63.3927 38.4146C62.7641 37.8163 62.2643 37.1001 61.923 36.3083C61.5816 35.5166 61.4058 34.6656 61.4058 33.8057C61.4058 32.9459 61.5816 32.0949 61.923 31.3032C62.2643 30.5114 62.7641 29.7952 63.3927 29.1969C64.0213 28.5987 64.7659 28.1307 65.5822 27.8207C66.3985 27.5107 67.2699 27.365 68.1446 27.3923L68.1578 27.3729Z" fill="black"/>
<path d="M77.0995 39.8104L82.6863 27.4053C82.7084 27.3678 82.7401 27.3366 82.7784 27.3149C82.8167 27.2933 82.8601 27.282 82.9042 27.2821H82.9571C83.0047 27.2766 83.0529 27.2855 83.0954 27.3075C83.1378 27.3295 83.1725 27.3636 83.1948 27.4053L88.7288 39.8104C88.7288 39.9142 88.7288 40.0245 88.5637 40.0245H88.0948C88.041 40.023 87.9885 40.007 87.9432 39.9785C87.8978 39.9499 87.8612 39.9098 87.8373 39.8623L86.3712 36.6183H79.4438L77.991 39.8623C77.967 39.9098 77.9304 39.9499 77.8851 39.9785C77.8397 40.007 77.7873 40.023 77.7334 40.0245H77.2249C77.0995 40.0245 77.0466 39.9532 77.0995 39.8104ZM86.0609 35.9176L82.9571 28.7419H82.924L79.7674 35.9176H86.0609Z" fill="black"/>
<path d="M94.1507 27.7817C94.1507 27.7198 94.1757 27.6604 94.2203 27.6166C94.2649 27.5728 94.3254 27.5482 94.3884 27.5482H98.2847C98.8357 27.5264 99.3856 27.6143 99.9013 27.8064C100.417 27.9986 100.888 28.2912 101.285 28.6666C101.683 29.0419 102 29.4924 102.216 29.9909C102.432 30.4894 102.543 31.0256 102.543 31.5675C102.543 32.1093 102.432 32.6456 102.216 33.1441C102 33.6426 101.683 34.093 101.285 34.4684C100.888 34.8438 100.417 35.1364 99.9013 35.3285C99.3856 35.5207 98.8357 35.6086 98.2847 35.5868H94.9828V39.791C94.9795 39.8252 94.9693 39.8584 94.9529 39.8886C94.9364 39.9189 94.9141 39.9457 94.8871 39.9674C94.86 39.9891 94.8289 40.0053 94.7955 40.0152C94.762 40.025 94.7269 40.0282 94.6922 40.0246H94.3686C94.3055 40.0246 94.2451 40 94.2005 39.9562C94.1559 39.9124 94.1309 39.853 94.1309 39.791L94.1507 27.7817ZM98.2516 34.7628C99.1274 34.7628 99.9672 34.4211 100.586 33.8127C101.206 33.2043 101.554 32.3792 101.554 31.5188C101.538 30.6728 101.182 29.8672 100.563 29.2787C99.9439 28.6901 99.1129 28.3665 98.2516 28.3786H95.0224V34.7563L98.2516 34.7628Z" fill="black"/>
<path d="M108.303 27.7817C108.303 27.751 108.309 27.7206 108.321 27.6923C108.333 27.6639 108.35 27.6382 108.372 27.6165C108.394 27.5948 108.421 27.5776 108.449 27.5659C108.478 27.5541 108.509 27.5481 108.54 27.5481H108.937C108.999 27.5497 109.059 27.5749 109.103 27.6183C109.147 27.6618 109.173 27.7202 109.174 27.7817V39.791C109.171 39.8552 109.142 39.9156 109.094 39.9593C109.046 40.0029 108.982 40.0263 108.917 40.0245H108.54C108.477 40.0245 108.417 39.9999 108.372 39.9561C108.328 39.9123 108.303 39.8529 108.303 39.791V27.7817Z" fill="black"/>
<path d="M118.347 28.3138H114.906C114.728 28.3138 114.669 28.21 114.669 28.0478V27.7818C114.668 27.7508 114.673 27.7201 114.685 27.6913C114.696 27.6626 114.714 27.6365 114.736 27.6146C114.758 27.5927 114.785 27.5756 114.814 27.5641C114.843 27.5527 114.875 27.5473 114.906 27.5482H122.705C122.737 27.5473 122.768 27.5527 122.797 27.5641C122.827 27.5756 122.853 27.5927 122.876 27.6146C122.898 27.6365 122.915 27.6626 122.927 27.6913C122.939 27.7201 122.944 27.7508 122.943 27.7818V28.0802C122.944 28.1111 122.939 28.1419 122.927 28.1706C122.915 28.1994 122.898 28.2255 122.876 28.2474C122.853 28.2692 122.827 28.2864 122.797 28.2978C122.768 28.3092 122.737 28.3147 122.705 28.3138H119.199V39.7911C119.195 39.8252 119.185 39.8584 119.169 39.8886C119.152 39.9189 119.13 39.9457 119.103 39.9674C119.076 39.9891 119.045 40.0053 119.011 40.0152C118.978 40.025 118.943 40.0282 118.908 40.0246H118.578C118.516 40.0229 118.457 39.9976 118.414 39.954C118.371 39.9103 118.347 39.8519 118.347 39.7911V28.3138Z" fill="black"/>
<path d="M125.836 39.8104L131.416 27.4053C131.438 27.3673 131.469 27.3358 131.508 27.314C131.546 27.2923 131.59 27.2813 131.634 27.2821H131.687C131.735 27.2766 131.783 27.2855 131.825 27.3075C131.868 27.3295 131.902 27.3636 131.925 27.4053L137.459 39.8104C137.492 39.9142 137.492 40.0245 137.294 40.0245H136.818C136.765 40.0225 136.714 40.0063 136.67 39.9777C136.625 39.9492 136.59 39.9092 136.567 39.8623L135.101 36.6183H128.167L126.721 39.8623C126.696 39.9089 126.659 39.9483 126.614 39.9768C126.569 40.0052 126.517 40.0216 126.463 40.0245H125.955C125.836 40.0245 125.783 39.9532 125.836 39.8104ZM134.797 35.9176L131.693 28.7419L128.537 35.9176H134.797Z" fill="black"/>
<path d="M142.887 27.7817C142.887 27.7208 142.911 27.6624 142.954 27.6188C142.997 27.5751 143.056 27.5498 143.118 27.5481H143.521C143.58 27.5544 143.634 27.5816 143.674 27.6245C143.715 27.6675 143.737 27.7234 143.739 27.7817V39.2719H149.524C149.741 39.2719 149.761 39.3822 149.761 39.5055V39.8234C149.761 39.8525 149.754 39.881 149.741 39.9073C149.728 39.9336 149.71 39.9569 149.688 39.9759C149.666 39.9948 149.639 40.009 149.611 40.0173C149.583 40.0257 149.553 40.0282 149.524 40.0245H143.118C143.056 40.0228 142.997 39.9975 142.954 39.9539C142.911 39.9103 142.887 39.8518 142.887 39.791V27.7817Z" fill="black"/>
</svg>
