<svg width="500" height="200" viewBox="0 0 500 200" fill="none" xmlns="http://www.w3.org/2000/svg">
<path d="M128.943 98.6451L138.546 113.495L142.081 73.9481L128.457 89.6043L128.943 98.6451Z" fill="white"/>
<path d="M150.392 66.0958L141.025 117.336L143.029 120.433C143.403 121.009 143.83 121.554 144.339 122.015C145.106 122.707 145.974 123.218 146.891 123.555L172.847 40.4602L150.392 66.0958Z" fill="white"/>
<path d="M139.359 125.776L139.626 125.562L139.444 125.343L139.359 125.776Z" fill="white"/>
<path d="M92.3958 73.541L137.763 128.918L136.529 129.901L93.1209 84.917L96.4735 105.331L128.508 135.809L127.466 136.686L97.0609 114.956L99.104 131.725L114.28 139.648C117.219 140.806 117.346 144.92 114.485 146.257L92.4435 159.149L113.465 159.986L141.579 145.62L159.646 136.385L159.694 136.363C161.363 135.632 164.59 134.171 167.366 132.613C171.323 130.388 173.872 134.347 173.872 134.347C175.724 130.219 169.904 126.507 164.154 124.07C164.075 124.037 164.002 124.006 163.926 123.978C166.121 125.7 168.165 127.603 169.022 129.238C168.816 129.112 162.243 125.043 154.436 123.927C151.6 128.305 144.982 128.693 141.556 124.385L87 40L92.3958 73.541Z" fill="white"/>
<path d="M209.594 120.409H204.848V134.77H195.76V93.7354H211.355C214.601 93.7354 217.346 94.3631 219.591 95.6137C221.837 96.8642 223.508 98.5136 224.604 100.567C225.7 102.621 226.243 104.84 226.243 107.219C226.243 109.879 225.578 112.268 224.247 114.402C222.917 116.53 220.965 118.126 218.384 119.18L227.179 134.775H217.628L209.594 120.409ZM204.848 112.965H209.892C212.004 112.965 213.781 112.523 215.229 111.645C216.676 110.767 217.4 109.294 217.4 107.219C217.4 105.223 216.687 103.808 215.26 102.967C213.834 102.127 212.047 101.706 209.897 101.706H204.853V112.965H204.848Z" fill="white"/>
<path d="M241.313 101.706V110.443H256.908V117.536H241.313V126.799H259.839V134.77H232.107V93.7354H259.834V101.706H241.313Z" fill="white"/>
<path d="M265.285 93.6766H281.465C285.099 93.6766 288.303 94.4907 291.08 96.1082C293.852 97.7311 296.013 100.078 297.555 103.142C299.098 106.213 299.87 109.873 299.87 114.135C299.87 118.471 299.088 122.185 297.524 125.272C295.959 128.358 293.783 130.704 290.985 132.306C288.191 133.907 284.977 134.711 281.343 134.711H265.279V93.6766H265.285ZM279.646 126.506C282.849 126.506 285.392 125.591 287.265 123.75C289.143 121.914 290.08 118.711 290.08 114.135C290.08 109.565 289.149 106.356 287.297 104.52C285.44 102.685 282.891 101.764 279.646 101.764H274.133V126.506H279.646Z" fill="white"/>
<path d="M313.002 93.7354H317.046V112.438H317.338L334.221 93.7354H339.382L322.792 111.496L340.909 134.77H336.099L320.329 114.487L317.046 118.004V134.77H313.002V93.7354Z" fill="white"/>
<path d="M345.711 93.7354H349.814V134.77H345.711V93.7354Z" fill="white"/>
<path d="M382.767 97.4282H370.337V134.77H366.294V97.4282H353.864V93.7354H382.767V97.4282Z" fill="white"/>
<path d="M390.319 97.4282V112.082H408.616V115.482H390.319V131.077H410.956V134.77H386.275V93.7354H410.956V97.4282H390.319Z" fill="white"/>
</svg>
