<svg width="500" height="200" viewBox="0 0 500 200" fill="none" xmlns="http://www.w3.org/2000/svg">
<path d="M94.0001 150C121.614 150 144 127.614 144 100C144 72.3858 121.614 50 94.0001 50C66.3858 50 44 72.3858 44 100C44 127.614 66.3858 150 94.0001 150Z" fill="white"/>
<path fill-rule="evenodd" clip-rule="evenodd" d="M91.8102 106.437H109.184C110.619 106.437 111.809 107.562 111.809 109.062V126.436C111.809 127.872 110.684 129.061 109.184 129.061H91.8102C90.3743 129.061 89.1848 127.936 89.1848 126.436V108.937C89.1848 107.562 90.2493 106.437 91.8102 106.437Z" fill="black"/>
<path fill-rule="evenodd" clip-rule="evenodd" d="M100.372 95.0597L110.87 81.1218C111.805 79.9966 113.37 79.6861 114.495 80.6217L128.433 91.1193C129.558 92.0552 129.869 93.6197 128.933 94.7451L118.436 108.558C117.5 109.683 115.935 109.994 114.81 109.058L100.872 98.5601C99.7469 97.7496 99.5614 96.1847 100.372 95.0597Z" fill="black"/>
<path fill-rule="evenodd" clip-rule="evenodd" d="M71.0609 102.811L86.6239 110.687C87.9347 111.312 88.4347 112.938 87.7493 114.123L79.8728 129.686C79.2477 130.997 77.6225 131.497 76.4368 130.811L60.8738 122.935C59.5631 122.31 59.063 120.685 59.7486 119.499L67.6249 103.936C68.25 102.621 69.7502 102.121 71.0609 102.811Z" fill="black"/>
<path d="M176.078 80.2512V117.11H184.183V80.2512H176.078Z" fill="white"/>
<path d="M208.7 99.8164H215.875C215.772 98.0956 215.359 96.6157 214.636 95.3768C213.914 94.1034 212.967 93.0537 211.797 92.2278C210.662 91.3674 209.354 90.7307 207.874 90.3177C206.428 89.9047 204.914 89.6982 203.331 89.6982C201.163 89.6982 199.236 90.0596 197.549 90.7823C195.863 91.505 194.435 92.5203 193.264 93.8281C192.094 95.1014 191.2 96.6329 190.58 98.4225C189.995 100.178 189.703 102.088 189.703 104.153C189.703 106.149 190.029 107.99 190.683 109.676C191.337 111.328 192.249 112.757 193.419 113.961C194.59 115.166 196.001 116.112 197.652 116.8C199.339 117.454 201.18 117.781 203.176 117.781C206.721 117.781 209.629 116.852 211.9 114.994C214.172 113.135 215.549 110.434 216.03 106.889H208.958C208.717 108.541 208.115 109.866 207.151 110.864C206.222 111.827 204.88 112.309 203.125 112.309C201.989 112.309 201.025 112.051 200.234 111.535C199.442 111.019 198.805 110.365 198.324 109.573C197.876 108.747 197.549 107.835 197.343 106.837C197.136 105.839 197.033 104.858 197.033 103.895C197.033 102.897 197.136 101.898 197.343 100.9C197.549 99.868 197.893 98.9388 198.375 98.1128C198.891 97.2524 199.545 96.5641 200.337 96.0479C201.128 95.4972 202.109 95.2219 203.279 95.2219C206.411 95.2219 208.218 96.7534 208.7 99.8164Z" fill="white"/>
<path d="M238.136 100.9H226.211C226.246 100.384 226.349 99.7992 226.521 99.1453C226.728 98.4914 227.055 97.8719 227.502 97.2868C227.984 96.7018 228.603 96.22 229.36 95.8414C230.152 95.4284 231.133 95.2219 232.303 95.2219C234.093 95.2219 235.418 95.7037 236.278 96.6674C237.173 97.631 237.792 99.042 238.136 100.9ZM226.211 105.547H245.467C245.604 103.482 245.432 101.503 244.951 99.6099C244.469 97.717 243.677 96.0307 242.576 94.5508C241.509 93.0709 240.132 91.9008 238.446 91.0404C236.76 90.1456 234.781 89.6982 232.509 89.6982C230.479 89.6982 228.62 90.0596 226.934 90.7823C225.282 91.505 223.854 92.5031 222.649 93.7765C221.445 95.0154 220.516 96.4953 219.862 98.216C219.208 99.9368 218.881 101.795 218.881 103.791C218.881 105.856 219.191 107.749 219.81 109.47C220.464 111.191 221.376 112.671 222.546 113.909C223.716 115.148 225.144 116.112 226.831 116.8C228.517 117.454 230.41 117.781 232.509 117.781C235.538 117.781 238.119 117.093 240.253 115.716C242.387 114.34 243.97 112.051 245.002 108.85H238.549C238.308 109.676 237.655 110.468 236.588 111.225C235.521 111.948 234.247 112.309 232.768 112.309C230.703 112.309 229.12 111.776 228.018 110.709C226.917 109.642 226.315 107.921 226.211 105.547Z" fill="white"/>
<path d="M259.107 90.4209V82.4194H251.776V90.4209H247.337V95.3251H251.776V111.07C251.776 112.412 252 113.497 252.447 114.322C252.895 115.148 253.497 115.785 254.254 116.233C255.046 116.68 255.94 116.972 256.938 117.11C257.971 117.282 259.055 117.368 260.191 117.368C260.913 117.368 261.653 117.351 262.411 117.317C263.168 117.282 263.856 117.213 264.475 117.11V111.432C264.131 111.5 263.77 111.552 263.391 111.586C263.013 111.621 262.617 111.638 262.204 111.638C260.965 111.638 260.139 111.432 259.726 111.019C259.313 110.606 259.107 109.78 259.107 108.541V95.3251H264.475V90.4209H259.107Z" fill="white"/>
<path d="M285.928 100.9H274.003C274.038 100.384 274.141 99.7992 274.313 99.1453C274.519 98.4914 274.846 97.8719 275.294 97.2868C275.776 96.7018 276.395 96.22 277.152 95.8414C277.944 95.4284 278.925 95.2219 280.095 95.2219C281.884 95.2219 283.209 95.7037 284.07 96.6674C284.964 97.631 285.584 99.042 285.928 100.9ZM274.003 105.547H293.259C293.396 103.482 293.224 101.503 292.742 99.6099C292.261 97.717 291.469 96.0307 290.368 94.5508C289.301 93.0709 287.924 91.9008 286.238 91.0404C284.552 90.1456 282.573 89.6982 280.301 89.6982C278.271 89.6982 276.412 90.0596 274.726 90.7823C273.074 91.505 271.646 92.5031 270.441 93.7765C269.237 95.0154 268.307 96.4953 267.654 98.216C267 99.9368 266.673 101.795 266.673 103.791C266.673 105.856 266.982 107.749 267.602 109.47C268.256 111.191 269.168 112.671 270.338 113.909C271.508 115.148 272.936 116.112 274.623 116.8C276.309 117.454 278.202 117.781 280.301 117.781C283.33 117.781 285.911 117.093 288.045 115.716C290.178 114.34 291.762 112.051 292.794 108.85H286.341C286.1 109.676 285.446 110.468 284.379 111.225C283.313 111.948 282.039 112.309 280.559 112.309C278.494 112.309 276.911 111.776 275.81 110.709C274.709 109.642 274.106 107.921 274.003 105.547Z" fill="white"/>
<path d="M297.297 98.629C297.4 96.9083 297.83 95.48 298.587 94.3443C299.344 93.2086 300.308 92.2966 301.478 91.6083C302.648 90.92 303.956 90.4382 305.401 90.1628C306.881 89.8531 308.361 89.6982 309.841 89.6982C311.183 89.6982 312.543 89.8015 313.919 90.008C315.296 90.18 316.552 90.5414 317.688 91.092C318.823 91.6427 319.753 92.417 320.475 93.4151C321.198 94.3787 321.559 95.6693 321.559 97.2868V111.173C321.559 112.378 321.628 113.531 321.766 114.632C321.904 115.734 322.144 116.559 322.489 117.11H315.055C314.917 116.697 314.797 116.284 314.694 115.871C314.625 115.424 314.573 114.976 314.539 114.529C313.369 115.734 311.992 116.577 310.409 117.059C308.826 117.54 307.208 117.781 305.556 117.781C304.283 117.781 303.096 117.626 301.994 117.317C300.893 117.007 299.929 116.525 299.103 115.871C298.277 115.217 297.623 114.391 297.142 113.393C296.694 112.395 296.471 111.208 296.471 109.831C296.471 108.317 296.729 107.078 297.245 106.114C297.796 105.116 298.484 104.325 299.31 103.74C300.17 103.155 301.134 102.724 302.201 102.449C303.302 102.139 304.403 101.898 305.505 101.726C306.606 101.554 307.69 101.417 308.757 101.313C309.824 101.21 310.77 101.055 311.596 100.849C312.422 100.642 313.076 100.35 313.558 99.9712C314.04 99.5583 314.263 98.9732 314.229 98.216C314.229 97.4245 314.091 96.805 313.816 96.3576C313.575 95.8758 313.231 95.5144 312.783 95.2735C312.37 94.9982 311.871 94.8261 311.286 94.7573C310.736 94.654 310.133 94.6024 309.48 94.6024C308.034 94.6024 306.898 94.9122 306.072 95.5316C305.246 96.1511 304.765 97.1836 304.627 98.629H297.297ZM314.229 104.049C313.919 104.325 313.523 104.548 313.042 104.721C312.594 104.858 312.095 104.979 311.544 105.082C311.028 105.185 310.478 105.271 309.893 105.34C309.307 105.409 308.722 105.495 308.137 105.598C307.587 105.701 307.036 105.839 306.485 106.011C305.969 106.183 305.505 106.424 305.092 106.734C304.713 107.009 304.403 107.371 304.162 107.818C303.922 108.265 303.801 108.833 303.801 109.522C303.801 110.175 303.922 110.726 304.162 111.173C304.403 111.621 304.73 111.982 305.143 112.258C305.556 112.498 306.038 112.671 306.589 112.774C307.139 112.877 307.707 112.929 308.292 112.929C309.738 112.929 310.856 112.688 311.648 112.206C312.439 111.724 313.024 111.156 313.403 110.502C313.781 109.814 314.005 109.126 314.074 108.437C314.177 107.749 314.229 107.198 314.229 106.785V104.049Z" fill="white"/>
<path d="M342.391 80.2512V117.11H368.461V110.296H350.496V80.2512H342.391Z" fill="white"/>
<path d="M371.908 98.629C372.011 96.9083 372.442 95.48 373.199 94.3443C373.956 93.2086 374.92 92.2966 376.09 91.6083C377.26 90.92 378.568 90.4382 380.013 90.1628C381.493 89.8531 382.973 89.6982 384.453 89.6982C385.795 89.6982 387.154 89.8015 388.531 90.008C389.907 90.18 391.164 90.5414 392.299 91.092C393.435 91.6427 394.364 92.417 395.087 93.4151C395.81 94.3787 396.171 95.6693 396.171 97.2868V111.173C396.171 112.378 396.24 113.531 396.378 114.632C396.515 115.734 396.756 116.559 397.1 117.11H389.667C389.529 116.697 389.408 116.284 389.305 115.871C389.236 115.424 389.185 114.976 389.15 114.529C387.98 115.734 386.604 116.577 385.02 117.059C383.437 117.54 381.82 117.781 380.168 117.781C378.894 117.781 377.707 117.626 376.606 117.317C375.505 117.007 374.541 116.525 373.715 115.871C372.889 115.217 372.235 114.391 371.753 113.393C371.306 112.395 371.082 111.208 371.082 109.831C371.082 108.317 371.34 107.078 371.857 106.114C372.407 105.116 373.095 104.325 373.921 103.74C374.782 103.155 375.745 102.724 376.812 102.449C377.914 102.139 379.015 101.898 380.116 101.726C381.218 101.554 382.302 101.417 383.368 101.313C384.435 101.21 385.382 101.055 386.208 100.849C387.034 100.642 387.688 100.35 388.169 99.9712C388.651 99.5583 388.875 98.9732 388.841 98.216C388.841 97.4245 388.703 96.805 388.428 96.3576C388.187 95.8758 387.843 95.5144 387.395 95.2735C386.982 94.9982 386.483 94.8261 385.898 94.7573C385.347 94.654 384.745 94.6024 384.091 94.6024C382.646 94.6024 381.51 94.9122 380.684 95.5316C379.858 96.1511 379.376 97.1836 379.239 98.629H371.908ZM388.841 104.049C388.531 104.325 388.135 104.548 387.653 104.721C387.206 104.858 386.707 104.979 386.156 105.082C385.64 105.185 385.089 105.271 384.504 105.34C383.919 105.409 383.334 105.495 382.749 105.598C382.198 105.701 381.648 105.839 381.097 106.011C380.581 106.183 380.116 106.424 379.703 106.734C379.325 107.009 379.015 107.371 378.774 107.818C378.533 108.265 378.413 108.833 378.413 109.522C378.413 110.175 378.533 110.726 378.774 111.173C379.015 111.621 379.342 111.982 379.755 112.258C380.168 112.498 380.65 112.671 381.2 112.774C381.751 112.877 382.319 112.929 382.904 112.929C384.349 112.929 385.468 112.688 386.259 112.206C387.051 111.724 387.636 111.156 388.015 110.502C388.393 109.814 388.617 109.126 388.686 108.437C388.789 107.749 388.841 107.198 388.841 106.785V104.049Z" fill="white"/>
<path d="M421.426 103.791C421.426 104.893 421.306 105.96 421.065 106.992C420.824 108.024 420.445 108.936 419.929 109.728C419.413 110.52 418.759 111.156 417.967 111.638C417.21 112.085 416.281 112.309 415.18 112.309C414.113 112.309 413.184 112.085 412.392 111.638C411.6 111.156 410.947 110.52 410.43 109.728C409.914 108.936 409.536 108.024 409.295 106.992C409.054 105.96 408.933 104.893 408.933 103.791C408.933 102.656 409.054 101.572 409.295 100.539C409.536 99.5066 409.914 98.5946 410.43 97.8031C410.947 97.0115 411.6 96.392 412.392 95.9446C413.184 95.4628 414.113 95.2219 415.18 95.2219C416.281 95.2219 417.21 95.4628 417.967 95.9446C418.759 96.392 419.413 97.0115 419.929 97.8031C420.445 98.5946 420.824 99.5066 421.065 100.539C421.306 101.572 421.426 102.656 421.426 103.791ZM401.861 80.2512V117.11H408.83V113.703H408.933C409.725 115.183 410.895 116.233 412.444 116.852C413.992 117.471 415.748 117.781 417.709 117.781C419.051 117.781 420.376 117.506 421.684 116.955C422.992 116.405 424.162 115.561 425.195 114.426C426.261 113.29 427.122 111.845 427.776 110.089C428.43 108.3 428.757 106.183 428.757 103.74C428.757 101.296 428.43 99.1969 427.776 97.4417C427.122 95.6521 426.261 94.1894 425.195 93.0537C424.162 91.918 422.992 91.0748 421.684 90.5242C420.376 89.9735 419.051 89.6982 417.709 89.6982C416.057 89.6982 414.457 90.0252 412.908 90.6791C411.394 91.2985 410.189 92.2966 409.295 93.6732H409.191V80.2512H401.861Z" fill="white"/>
<path d="M439.098 108.437H432.129C432.198 110.227 432.594 111.724 433.316 112.929C434.073 114.099 435.02 115.045 436.156 115.768C437.326 116.491 438.651 117.007 440.131 117.317C441.61 117.626 443.125 117.781 444.673 117.781C446.188 117.781 447.668 117.626 449.113 117.317C450.593 117.041 451.901 116.542 453.036 115.82C454.172 115.097 455.084 114.15 455.772 112.98C456.495 111.776 456.857 110.296 456.857 108.541C456.857 107.302 456.616 106.269 456.134 105.443C455.652 104.583 455.015 103.877 454.224 103.327C453.432 102.742 452.52 102.277 451.488 101.933C450.49 101.589 449.457 101.296 448.39 101.055C447.358 100.814 446.343 100.591 445.345 100.384C444.346 100.178 443.452 99.954 442.66 99.7131C441.903 99.4378 441.284 99.0936 440.802 98.6807C440.32 98.2677 440.079 97.7342 440.079 97.0803C440.079 96.5297 440.217 96.0995 440.492 95.7898C440.767 95.4456 441.094 95.1875 441.473 95.0154C441.886 94.8433 442.333 94.7401 442.815 94.7057C443.297 94.6368 443.744 94.6024 444.157 94.6024C445.465 94.6024 446.601 94.8605 447.564 95.3768C448.528 95.8586 449.061 96.805 449.165 98.216H456.134C455.996 96.5641 455.566 95.2047 454.843 94.1378C454.155 93.0365 453.277 92.1589 452.21 91.505C451.144 90.8511 449.922 90.3865 448.545 90.1112C447.203 89.8359 445.809 89.6982 444.364 89.6982C442.918 89.6982 441.507 89.8359 440.131 90.1112C438.754 90.3521 437.515 90.7995 436.414 91.4534C435.312 92.0729 434.418 92.9333 433.729 94.0346C433.075 95.1359 432.748 96.5469 432.748 98.2677C432.748 99.4378 432.989 100.436 433.471 101.262C433.953 102.053 434.59 102.724 435.381 103.275C436.173 103.791 437.068 104.222 438.066 104.566C439.098 104.875 440.148 105.151 441.215 105.392C443.83 105.942 445.861 106.493 447.306 107.044C448.786 107.594 449.526 108.42 449.526 109.522C449.526 110.175 449.371 110.726 449.061 111.173C448.752 111.586 448.356 111.931 447.874 112.206C447.427 112.447 446.91 112.636 446.325 112.774C445.775 112.877 445.241 112.929 444.725 112.929C444.002 112.929 443.297 112.843 442.609 112.671C441.955 112.498 441.37 112.24 440.853 111.896C440.337 111.518 439.907 111.053 439.563 110.502C439.253 109.917 439.098 109.229 439.098 108.437Z" fill="white"/>
</svg>
