<svg width="500" height="200" viewBox="0 0 500 200" fill="none" xmlns="http://www.w3.org/2000/svg">
<path d="M188.963 76.5946H183.028V97.7814H188.963V76.5946ZM185.996 66C185.047 66 184.224 66.3326 183.482 66.9543C182.74 67.5786 182.369 68.451 182.369 69.5716C182.369 70.1115 182.452 70.6104 182.7 71.0249C182.864 71.4828 183.154 71.8564 183.482 72.189C183.813 72.4806 184.184 72.7288 184.635 72.8951C185.09 73.0614 185.541 73.1433 185.996 73.1433C186.945 73.1433 187.81 72.8107 188.552 72.189C189.254 71.5237 189.625 70.6513 189.625 69.5716C189.625 68.451 189.254 67.5786 188.552 66.9543C187.808 66.3326 186.942 66 185.996 66Z" fill="white"/>
<path d="M216.222 68.4136H210.326V77.5934C209.625 77.0945 208.759 76.721 207.813 76.4728C206.864 76.2246 205.875 76.0992 204.885 76.0992C203.318 76.0992 201.834 76.3474 200.474 76.8898C199.114 77.4322 197.918 78.1767 196.928 79.0927C195.899 80.0905 195.114 81.252 194.538 82.6234C193.961 83.9947 193.673 85.5324 193.673 87.2338C193.673 88.9786 193.92 90.5163 194.415 91.8876C194.909 93.259 195.611 94.3796 196.517 95.3774C197.423 96.2908 198.496 97.0404 199.815 97.5368C201.052 98.0357 202.496 98.2838 204.06 98.2838C205.584 98.2838 206.904 97.9922 208.141 97.4523C209.294 96.9125 210.326 96.04 211.109 94.8759L211.563 97.7849H216.222V68.4136V68.4136ZM210.326 82.8281V89.017C209.955 90.3474 209.254 91.3427 208.224 92.0488C207.195 92.755 205.998 93.0876 204.638 93.0876C203.937 93.0876 203.278 92.9622 202.7 92.6731C202.041 92.3814 201.547 92.0079 201.052 91.468C200.641 90.9691 200.27 90.3474 199.979 89.6413C199.692 88.8942 199.568 88.0627 199.568 87.1493C199.568 85.3226 200.103 83.9077 201.135 82.8281C202.208 81.8302 203.649 81.2904 205.463 81.2904C207.399 81.2904 209.007 81.7893 210.326 82.8281Z" fill="white"/>
<path d="M232.426 76.0981C230.735 76.0981 229.171 76.3898 227.767 76.9296C226.364 77.4695 225.171 78.2601 224.141 79.2144C223.111 80.1687 222.326 81.3328 221.791 82.745C221.213 84.0755 220.926 85.5696 220.926 87.1891C220.926 88.8496 221.213 90.3872 221.791 91.7176C222.326 93.1299 223.111 94.294 224.141 95.2483C225.171 96.2052 226.367 96.9522 227.767 97.4921C229.168 98.0319 230.735 98.2826 232.426 98.2826C234.074 98.2826 235.601 98.0345 237.001 97.4511C238.402 96.9522 239.598 96.1642 240.671 95.2074C241.66 94.2096 242.485 93.048 243.061 91.6767C243.639 90.3053 243.926 88.8086 243.926 87.1891C243.926 85.5261 243.639 84.032 243.061 82.6606C242.526 81.2893 241.741 80.1277 240.711 79.1709C239.682 78.1731 238.485 77.426 237.042 76.8862C235.641 76.3463 234.117 76.0981 232.426 76.0981ZM232.426 81.3328C234.157 81.3328 235.518 81.8726 236.547 82.9113C237.536 83.991 238.031 85.4033 238.031 87.1891C238.031 88.9749 237.536 90.4281 236.547 91.4669C235.558 92.5465 234.198 93.0864 232.426 93.0864C230.695 93.0864 229.335 92.5465 228.305 91.4669C227.275 90.4281 226.781 88.9749 226.781 87.1891C226.781 85.4442 227.275 84.032 228.305 82.9523C229.294 81.8726 230.654 81.3328 232.426 81.3328Z" fill="white"/>
<path d="M253.343 76.5944H248.601V97.7811H254.496V85.5695C254.907 84.4054 255.568 83.4511 256.515 82.704C257.421 81.9569 258.493 81.5834 259.73 81.5834C260.679 81.5834 261.545 81.7497 262.287 81.9979C263.069 82.3305 263.73 82.704 264.265 83.2029L267.687 78.6335C266.905 77.8864 265.916 77.2621 264.76 76.8067C263.606 76.3488 262.37 76.1006 261.01 76.1006C259.238 76.1006 257.711 76.4332 256.515 77.0984C255.319 77.8045 254.372 78.7614 253.711 80.0074L253.343 76.5944Z" fill="white"/>
<path d="M275.086 89.1014H290.42C290.543 88.6435 290.627 88.1881 290.667 87.6891C290.75 87.1902 290.791 86.6913 290.791 86.1924C290.791 84.6548 290.543 83.2834 290.049 82.0784C289.554 80.8324 288.853 79.7527 287.947 78.8803C287.081 78.0079 286.008 77.3017 284.731 76.8438C283.495 76.3448 282.135 76.0967 280.651 76.0967C278.92 76.0967 277.352 76.3883 275.911 76.9691C274.511 77.5499 273.314 78.3405 272.285 79.3383C271.296 80.3361 270.554 81.4976 269.976 82.869C269.481 84.2403 269.193 85.6935 269.193 87.2312C269.193 88.8942 269.441 90.3883 269.976 91.7597C270.47 93.131 271.212 94.2951 272.161 95.2495C273.11 96.2063 274.304 96.9534 275.747 97.4932C277.191 98.0331 278.798 98.2838 280.653 98.2838C282.549 98.2838 284.282 98.0766 285.847 97.6186C287.414 97.1606 288.898 96.4571 290.342 95.4183L287.825 91.097C285.887 92.4275 283.581 93.0901 280.984 93.0901C279.212 93.0901 277.849 92.7166 276.903 91.9695C275.909 91.2198 275.29 90.2655 275.086 89.1014ZM284.772 84.7392H275.25C275.621 83.6186 276.199 82.7462 277.065 82.1219C277.89 81.4976 279.043 81.1676 280.487 81.1676C281.93 81.1676 282.96 81.5002 283.661 82.1654C284.36 82.828 284.731 83.7005 284.772 84.7392Z" fill="white"/>
<path d="M311.288 82.786L313.638 78.3419C311.124 76.8452 308.114 76.0981 304.611 76.0981C301.603 76.0981 299.253 76.7224 297.603 78.0093C295.995 79.2553 295.17 80.9183 295.17 83.0367C295.17 84.9888 295.748 86.5264 296.901 87.5652C298.054 88.6039 299.662 89.2691 301.724 89.4764L306.463 90.0162C307.246 90.0981 307.824 90.2644 308.194 90.4742C308.565 90.7223 308.73 91.0984 308.73 91.5538C308.73 92.1346 308.359 92.5516 307.657 92.8842C306.955 93.1324 305.802 93.2987 304.235 93.2987C302.915 93.2987 301.638 93.1324 300.401 92.8407C299.165 92.5491 297.928 92.0092 296.692 91.3031L294.466 95.7062C295.99 96.6605 297.557 97.3667 299.082 97.6993C300.606 98.1137 302.297 98.28 304.111 98.28C307.367 98.28 309.883 97.6558 311.697 96.4533C313.552 95.2073 314.458 93.4624 314.458 91.2187C314.458 89.1847 313.8 87.6471 312.439 86.6493C311.079 85.6515 309.224 84.9888 306.832 84.6971L302.834 84.2392C301.557 84.0729 300.939 83.574 300.939 82.786C300.939 81.6654 302.135 81.123 304.525 81.123C307.001 81.123 309.27 81.6628 311.288 82.786Z" fill="white"/>
<path d="M324.196 89.1014H339.53C339.653 88.6435 339.737 88.1881 339.777 87.6891C339.86 87.1902 339.901 86.6913 339.901 86.1924C339.901 84.6548 339.653 83.2834 339.159 82.0784C338.664 80.8324 337.963 79.7527 337.057 78.8803C336.191 78.0079 335.118 77.3017 333.841 76.8438C332.605 76.3448 331.245 76.0967 329.761 76.0967C328.029 76.0967 326.462 76.3883 325.021 76.9691C323.621 77.5499 322.424 78.3405 321.392 79.3383C320.403 80.3361 319.661 81.4976 319.083 82.869C318.588 84.2403 318.301 85.6935 318.301 87.2312C318.301 88.8942 318.548 90.3883 319.083 91.7597C319.578 93.131 320.32 94.2951 321.269 95.2495C322.217 96.2063 323.411 96.9534 324.855 97.4932C326.298 98.0331 327.906 98.2838 329.761 98.2838C331.656 98.2838 333.387 98.0766 334.954 97.6186C336.522 97.1606 338.005 96.4571 339.446 95.4183L336.933 91.097C334.995 92.4275 332.688 93.0901 330.089 93.0901C328.317 93.0901 326.957 92.7166 326.008 91.9695C325.021 91.2198 324.4 90.2655 324.196 89.1014ZM333.882 84.7392H324.36C324.731 83.6186 325.309 82.7462 326.175 82.1219C327 81.4976 328.153 81.1676 329.597 81.1676C331.04 81.1676 332.07 81.5002 332.771 82.1654C333.47 82.828 333.841 83.7005 333.882 84.7392Z" fill="white"/>
<path d="M344.403 78.5912L346.712 82.9125C348.898 81.8737 351.164 81.3339 353.513 81.3339C354.833 81.3339 355.822 81.582 356.441 82.0809C357.059 82.6208 357.39 83.3269 357.39 84.2403V84.9055C356.771 84.7392 356.113 84.6138 355.368 84.491C354.71 84.3657 353.925 84.3247 353.059 84.3247C351.575 84.3247 350.255 84.491 349.019 84.7392C347.865 85.0718 346.793 85.4863 345.968 86.0696C345.062 86.6504 344.4 87.3565 343.949 88.229C343.494 89.1014 343.247 90.0992 343.247 91.2198C343.247 93.5045 343.989 95.2904 345.39 96.4545C346.874 97.7004 348.812 98.2812 351.242 98.2812C352.85 98.2812 354.293 98.033 355.489 97.4906C356.686 96.9508 357.715 96.1193 358.498 94.9577C358.704 96.1628 359.239 96.9917 360.022 97.4906C360.804 97.9895 361.793 98.2377 362.949 98.2377C363.484 98.2377 363.979 98.1968 364.433 98.1124C364.887 98.0305 365.299 97.9051 365.67 97.7798L365.135 93.085C364.971 93.1694 364.723 93.2103 364.433 93.2103C363.608 93.2103 363.197 92.6705 363.197 91.5499V85.1511C363.197 83.7798 363.032 82.5747 362.619 81.4541C362.288 80.3335 361.713 79.4176 360.887 78.5886C360.145 77.8416 359.116 77.2173 357.92 76.7619C356.683 76.3039 355.239 76.0967 353.551 76.0967C351.944 76.0967 350.376 76.3039 348.852 76.6775C347.371 77.0535 345.889 77.7188 344.403 78.5912ZM357.43 89.017V89.5159C357.43 90.4702 356.976 91.3426 356.11 92.0513C355.245 92.7984 353.968 93.1719 352.277 93.1719C351.247 93.1719 350.462 92.9647 350.01 92.5477C349.516 92.1741 349.268 91.6343 349.268 90.9282C349.268 90.222 349.599 89.6412 350.175 89.2242C350.833 88.7662 351.822 88.559 353.226 88.559C354.75 88.5616 356.153 88.7279 357.43 89.017Z" fill="white"/>
<path d="M374.188 76.5944H369.448V97.7811H375.344V85.5695C375.755 84.4054 376.416 83.4511 377.365 82.704C378.271 81.9569 379.344 81.5834 380.58 81.5834C381.529 81.5834 382.395 81.7497 383.137 81.9979C383.919 82.3305 384.58 82.704 385.115 83.2029L388.537 78.6335C387.755 77.8864 386.766 77.2621 385.61 76.8067C384.454 76.3488 383.22 76.1006 381.86 76.1006C380.088 76.1006 378.561 76.4332 377.367 77.0984C376.171 77.8045 375.225 78.7614 374.564 80.0074L374.188 76.5944Z" fill="white"/>
<path d="M406.893 83.3679L410.192 79.3383C409.038 78.2586 407.759 77.4271 406.358 76.9282C404.957 76.3474 403.307 76.0967 401.412 76.0967C399.804 76.0967 398.28 76.3883 396.92 76.9282C395.559 77.468 394.363 78.2586 393.291 79.2538C392.301 80.2516 391.476 81.4132 390.901 82.7845C390.323 84.1559 390.035 85.6091 390.035 87.2286C390.035 88.7662 390.282 90.1785 390.737 91.5499C391.231 92.8803 391.973 94.0418 392.879 95.0396C393.869 96.0374 395.022 96.8254 396.425 97.4088C397.785 97.9895 399.393 98.2812 401.248 98.2812C403.103 98.2812 404.793 97.9896 406.318 97.4497C407.842 96.8689 409.202 95.9121 410.482 94.6252L407.06 90.68C406.358 91.3861 405.576 91.926 404.627 92.2995C403.678 92.714 402.648 92.9238 401.493 92.9238C399.761 92.9238 398.401 92.3839 397.412 91.3043C396.382 90.2246 395.888 88.8123 395.888 87.0674C395.888 86.195 396.052 85.4479 396.342 84.7418C396.629 84.0356 397.043 83.4549 397.578 82.9969C398.073 82.498 398.651 82.1244 399.35 81.8328C400.052 81.5846 400.753 81.4592 401.535 81.4592C403.761 81.4567 405.533 82.0809 406.893 83.3679Z" fill="white"/>
<path d="M420.951 68.4136H415.056V97.785H420.951V85.5708C421.405 84.1994 422.104 83.1198 423.053 82.4136C424.002 81.7075 425.075 81.3339 426.309 81.3339C427.586 81.3339 428.577 81.7075 429.236 82.498C429.978 83.2886 430.309 84.4502 430.309 85.9878V97.7875H436.161V85.4915C436.161 82.4162 435.379 80.0905 433.852 78.5119C432.285 76.8924 430.102 76.1018 427.338 76.1018C425.854 76.1018 424.618 76.35 423.545 76.8489C422.556 77.3887 421.65 78.0949 420.948 79.0083V68.4136H420.951Z" fill="white"/>
<path d="M189.375 114.311H182.367L191.23 135.582H197.456L206.317 114.311H199.599L194.693 129.723H194.281L189.375 114.311Z" fill="white"/>
<path d="M214.678 126.815H230.012C230.136 126.357 230.219 125.902 230.259 125.403C230.343 124.904 230.383 124.405 230.383 123.906C230.383 122.369 230.136 120.997 229.641 119.795C229.147 118.549 228.445 117.469 227.539 116.597C226.673 115.724 225.601 115.018 224.324 114.56C223.087 114.061 221.727 113.813 220.243 113.813C218.512 113.813 216.945 114.105 215.501 114.685C214.101 115.266 212.904 116.057 211.875 117.055C210.885 118.052 210.143 119.214 209.566 120.585C209.071 121.957 208.783 123.41 208.783 124.947C208.783 126.608 209.031 128.105 209.566 129.476C210.06 130.847 210.802 132.009 211.751 132.966C212.7 133.92 213.894 134.67 215.337 135.209C216.781 135.749 218.388 136 220.243 136C222.138 136 223.87 135.793 225.437 135.335C227.004 134.877 228.488 134.171 229.929 133.135L227.415 128.813C225.477 130.144 223.168 130.806 220.571 130.806C218.8 130.806 217.437 130.433 216.49 129.686C215.504 128.934 214.885 127.979 214.678 126.815ZM224.367 122.453H214.845C215.216 121.33 215.794 120.457 216.66 119.836C217.485 119.211 218.638 118.881 220.082 118.881C221.525 118.881 222.555 119.214 223.256 119.879C223.955 120.542 224.326 121.414 224.367 122.453Z" fill="white"/>
<path d="M239.753 114.312H235.054V135.499H240.949V123.369C241.403 121.957 242.102 120.877 243.051 120.13C243.957 119.424 245.03 119.05 246.307 119.05C247.584 119.05 248.573 119.424 249.234 120.212C249.976 121.002 250.307 122.164 250.307 123.701V135.499H256.162V123.203C256.162 120.127 255.379 117.802 253.772 116.223C252.204 114.604 250.021 113.813 247.218 113.813C245.61 113.813 244.167 114.146 242.973 114.811C241.736 115.517 240.787 116.474 240.169 117.72L239.753 114.312Z" fill="white"/>
<path d="M263.109 114.393L260.058 114.642V119.585H263.189V127.769C263.189 130.553 263.848 132.587 265.168 133.958C266.488 135.329 268.343 135.995 270.773 135.995C272.093 135.995 273.286 135.828 274.359 135.537C275.432 135.245 276.461 134.746 277.493 134.083L275.515 129.514C275.02 129.847 274.485 130.095 273.867 130.302C273.289 130.509 272.63 130.594 271.929 130.594C271.063 130.594 270.362 130.346 269.827 129.888C269.332 129.43 269.085 128.723 269.085 127.851V119.585H276.05V114.309H269.042L269.289 109.033L263.682 108.742L263.109 114.393Z" fill="white"/>
<path d="M286.998 114.311H281.103V126.607C281.103 129.723 281.885 132.049 283.412 133.628C284.979 135.206 287.162 135.997 290.006 135.997C291.573 135.997 292.933 135.664 294.127 134.999C295.323 134.293 296.229 133.336 296.848 132.09L297.259 135.498H301.963V114.311H296.068V126.484C295.614 127.856 294.955 128.894 294.049 129.682C293.143 130.429 292.07 130.803 290.874 130.803C288.277 130.803 287 129.224 287 126.108V114.311H286.998Z" fill="white"/>
<path d="M312.293 114.311H307.554V135.498H313.449V123.284C313.86 122.12 314.522 121.165 315.47 120.418C316.376 119.671 317.449 119.298 318.686 119.298C319.634 119.298 320.5 119.464 321.242 119.712C322.024 120.045 322.686 120.418 323.221 120.917L326.643 116.348C325.86 115.601 324.871 114.976 323.715 114.521C322.562 114.063 321.325 113.815 319.965 113.815C318.193 113.815 316.667 114.148 315.473 114.813C314.277 115.519 313.33 116.476 312.669 117.722L312.293 114.311Z" fill="white"/>
<path d="M334.036 126.815H349.37C349.494 126.357 349.577 125.902 349.617 125.403C349.701 124.904 349.741 124.405 349.741 123.906C349.741 122.369 349.494 120.997 348.999 119.795C348.504 118.549 347.803 117.469 346.897 116.597C346.031 115.724 344.959 115.018 343.682 114.56C342.445 114.061 341.085 113.813 339.601 113.813C337.87 113.813 336.303 114.105 334.862 114.685C333.461 115.266 332.265 116.057 331.235 117.055C330.246 118.052 329.504 119.214 328.926 120.585C328.431 121.957 328.144 123.41 328.144 124.947C328.144 126.608 328.391 128.105 328.926 129.476C329.421 130.847 330.162 132.009 331.111 132.966C332.06 133.92 333.254 134.67 334.697 135.209C336.141 135.749 337.749 136 339.603 136C341.499 136 343.232 135.793 344.797 135.335C346.364 134.877 347.848 134.171 349.292 133.135L346.778 128.813C344.84 130.144 342.531 130.806 339.934 130.806C338.162 130.806 336.802 130.433 335.853 129.686C334.859 128.934 334.241 127.979 334.036 126.815ZM343.722 122.453H334.2C334.571 121.33 335.149 120.457 336.015 119.836C336.84 119.211 337.993 118.881 339.437 118.881C340.88 118.881 341.91 119.214 342.612 119.879C343.311 120.542 343.682 121.414 343.722 122.453Z" fill="white"/>
<path d="M370.238 120.501L372.587 116.057C370.074 114.56 367.063 113.813 363.56 113.813C360.552 113.813 358.202 114.437 356.552 115.724C354.944 116.97 354.119 118.633 354.119 120.752C354.119 122.704 354.697 124.241 355.85 125.28C357.004 126.319 358.611 126.984 360.673 127.191L365.413 127.731C366.195 127.813 366.773 127.979 367.144 128.189C367.515 128.437 367.679 128.813 367.679 129.269C367.679 129.849 367.308 130.267 366.606 130.599C365.905 130.847 364.751 131.014 363.184 131.014C361.864 131.014 360.587 130.847 359.351 130.556C358.114 130.264 356.877 129.724 355.641 129.018L353.415 133.421C354.939 134.378 356.507 135.084 358.031 135.414C359.555 135.829 361.246 135.995 363.06 135.995C366.316 135.995 368.832 135.371 370.647 134.166C372.501 132.92 373.407 131.175 373.407 128.931C373.407 126.894 372.749 125.357 371.386 124.362C370.026 123.364 368.171 122.701 365.781 122.409L361.783 121.951C360.507 121.785 359.888 121.286 359.888 120.498C359.888 119.378 361.084 118.835 363.474 118.835C365.95 118.84 368.216 119.38 370.238 120.501Z" fill="white"/>
<path d="M117.906 127.427L117.936 127.374H117.875L117.906 127.427Z" fill="white"/>
<path d="M124.333 116.853L114.086 99.999H101.01L117.874 127.373H117.937H130.732H130.789L147.429 99.999H134.577L124.333 116.853Z" fill="white"/>
<path d="M130.757 127.42L130.788 127.374H130.732L130.757 127.42Z" fill="white"/>
<path d="M129.605 87.5324C127.064 80.1863 120.17 74.918 112.054 74.918H88.7129V87.5324H112.052C115.453 87.5324 118.203 90.32 118.203 93.7618C118.203 96.5495 116.578 99.2055 114.084 99.9972L120.502 110.552C124.725 108.364 128.016 104.587 129.597 99.9972C130.274 98.047 130.64 95.9493 130.64 93.7618C130.642 91.5803 130.276 89.4825 129.605 87.5324Z" fill="white"/>
<path d="M94.5074 99.999H88.7129V112.607V127.373H101.01V112.607V108.922V99.999H94.5074Z" fill="white"/>
<path d="M100.601 91.5363C99.7197 89.1933 97.4834 87.5322 94.8595 87.5322C91.4646 87.5322 88.7148 90.3259 88.7148 93.7677C88.7148 97.1077 91.3033 99.8396 94.5625 99.9931C94.6628 100.003 94.7611 100.003 94.8615 100.003C98.2622 100.003 101.012 97.2094 101.012 93.7677C101.01 92.98 100.868 92.2302 100.601 91.5363Z" fill="white"/>
<path d="M139.95 150H86.6864C74.1768 150 64 139.683 64 127.001V72.9995C64 60.3173 74.1768 50 86.6864 50H139.952C152.462 50 162.639 60.3173 162.639 72.9995V126.999C162.639 139.681 152.46 150 139.95 150ZM86.6864 55.9981C77.4399 55.9981 69.9184 63.6234 69.9184 72.9975V126.999C69.9184 136.373 77.4399 143.998 86.6864 143.998H139.952C149.199 143.998 156.72 136.373 156.72 126.999V72.9995C156.72 63.6254 149.199 56.0001 139.952 56.0001H86.6864V55.9981Z" fill="white"/>
</svg>
