<svg width="500" height="200" viewBox="0 0 500 200" fill="none" xmlns="http://www.w3.org/2000/svg">
<path d="M92.4059 99.6519L55.8013 111.284L56.0371 112.008L92.6417 100.375L92.4059 99.6519Z" fill="white"/>
<path d="M55.8143 112.402L55.3745 111.045L92.6194 99.2129L93.0591 100.57L55.8143 112.402ZM56.2266 111.506L56.2541 111.587L92.2071 100.136L92.1796 100.054L56.2266 111.506Z" fill="white"/>
<path d="M93.1413 99.9458H92.3716V137.91H93.1413V99.9458Z" fill="white"/>
<path d="M93.4713 138.236H92.042V99.6201H93.4713V138.236ZM92.7292 137.558H92.8116V100.271H92.7292V137.558Z" fill="white"/>
<path d="M92.875 99.637L92.6392 100.36L129.244 111.993L129.48 111.269L92.875 99.637Z" fill="white"/>
<path d="M129.452 112.402L92.207 100.57L92.6467 99.2129L129.892 111.045L129.452 112.402ZM93.059 100.136L129.012 111.56L129.04 111.479L93.0866 100.054L93.059 100.136Z" fill="white"/>
<path d="M115.129 68.9988L92.5259 99.7123L93.1484 100.159L115.752 69.4454L115.129 68.9988Z" fill="white"/>
<path d="M93.2237 100.624L92.0693 99.7828L115.076 68.5481L116.23 69.3893L93.2237 100.624ZM93.0039 99.6471L93.0588 99.7014L115.268 69.525L115.213 69.4708L93.0039 99.6471Z" fill="white"/>
<path d="M70.252 69.0142L69.6294 69.4608L92.2328 100.174L92.8555 99.7277L70.252 69.0142Z" fill="white"/>
<path d="M92.1521 100.624L69.1455 69.3893L70.2999 68.5481L93.3065 99.81L92.1521 100.624ZM70.1076 69.525L92.317 99.7014L92.3719 99.6471L70.1625 69.4979L70.1076 69.525Z" fill="white"/>
<path d="M92.9491 61.8723H92.3169V71.9402H92.9491V61.8723Z" fill="white"/>
<path d="M93.3062 61.5469H91.9868V72.2931H93.3062V61.5469Z" fill="white"/>
<path d="M129.415 88.03L119.704 91.1017L119.897 91.6961L129.608 88.6244L129.415 88.03Z" fill="white"/>
<path d="M129.646 87.5898L119.281 90.8686L119.683 92.109L130.049 88.8303L129.646 87.5898Z" fill="white"/>
<path d="M109.863 122.205L109.347 122.565L115.231 130.787L115.747 130.427L109.863 122.205Z" fill="white"/>
<path d="M109.949 121.757L108.871 122.508L115.152 131.286L116.229 130.534L109.949 121.757Z" fill="white"/>
<path d="M56.004 88.0317L55.811 88.6261L65.5223 91.6989L65.7152 91.1045L56.004 88.0317Z" fill="white"/>
<path d="M55.7992 87.5967L55.3965 88.8372L65.7621 92.1168L66.1648 90.8764L55.7992 87.5967Z" fill="white"/>
<path d="M75.4758 122.124L69.5928 130.347L70.1092 130.708L75.9922 122.484L75.4758 122.124Z" fill="white"/>
<path d="M75.4099 121.652L69.1294 130.429L70.207 131.18L76.4875 122.404L75.4099 121.652Z" fill="white"/>
<path d="M69.9777 68.9338L69.9014 69.5534L92.6035 72.2786L92.6798 71.659L69.9777 68.9338Z" fill="white"/>
<path d="M69.6666 68.541L69.5073 69.8341L92.8643 72.6379L93.0235 71.3448L69.6666 68.541Z" fill="white"/>
<path d="M115.449 68.9241L92.7466 71.6492L92.8229 72.2688L115.525 69.5437L115.449 68.9241Z" fill="white"/>
<path d="M115.734 68.5432L92.3789 71.3646L92.537 72.6578L115.892 69.8364L115.734 68.5432Z" fill="white"/>
<path d="M92.6371 71.696L78.3384 80.1825L78.6641 80.7175L92.9629 72.2309L92.6371 71.696Z" fill="white"/>
<path d="M92.7399 71.2268L77.8506 80.0627L78.5303 81.1792L93.4195 72.3432L92.7399 71.2268Z" fill="white"/>
<path d="M92.9154 71.7L92.5898 72.2349L106.89 80.7214L107.216 80.1864L92.9154 71.7Z" fill="white"/>
<path d="M92.8029 71.2529L92.123 72.3694L107.012 81.2054L107.692 80.0889L92.8029 71.2529Z" fill="white"/>
<path d="M115.812 69.1782L115.191 69.2956L119.493 91.4717L120.114 91.3543L115.812 69.1782Z" fill="white"/>
<path d="M116.095 68.7656L114.799 69.0106L119.225 91.8265L120.521 91.5815L116.095 68.7656Z" fill="white"/>
<path d="M120.137 91.4036L119.563 91.6645L129.122 112.177L129.697 111.916L120.137 91.4036Z" fill="white"/>
<path d="M120.325 90.9602L119.126 91.5047L128.961 112.609L130.16 112.064L120.325 90.9602Z" fill="white"/>
<path d="M107.511 80.4541L107.095 80.9237L119.645 91.7771L120.061 91.3077L107.511 80.4541Z" fill="white"/>
<path d="M107.498 79.9739L106.629 80.9537L119.696 92.2542L120.565 91.2745L107.498 79.9739Z" fill="white"/>
<path d="M119.501 91.439L115.682 107.473L116.298 107.616L120.117 91.5818L119.501 91.439Z" fill="white"/>
<path d="M119.259 91.0474L115.281 107.742L116.565 108.04L120.543 91.3458L119.259 91.0474Z" fill="white"/>
<path d="M129.587 111.429L109.453 122.136L109.752 122.685L129.886 111.979L129.587 111.429Z" fill="white"/>
<path d="M129.708 110.959L108.995 121.979L109.621 123.125L130.334 112.105L129.708 110.959Z" fill="white"/>
<path d="M109.26 122.251L92.312 137.41L92.7365 137.872L109.685 122.713L109.26 122.251Z" fill="white"/>
<path d="M109.282 121.788L91.8472 137.386L92.7332 138.351L110.168 122.753L109.282 121.788Z" fill="white"/>
<path d="M115.902 107.291L109.182 122.368L109.76 122.62L116.481 107.543L115.902 107.291Z" fill="white"/>
<path d="M115.74 106.837L108.741 122.533L109.949 123.058L116.948 107.362L115.74 106.837Z" fill="white"/>
<path d="M109.478 122.135L92.8389 123.351L92.8856 123.974L109.525 122.758L109.478 122.135Z" fill="white"/>
<path d="M109.81 121.776L92.4854 123.05L92.582 124.349L109.906 123.075L109.81 121.776Z" fill="white"/>
<path d="M69.6376 69.1675L65.3359 91.3437L65.9569 91.461L70.2586 69.2849L69.6376 69.1675Z" fill="white"/>
<path d="M69.3424 68.8086L64.9189 91.6244L66.2148 91.8694L70.6383 69.0535L69.3424 68.8086Z" fill="white"/>
<path d="M65.3005 91.4128L55.7412 111.925L56.3156 112.186L65.8749 91.6738L65.3005 91.4128Z" fill="white"/>
<path d="M65.1247 91.0037L55.292 112.108L56.4906 112.652L66.3233 91.548L65.1247 91.0037Z" fill="white"/>
<path d="M77.914 80.4653L65.3638 91.3204L65.7804 91.79L78.3304 80.9348L77.914 80.4653Z" fill="white"/>
<path d="M77.9628 79.9858L64.8975 91.2882L65.7669 92.2678L78.8322 80.9655L77.9628 79.9858Z" fill="white"/>
<path d="M65.9079 91.4646L65.2925 91.6075L69.1132 107.642L69.7286 107.499L65.9079 91.4646Z" fill="white"/>
<path d="M66.1803 91.0669L64.896 91.3651L68.8741 108.06L70.1584 107.761L66.1803 91.0669Z" fill="white"/>
<path d="M55.7651 111.329L55.4653 111.879L75.5993 122.585L75.8991 122.036L55.7651 111.329Z" fill="white"/>
<path d="M55.6198 110.851L54.9941 111.998L75.7089 123.014L76.3345 121.867L55.6198 110.851Z" fill="white"/>
<path d="M76.068 122.154L75.6436 122.617L92.5919 137.775L93.0164 137.313L76.068 122.154Z" fill="white"/>
<path d="M92.6193 138.236L92.3719 138.019L75.165 122.632L76.0446 121.683L76.2919 121.9L93.4988 137.286L92.6193 138.236Z" fill="white"/>
<path d="M69.4468 107.188L68.8682 107.439L75.5888 122.516L76.1673 122.265L69.4468 107.188Z" fill="white"/>
<path d="M69.6046 106.734L68.397 107.258L75.3943 122.956L76.6019 122.432L69.6046 106.734Z" fill="white"/>
<path d="M75.8836 122.044L75.8369 122.667L92.4764 123.882L92.5232 123.259L75.8836 122.044Z" fill="white"/>
<path d="M75.5533 121.666L75.4561 122.965L92.7809 124.23L92.8781 122.931L75.5533 121.666Z" fill="white"/>
<path d="M119.776 92.7272C120.52 92.7272 121.123 92.132 121.123 91.3976C121.123 90.6632 120.52 90.0679 119.776 90.0679C119.032 90.0679 118.429 90.6632 118.429 91.3976C118.429 92.132 119.032 92.7272 119.776 92.7272Z" fill="white"/>
<path d="M109.606 123.718C110.35 123.718 110.953 123.122 110.953 122.388C110.953 121.654 110.35 121.058 109.606 121.058C108.862 121.058 108.259 121.654 108.259 122.388C108.259 123.122 108.862 123.718 109.606 123.718Z" fill="white"/>
<path d="M65.6545 92.7543C66.3983 92.7543 67.0013 92.159 67.0013 91.4246C67.0013 90.6902 66.3983 90.095 65.6545 90.095C64.9106 90.095 64.3076 90.6902 64.3076 91.4246C64.3076 92.159 64.9106 92.7543 65.6545 92.7543Z" fill="white"/>
<path d="M75.7424 123.609C76.4862 123.609 77.0891 123.014 77.0891 122.279C77.0891 121.545 76.4862 120.95 75.7424 120.95C74.9984 120.95 74.3955 121.545 74.3955 122.279C74.3955 123.014 74.9984 123.609 75.7424 123.609Z" fill="white"/>
<path d="M92.6193 73.3242C93.3632 73.3242 93.9662 72.7289 93.9662 71.9945C93.9662 71.2601 93.3632 70.6648 92.6193 70.6648C91.8755 70.6648 91.2725 71.2601 91.2725 71.9945C91.2725 72.7289 91.8755 73.3242 92.6193 73.3242Z" fill="white"/>
<path d="M92.6192 138.643L69.6126 131.262L55.4019 111.94V88.0595L69.6126 68.738L92.6192 61.3567L115.626 68.738L115.736 68.8737L129.864 88.0595V111.94L115.653 131.262L92.6192 138.643ZM70.2448 130.42L92.6192 137.612L114.993 130.42L128.82 111.614V88.3851L115.021 69.5792L92.6192 62.415L70.2448 69.5792L56.4189 88.3851V111.614L70.2448 130.42Z" fill="white"/>
<path d="M92.6191 139.132L92.4816 139.077L69.3376 131.642L69.2551 131.533L54.9619 112.103V87.924L69.3651 68.3582L92.6464 60.8955L115.928 68.3582L116.12 68.6024L130.331 87.924V112.103L115.928 131.642L115.791 131.696L92.6191 139.132ZM69.9148 130.882L92.6464 138.182L115.378 130.882L129.424 111.805V88.2225L115.378 69.1452L92.6191 61.8182L69.9148 69.118L55.869 88.1953V111.777L69.9148 130.882ZM92.6191 138.073L92.4816 138.019L69.9698 130.8L69.8873 130.692L55.9514 111.777V88.2496L69.9698 69.2266L70.1072 69.1723L92.6191 61.9539L115.296 69.1994L129.314 88.2225V111.75L115.296 130.773L92.6191 138.073ZM70.5196 130.041L92.6191 137.124L114.719 130.041L128.38 111.479V88.5209L114.746 69.9593L92.6464 62.8765L70.5196 69.9593L56.8585 88.5209V111.479L70.5196 130.041Z" fill="white"/>
<path d="M55.8967 89.4708C56.6405 89.4708 57.2435 88.8754 57.2435 88.141C57.2435 87.4066 56.6405 86.8113 55.8967 86.8113C55.1528 86.8113 54.5498 87.4066 54.5498 88.141C54.5498 88.8754 55.1528 89.4708 55.8967 89.4708Z" fill="white"/>
<path d="M55.8966 90.0135C54.8521 90.0135 54 89.1722 54 88.141C54 87.1098 54.8521 86.2686 55.8966 86.2686C56.9411 86.2686 57.7932 87.1098 57.7932 88.141C57.8207 89.1722 56.9686 90.0135 55.8966 90.0135ZM55.8966 87.354C55.4568 87.354 55.127 87.7068 55.127 88.1138C55.127 88.5481 55.4843 88.8737 55.8966 88.8737C56.3089 88.8737 56.6662 88.5209 56.6662 88.1138C56.6937 87.7068 56.3364 87.354 55.8966 87.354Z" fill="white"/>
<path d="M92.6193 63.2022C93.3632 63.2022 93.9661 62.6068 93.9661 61.8724C93.9661 61.1381 93.3632 60.5427 92.6193 60.5427C91.8753 60.5427 91.2725 61.1381 91.2725 61.8724C91.2725 62.6068 91.8753 63.2022 92.6193 63.2022Z" fill="white"/>
<path d="M92.6193 63.772C91.5748 63.772 90.7227 62.9308 90.7227 61.8996C90.7227 60.8683 91.5748 60.0271 92.6193 60.0271C93.6638 60.0271 94.5158 60.8683 94.5158 61.8996C94.5158 62.9308 93.6913 63.772 92.6193 63.772ZM92.6193 61.1126C92.1795 61.1126 91.8495 61.4654 91.8495 61.8724C91.8495 62.2795 92.207 62.6323 92.6193 62.6323C93.059 62.6323 93.3889 62.2795 93.3889 61.8724C93.3889 61.4654 93.059 61.1126 92.6193 61.1126Z" fill="white"/>
<path d="M129.342 89.4708C130.086 89.4708 130.689 88.8754 130.689 88.141C130.689 87.4066 130.086 86.8113 129.342 86.8113C128.598 86.8113 127.995 87.4066 127.995 88.141C127.995 88.8754 128.598 89.4708 129.342 89.4708Z" fill="white"/>
<path d="M129.342 90.0135C128.297 90.0135 127.445 89.1722 127.445 88.141C127.445 87.1098 128.297 86.2686 129.342 86.2686C130.386 86.2686 131.238 87.1098 131.238 88.141C131.266 89.1722 130.414 90.0135 129.342 90.0135ZM129.342 87.354C128.902 87.354 128.572 87.7068 128.572 88.1138C128.572 88.5481 128.93 88.8737 129.342 88.8737C129.754 88.8737 130.112 88.5209 130.112 88.1138C130.139 87.7068 129.782 87.354 129.342 87.354Z" fill="white"/>
<path d="M129.342 112.971C130.086 112.971 130.689 112.376 130.689 111.642C130.689 110.907 130.086 110.312 129.342 110.312C128.598 110.312 127.995 110.907 127.995 111.642C127.995 112.376 128.598 112.971 129.342 112.971Z" fill="white"/>
<path d="M129.342 113.514C128.297 113.514 127.445 112.673 127.445 111.642C127.445 110.611 128.297 109.769 129.342 109.769C130.386 109.769 131.238 110.611 131.238 111.642C131.238 112.673 130.414 113.514 129.342 113.514ZM129.342 110.855C128.902 110.855 128.572 111.208 128.572 111.615C128.572 112.022 128.93 112.375 129.342 112.375C129.754 112.375 130.112 112.022 130.112 111.615C130.112 111.208 129.782 110.855 129.342 110.855Z" fill="white"/>
<path d="M115.351 70.502C116.095 70.502 116.698 69.9066 116.698 69.1722C116.698 68.4379 116.095 67.8425 115.351 67.8425C114.607 67.8425 114.004 68.4379 114.004 69.1722C114.004 69.9066 114.607 70.502 115.351 70.502Z" fill="white"/>
<path d="M115.351 71.0718C114.306 71.0718 113.454 70.2306 113.454 69.1994C113.454 68.1682 114.306 67.3269 115.351 67.3269C116.395 67.3269 117.247 68.1682 117.247 69.1994C117.247 70.2306 116.395 71.0718 115.351 71.0718ZM115.351 68.4124C114.911 68.4124 114.581 68.7652 114.581 69.1722C114.581 69.6064 114.938 69.9321 115.351 69.9321C115.79 69.9321 116.12 69.5793 116.12 69.1722C116.12 68.7652 115.763 68.4124 115.351 68.4124Z" fill="white"/>
<path d="M69.9426 70.502C70.6864 70.502 71.2894 69.9066 71.2894 69.1722C71.2894 68.4379 70.6864 67.8425 69.9426 67.8425C69.1987 67.8425 68.5957 68.4379 68.5957 69.1722C68.5957 69.9066 69.1987 70.502 69.9426 70.502Z" fill="white"/>
<path d="M69.9425 71.0718C68.898 71.0718 68.0459 70.2306 68.0459 69.1994C68.0459 68.1682 68.898 67.3269 69.9425 67.3269C70.987 67.3269 71.8391 68.1682 71.8391 69.1994C71.8391 70.2306 70.987 71.0718 69.9425 71.0718ZM69.9425 68.4124C69.5027 68.4124 69.1729 68.7652 69.1729 69.1722C69.1729 69.6064 69.5302 69.9321 69.9425 69.9321C70.3823 69.9321 70.7121 69.5793 70.7121 69.1722C70.7121 68.7652 70.3548 68.4124 69.9425 68.4124Z" fill="white"/>
<path d="M55.8967 112.971C56.6405 112.971 57.2435 112.376 57.2435 111.642C57.2435 110.907 56.6405 110.312 55.8967 110.312C55.1528 110.312 54.5498 110.907 54.5498 111.642C54.5498 112.376 55.1528 112.971 55.8967 112.971Z" fill="white"/>
<path d="M55.8966 113.514C54.8521 113.514 54 112.673 54 111.642C54 110.611 54.8521 109.769 55.8966 109.769C56.9411 109.769 57.7932 110.611 57.7932 111.642C57.7932 112.673 56.9686 113.514 55.8966 113.514ZM55.8966 110.855C55.4568 110.855 55.127 111.208 55.127 111.615C55.127 112.022 55.4843 112.375 55.8966 112.375C56.3089 112.375 56.6662 112.022 56.6662 111.615C56.6662 111.208 56.3364 110.855 55.8966 110.855Z" fill="white"/>
<path d="M69.9426 132.13C70.6864 132.13 71.2894 131.535 71.2894 130.801C71.2894 130.066 70.6864 129.471 69.9426 129.471C69.1987 129.471 68.5957 130.066 68.5957 130.801C68.5957 131.535 69.1987 132.13 69.9426 132.13Z" fill="white"/>
<path d="M69.9425 132.7C68.898 132.7 68.0459 131.859 68.0459 130.828C68.0459 129.796 68.898 128.955 69.9425 128.955C70.987 128.955 71.8391 129.796 71.8391 130.828C71.8391 131.832 70.987 132.7 69.9425 132.7ZM69.9425 130.041C69.5027 130.041 69.1729 130.393 69.1729 130.8C69.1729 131.235 69.5302 131.56 69.9425 131.56C70.3823 131.56 70.7121 131.208 70.7121 130.8C70.7121 130.366 70.3548 130.041 69.9425 130.041Z" fill="white"/>
<path d="M92.6193 139.457C93.3632 139.457 93.9661 138.862 93.9661 138.127C93.9661 137.393 93.3632 136.798 92.6193 136.798C91.8753 136.798 91.2725 137.393 91.2725 138.127C91.2725 138.862 91.8753 139.457 92.6193 139.457Z" fill="white"/>
<path d="M92.6193 140C91.5747 140 90.7227 139.159 90.7227 138.127C90.7227 137.096 91.5747 136.255 92.6193 136.255C93.6638 136.255 94.5158 137.096 94.5158 138.127C94.5433 139.159 93.6913 140 92.6193 140ZM92.6193 137.368C92.1795 137.368 91.8495 137.72 91.8495 138.127C91.8495 138.562 92.207 138.887 92.6193 138.887C93.059 138.887 93.3889 138.534 93.3889 138.127C93.4164 137.693 93.059 137.368 92.6193 137.368Z" fill="white"/>
<path d="M115.351 132.13C116.095 132.13 116.698 131.535 116.698 130.801C116.698 130.066 116.095 129.471 115.351 129.471C114.607 129.471 114.004 130.066 114.004 130.801C114.004 131.535 114.607 132.13 115.351 132.13Z" fill="white"/>
<path d="M115.351 132.7C114.306 132.7 113.454 131.859 113.454 130.828C113.454 129.796 114.306 128.955 115.351 128.955C116.395 128.955 117.247 129.796 117.247 130.828C117.247 131.832 116.395 132.7 115.351 132.7ZM115.351 130.041C114.911 130.041 114.581 130.393 114.581 130.8C114.581 131.235 114.938 131.56 115.351 131.56C115.79 131.56 116.12 131.208 116.12 130.8C116.12 130.366 115.763 130.041 115.351 130.041Z" fill="white"/>
<path d="M92.8389 124.668L69.0352 107.598L78.1334 79.9458H107.572L116.67 107.571L92.8389 124.668ZM70.2171 107.191L92.8389 123.419L115.461 107.191L106.83 80.9498H78.848L70.2171 107.191Z" fill="white"/>
<path d="M92.8393 125.21L92.5644 125.02L68.4858 107.761L77.8039 79.5115H107.875L117.165 107.761L92.8393 125.21ZM69.5578 107.408L92.8393 124.098L116.121 107.408L107.242 80.38H78.4361L69.5578 107.408ZM92.8393 123.989L92.5644 123.799L69.6678 107.381L78.5186 80.5156H107.133L115.983 107.381L92.8393 123.989ZM70.7397 107.028L92.8393 122.876L114.939 107.028L106.5 81.384H79.1783L70.7397 107.028Z" fill="white"/>
<path d="M92.7014 101.438C93.4452 101.438 94.0482 100.843 94.0482 100.108C94.0482 99.3742 93.4452 98.7788 92.7014 98.7788C91.9575 98.7788 91.3545 99.3742 91.3545 100.108C91.3545 100.843 91.9575 101.438 92.7014 101.438Z" fill="white"/>
<path d="M92.7018 101.981C91.6573 101.981 90.8052 101.14 90.8052 100.108C90.8052 99.0772 91.6573 98.2361 92.7018 98.2361C93.7463 98.2361 94.5985 99.0772 94.5985 100.108C94.5985 101.14 93.7738 101.981 92.7018 101.981ZM92.7018 99.3486C92.262 99.3486 91.9322 99.7014 91.9322 100.108C91.9322 100.516 92.2895 100.868 92.7018 100.868C93.1141 100.868 93.4714 100.516 93.4714 100.108C93.4714 99.7014 93.1417 99.3486 92.7018 99.3486Z" fill="white"/>
<path d="M107.187 81.9809C107.931 81.9809 108.534 81.3855 108.534 80.6513C108.534 79.9169 107.931 79.3215 107.187 79.3215C106.443 79.3215 105.84 79.9169 105.84 80.6513C105.84 81.3855 106.443 81.9809 107.187 81.9809Z" fill="white"/>
<path d="M107.187 82.5509C106.143 82.5509 105.291 81.7096 105.291 80.6784C105.291 79.6472 106.143 78.8059 107.187 78.8059C108.232 78.8059 109.084 79.6472 109.084 80.6784C109.084 81.7096 108.232 82.5509 107.187 82.5509ZM107.187 79.8915C106.747 79.8915 106.418 80.2441 106.418 80.6513C106.418 81.0854 106.775 81.4112 107.187 81.4112C107.627 81.4112 107.957 81.0584 107.957 80.6513C107.957 80.2441 107.599 79.8915 107.187 79.8915Z" fill="white"/>
<path d="M69.9426 108.792C70.6864 108.792 71.2894 108.197 71.2894 107.463C71.2894 106.728 70.6864 106.133 69.9426 106.133C69.1987 106.133 68.5957 106.728 68.5957 107.463C68.5957 108.197 69.1987 108.792 69.9426 108.792Z" fill="white"/>
<path d="M69.9425 109.362C68.898 109.362 68.0459 108.521 68.0459 107.49C68.0459 106.459 68.898 105.617 69.9425 105.617C70.987 105.617 71.8391 106.459 71.8391 107.49C71.8391 108.521 70.987 109.362 69.9425 109.362ZM69.9425 106.703C69.5027 106.703 69.1729 107.056 69.1729 107.463C69.1729 107.87 69.5302 108.223 69.9425 108.223C70.3823 108.223 70.7121 107.87 70.7121 107.463C70.7121 107.056 70.3548 106.703 69.9425 106.703Z" fill="white"/>
<path d="M78.6008 81.9809C79.3446 81.9809 79.9477 81.3855 79.9477 80.6513C79.9477 79.9169 79.3446 79.3215 78.6008 79.3215C77.8569 79.3215 77.2539 79.9169 77.2539 80.6513C77.2539 81.3855 77.8569 81.9809 78.6008 81.9809Z" fill="white"/>
<path d="M78.6007 82.5509C77.5563 82.5509 76.7041 81.7096 76.7041 80.6784C76.7041 79.6472 77.5563 78.8059 78.6007 78.8059C79.6452 78.8059 80.4974 79.6472 80.4974 80.6784C80.4974 81.7096 79.6452 82.5509 78.6007 82.5509ZM78.6007 79.8915C78.1609 79.8915 77.8311 80.2441 77.8311 80.6513C77.8311 81.0854 78.1884 81.4112 78.6007 81.4112C79.0131 81.4112 79.3703 81.0584 79.3703 80.6513C79.3703 80.2441 79.0131 79.8915 78.6007 79.8915Z" fill="white"/>
<path d="M115.708 108.792C116.452 108.792 117.055 108.197 117.055 107.463C117.055 106.728 116.452 106.133 115.708 106.133C114.964 106.133 114.361 106.728 114.361 107.463C114.361 108.197 114.964 108.792 115.708 108.792Z" fill="white"/>
<path d="M115.708 109.362C114.664 109.362 113.812 108.521 113.812 107.49C113.812 106.459 114.664 105.617 115.708 105.617C116.753 105.617 117.605 106.459 117.605 107.49C117.605 108.521 116.78 109.362 115.708 109.362ZM115.708 106.703C115.268 106.703 114.939 107.056 114.939 107.463C114.939 107.87 115.296 108.223 115.708 108.223C116.148 108.223 116.478 107.87 116.478 107.463C116.478 107.056 116.148 106.703 115.708 106.703Z" fill="white"/>
<path d="M92.7565 125.075C93.5004 125.075 94.1034 124.479 94.1034 123.745C94.1034 123.011 93.5004 122.415 92.7565 122.415C92.0127 122.415 91.4097 123.011 91.4097 123.745C91.4097 124.479 92.0127 125.075 92.7565 125.075Z" fill="white"/>
<path d="M92.7565 125.644C91.712 125.644 90.8599 124.803 90.8599 123.772C90.8599 122.741 91.712 121.899 92.7565 121.899C93.801 121.899 94.653 122.741 94.653 123.772C94.653 124.803 93.801 125.644 92.7565 125.644ZM92.7565 122.985C92.3167 122.985 91.9869 123.338 91.9869 123.745C91.9869 124.152 92.3442 124.505 92.7565 124.505C93.1688 124.505 93.5261 124.152 93.5261 123.745C93.5261 123.338 93.1962 122.985 92.7565 122.985Z" fill="white"/>
<path d="M177.664 115.522L174.228 94.3826L164.608 115.088H163.398L153.778 94.4098L150.314 115.549H145.367L150.204 86.3501H154.987L164.003 106.187L173.019 86.3501H177.856L182.612 115.522H177.664Z" fill="white"/>
<path d="M209.081 104.315C209.081 104.83 209.026 105.319 208.971 105.834H190.472C191.05 109.471 193.716 111.723 197.454 111.723C200.175 111.723 202.374 110.475 203.584 108.44H208.504C206.69 113.189 202.539 116.065 197.427 116.065C190.775 116.065 185.717 110.991 185.717 104.26C185.717 97.5305 190.747 92.4558 197.427 92.4558C204.436 92.4558 209.081 97.7747 209.081 104.315ZM197.454 96.635C193.936 96.635 191.352 98.7244 190.582 102.062H204.381C203.556 98.6702 200.945 96.635 197.454 96.635Z" fill="white"/>
<path d="M226.536 111.316V115.522H223.045C218.042 115.522 214.963 112.483 214.963 107.517V96.9877H210.896V96.0922L218.811 87.761H219.61V93.0256H226.399V96.9877H219.664V107.164C219.664 109.851 221.176 111.343 223.925 111.343H226.536V111.316Z" fill="white"/>
<path d="M244.045 92.8901V97.2593H241.571C237.696 97.2593 235.771 99.4301 235.771 103.528V115.522H231.098V93.0258H234.259L235.056 96.0924C236.678 93.9485 238.933 92.8901 242.038 92.8901H244.045Z" fill="white"/>
<path d="M247.645 84.749H252.483V89.5252H247.645V84.749ZM247.728 93.0258H252.4V115.522H247.728V93.0258Z" fill="white"/>
<path d="M272.522 115.522L266.832 106.947L261.086 115.522H255.947L264.056 103.881L256.579 92.9988H261.856L266.886 100.57L272.082 92.9988H277.221L269.635 103.636L277.798 115.495H272.522V115.522Z" fill="white"/>
<path d="M305.698 116.038C296.957 116.038 290.498 109.661 290.498 100.95C290.498 92.2118 296.957 85.8345 305.698 85.8345C312.68 85.8345 318.286 90.1222 319.854 96.7166H314.933C313.531 92.8359 310.069 90.475 305.698 90.475C299.789 90.475 295.445 94.8711 295.445 100.95C295.445 107.029 299.789 111.425 305.698 111.425C310.206 111.425 313.696 108.901 315.043 104.776H319.963C318.397 111.615 312.818 116.038 305.698 116.038Z" fill="white"/>
<path d="M347.341 92.9984V115.495H343.547L343.08 112.754C341.019 114.817 338.133 116.065 334.806 116.065C328.017 116.065 322.933 110.99 322.933 104.26C322.933 97.5032 328.017 92.4829 334.806 92.4829C338.16 92.4829 341.073 93.7312 343.134 95.8208L343.685 92.9984H347.341ZM342.64 104.26C342.64 100.027 339.507 96.8791 335.192 96.8791C330.904 96.8791 327.715 100.054 327.715 104.26C327.715 108.467 330.875 111.642 335.192 111.642C339.507 111.642 342.64 108.494 342.64 104.26Z" fill="white"/>
<path d="M366.278 92.4558C373.096 92.4558 378.099 97.4763 378.099 104.26C378.099 111.018 373.123 116.065 366.278 116.065C363.337 116.065 360.699 115.061 358.72 113.351V123.582H354.048V93.0257H357.208L358.088 95.7937C360.121 93.7041 363.008 92.4558 366.278 92.4558ZM373.344 104.26C373.344 100.027 370.209 96.8792 365.894 96.8792C361.606 96.8792 358.417 100.054 358.417 104.26C358.417 108.467 361.579 111.642 365.894 111.642C370.209 111.642 373.344 108.521 373.344 104.26Z" fill="white"/>
<path d="M383.019 84.749H387.856V89.5252H383.019V84.749ZM383.101 93.0258H387.774V115.522H383.101V93.0258Z" fill="white"/>
<path d="M407.235 111.316V115.522H403.744C398.741 115.522 395.662 112.483 395.662 107.517V96.9877H391.595V96.0922L399.51 87.761H400.307V93.0256H407.098V96.9877H400.363V107.164C400.363 109.851 401.875 111.343 404.624 111.343H407.235V111.316Z" fill="white"/>
<path d="M434.227 92.9984V115.495H430.433L429.966 112.754C427.904 114.817 425.019 116.065 421.693 116.065C414.904 116.065 409.817 110.99 409.817 104.26C409.817 97.5032 414.904 92.4829 421.693 92.4829C425.046 92.4829 427.96 93.7312 430.021 95.8208L430.571 92.9984H434.227ZM429.526 104.26C429.526 100.027 426.393 96.8791 422.077 96.8791C417.789 96.8791 414.601 100.054 414.601 104.26C414.601 108.467 417.761 111.642 422.077 111.642C426.393 111.642 429.526 108.494 429.526 104.26Z" fill="white"/>
<path d="M440.906 84.939H445.579V115.522H440.906V84.939Z" fill="white"/>
</svg>
