<svg width="500" height="200" viewBox="0 0 500 200" fill="none" xmlns="http://www.w3.org/2000/svg">
<path d="M290.124 111.663V105.119H292.718V102.804H284.548V105.119H287.141V111.663H290.124Z" fill="white"/>
<path d="M355.353 109.435H356.16L357.664 111.663H360.85L358.988 108.93C359.529 108.652 359.943 108.278 360.229 107.804C360.516 107.331 360.659 106.778 360.659 106.146C360.659 105.469 360.496 104.881 360.166 104.376C359.836 103.87 359.37 103.481 358.762 103.21C358.153 102.94 357.441 102.804 356.622 102.804H352.37V111.659H355.357V109.435H355.353ZM355.353 105.107H356.439C356.844 105.107 357.147 105.199 357.35 105.378C357.552 105.561 357.652 105.815 357.652 106.146C357.652 106.476 357.552 106.73 357.35 106.909C357.147 107.092 356.844 107.18 356.439 107.18H355.353V105.107Z" fill="white"/>
<path d="M317.833 102.804V107.677C317.833 109.002 318.214 110.032 318.97 110.764C319.73 111.495 320.788 111.865 322.144 111.865C323.501 111.865 324.559 111.499 325.318 110.764C326.078 110.032 326.456 109.002 326.456 107.677V102.804H323.52V107.586C323.52 108.234 323.405 108.707 323.174 109.002C322.944 109.296 322.606 109.443 322.168 109.443C321.731 109.443 321.392 109.296 321.162 109.002C320.931 108.707 320.812 108.234 320.812 107.586V102.804H317.833Z" fill="white"/>
<path d="M309.953 92.1842V72.9604H294.512C292.964 72.9604 291.652 73.5054 290.57 74.5952C289.48 75.6772 288.935 76.9898 288.935 78.537V92.1842H293.35V78.5092C293.35 78.191 293.466 77.9205 293.692 77.6898C293.919 77.4591 294.193 77.3477 294.508 77.3477H305.53V92.1802H309.953V92.1842Z" fill="white"/>
<path d="M350.791 87.3991C350.528 87.6616 350.214 87.7929 349.856 87.7929H335.564V92.1842H350.381C351.876 92.1842 353.177 91.6313 354.283 90.5215C355.345 89.4595 355.878 88.127 355.878 86.528L355.866 80.502H339.673V78.6166C339.673 78.3342 339.82 78.0438 340.107 77.7455C340.369 77.483 340.683 77.3517 341.041 77.3517H355.862V72.9604H341.041C339.546 72.9604 338.245 73.5133 337.139 74.6231C336.073 75.6851 335.544 77.0176 335.544 78.6166V84.6307H351.208V86.6752C351.168 86.9099 351.025 87.1525 350.791 87.3991Z" fill="white"/>
<path d="M426.305 80.5974V72.9604H410.47C408.923 72.9604 407.61 73.5133 406.529 74.6231C405.431 75.7408 404.882 77.0494 404.882 78.5529V92.1881H409.273V86.1501H418.465L421.683 92.1881H426.063L422.857 85.7802C423.541 85.5098 424.161 85.0921 424.714 84.5273C425.772 83.4533 426.305 82.1447 426.305 80.5974ZM421.914 80.5974C421.914 80.9395 421.814 81.214 421.612 81.4168C421.385 81.6356 421.122 81.747 420.832 81.747H409.269V78.5569C409.269 78.2387 409.392 77.9643 409.639 77.7256C409.866 77.479 410.144 77.3557 410.47 77.3557H421.914V80.5974V80.5974Z" fill="white"/>
<path d="M371.148 92.1842V77.3517H379.111V72.9604H358.515V77.3517H366.757V92.1842H371.148Z" fill="white"/>
<path d="M423.605 109.467C423.426 109.546 423.131 109.586 422.718 109.586C422.236 109.586 421.735 109.51 421.214 109.363C420.693 109.216 420.22 109.021 419.798 108.775L418.835 110.95C419.281 111.229 419.854 111.452 420.55 111.615C421.246 111.778 421.962 111.861 422.694 111.861C423.581 111.861 424.332 111.73 424.953 111.463C425.573 111.197 426.039 110.839 426.349 110.39C426.663 109.94 426.818 109.435 426.818 108.878C426.818 108.238 426.647 107.732 426.305 107.359C425.963 106.989 425.562 106.718 425.096 106.555C424.631 106.392 424.062 106.245 423.39 106.118C422.865 106.014 422.491 105.923 422.264 105.831C422.037 105.744 421.922 105.608 421.922 105.433C421.922 105.064 422.304 104.877 423.072 104.877C423.847 104.877 424.671 105.095 425.538 105.533L426.437 103.369C425.991 103.114 425.474 102.924 424.885 102.792C424.301 102.661 423.704 102.597 423.095 102.597C422.208 102.597 421.457 102.729 420.836 102.991C420.216 103.254 419.75 103.612 419.44 104.065C419.126 104.523 418.971 105.028 418.971 105.585C418.971 106.225 419.138 106.734 419.476 107.108C419.814 107.482 420.212 107.752 420.665 107.915C421.119 108.079 421.691 108.234 422.372 108.377C422.901 108.488 423.282 108.588 423.517 108.679C423.748 108.771 423.867 108.91 423.867 109.097C423.871 109.264 423.784 109.387 423.605 109.467Z" fill="white"/>
<path d="M402.241 92.1842V72.9604H387.313C385.81 72.9604 384.497 73.5253 383.371 74.6629C382.289 75.7448 381.749 77.0812 381.749 78.6723V92.1881H386.14V87.3076H397.85V92.1881H402.241V92.1842ZM386.14 82.9164V78.3819C386.14 78.1114 386.255 77.8609 386.482 77.6302C386.685 77.4352 386.959 77.3398 387.313 77.3398H397.85V82.9164H386.14Z" fill="white"/>
<path d="M393.534 105.056V102.804H386.334V111.663H393.697V109.407H389.27V108.246H393.013V106.094H389.27V105.056H393.534Z" fill="white"/>
<path d="M332.908 82.5743H328.516V87.8088H316.977V78.6166C316.977 78.2825 317.105 77.9921 317.359 77.7455C317.614 77.483 317.9 77.3517 318.214 77.3517H332.084V72.9604H318.214C316.675 72.9604 315.354 73.5133 314.245 74.6231C313.139 75.7289 312.582 77.0613 312.582 78.6166V92.1842H332.9V82.5743H332.908Z" fill="white"/>
<path d="M229.927 90.4857C231.009 89.4038 231.55 88.0673 231.55 86.4763V72.9604H215.99C214.486 72.9604 213.174 73.5253 212.048 74.6629C210.966 75.7448 210.425 77.0812 210.425 78.6723V86.4803C210.425 88.0713 210.966 89.4078 212.048 90.4897C213.174 91.6233 214.486 92.1921 215.99 92.1921H225.986C227.489 92.1842 228.806 91.6193 229.927 90.4857ZM217.338 87.7969V87.8088H215.994C215.652 87.8088 215.373 87.7133 215.163 87.5184C214.932 87.2798 214.821 87.0292 214.821 86.7667V78.3819C214.821 78.1194 214.936 77.8688 215.163 77.6302C215.373 77.4352 215.648 77.3398 215.994 77.3398H217.338V77.3517H227.163V86.7667C227.163 87.0292 227.048 87.2798 226.821 87.5184C226.61 87.7133 226.332 87.8088 225.99 87.8088H224.645V87.7969H217.338Z" fill="white"/>
<path d="M286.298 72.9604H281.907V92.1842H286.298V72.9604Z" fill="white"/>
<path d="M224.645 105.056V102.804H217.446V111.663H224.808V109.407H220.381V108.246H224.124V106.094H220.381V105.056H224.645Z" fill="white"/>
<path d="M185.398 102.804H182.188L185.931 111.663H188.867L192.614 102.804H189.678L187.514 107.979L185.398 102.804Z" fill="white"/>
<path d="M207.788 92.1842V72.9604H188.087C186.54 72.9604 185.227 73.5054 184.146 74.5952C183.056 75.6772 182.511 76.9898 182.511 78.537V92.1842H186.926V78.5092C186.926 78.191 187.041 77.9205 187.268 77.6898C187.495 77.4591 187.769 77.3477 188.083 77.3477H192.964V92.1802H197.355V77.3477H203.369V92.1802H207.788V92.1842Z" fill="white"/>
<path d="M253.412 107.637L256.777 111.663H259.231V102.804H256.323V106.83L252.958 102.804H250.504V111.663H253.412V107.637Z" fill="white"/>
<path d="M279.27 92.1842V72.9604H263.829C262.281 72.9604 260.969 73.5054 259.887 74.5952C258.797 75.6772 258.252 76.9898 258.252 78.537V92.1842H262.667V78.5092C262.667 78.191 262.782 77.9205 263.009 77.6898C263.236 77.4591 263.51 77.3477 263.825 77.3477H274.846V92.1802H279.27V92.1842Z" fill="white"/>
<path d="M255.615 80.5974V72.9604H239.78C238.233 72.9604 236.92 73.5133 235.838 74.6231C234.74 75.7408 234.191 77.0494 234.191 78.5529V92.1881H238.583V86.1501H247.775L250.993 92.1881H255.372L252.166 85.7802C252.85 85.5098 253.471 85.0921 254.024 84.5273C255.082 83.4533 255.615 82.1447 255.615 80.5974ZM251.223 80.5974C251.223 80.9395 251.124 81.214 250.921 81.4168C250.694 81.6356 250.432 81.747 250.142 81.747H238.579V78.5569C238.579 78.2387 238.702 77.9643 238.949 77.7256C239.175 77.479 239.454 77.3557 239.78 77.3557H251.223V80.5974Z" fill="white"/>
<path d="M121.49 103.13L44.0386 176L116.908 98.5483C120.731 94.4832 120.874 88.1867 117.238 83.9545L93.2374 56L121.526 80.2872C125.619 83.7994 131.661 83.7994 135.75 80.2872L164.039 56L139.751 84.2886C136.239 88.3816 136.239 94.4235 139.751 98.5125L164.039 126.801L136.084 102.8C131.852 99.1609 125.555 99.304 121.49 103.13Z" fill="white"/>
</svg>
