<svg width="500" height="200" viewBox="0 0 500 200" fill="none" xmlns="http://www.w3.org/2000/svg">
<g clip-path="url(#clip0_1312_1846)">
<path d="M120.632 135.007V110L135.892 50L151.167 110V135.007L135.892 150L120.632 135.007Z" fill="white"/>
<path d="M147.593 76.6431L186.785 100L157.484 128.787L161.346 105.007L147.593 76.6431Z" fill="white"/>
<path d="M85 100L124.192 76.6431L110.453 105.007L114.301 128.787L85 100Z" fill="white"/>
<path d="M133.351 50L126.992 67.5035L85 90L133.351 50Z" fill="white"/>
<path d="M138.448 50L144.808 67.5035L186.785 90L138.448 50Z" fill="white"/>
<path d="M216.187 61.6643C216.187 61.5335 216.213 61.4039 216.264 61.2832C216.316 61.1625 216.391 61.053 216.486 60.9612C216.581 60.8693 216.693 60.7969 216.817 60.7481C216.94 60.6993 217.073 60.6751 217.206 60.677H233.084C234.599 60.6658 236.102 60.9495 237.505 61.5115C238.909 62.0736 240.185 62.9029 241.26 63.9518C242.336 65.0007 243.19 66.2483 243.772 67.6229C244.355 68.9974 244.655 70.4716 244.655 71.9605C244.585 74.2843 243.796 76.5321 242.393 78.4043C240.99 80.2765 239.04 81.6843 236.802 82.4401L244.066 95.6982C244.164 95.8513 244.216 96.0278 244.219 96.2084C244.221 96.3889 244.173 96.5667 244.08 96.7223C243.987 96.8779 243.852 97.0054 243.69 97.0909C243.528 97.1765 243.345 97.2167 243.162 97.2073H236.098C235.929 97.2077 235.761 97.165 235.613 97.0835C235.465 97.002 235.34 96.8844 235.251 96.7419L228.188 82.9196H224.527V96.22C224.52 96.4796 224.412 96.7267 224.225 96.9103C224.038 97.0939 223.787 97.2002 223.523 97.2073H217.206C217.073 97.2092 216.94 97.1851 216.817 97.1363C216.693 97.0875 216.581 97.0151 216.486 96.9232C216.391 96.8313 216.316 96.7219 216.264 96.6011C216.213 96.4804 216.187 96.3509 216.187 96.22V61.6643ZM232.395 76.2764C233.489 76.2082 234.516 75.7325 235.265 74.9462C236.015 74.16 236.431 73.1224 236.429 72.0451C236.417 70.9974 235.989 69.9957 235.235 69.2548C234.481 68.5139 233.461 68.0928 232.395 68.0818H224.527V76.22L232.395 76.2764Z" fill="white"/>
<path d="M246.994 95.8392L263.619 60.7334C263.699 60.5777 263.817 60.4436 263.962 60.3428C264.107 60.2421 264.275 60.1776 264.452 60.1552H264.983C265.172 60.1662 265.354 60.2254 265.513 60.3267C265.671 60.4281 265.8 60.5683 265.887 60.7334L282.569 95.8392C282.667 95.9862 282.719 96.1576 282.721 96.3332C282.723 96.5087 282.673 96.681 282.577 96.8296C282.482 96.9781 282.345 97.0967 282.184 97.1712C282.022 97.2456 281.842 97.2729 281.664 97.2496H275.778C274.817 97.2496 274.343 96.9394 273.912 95.952L272.003 91.8195H257.561L255.651 96.0508C255.507 96.4302 255.245 96.7555 254.902 96.9808C254.56 97.206 254.154 97.3198 253.742 97.3061H247.899C247.713 97.34 247.52 97.3173 247.347 97.2411C247.174 97.1649 247.029 97.0388 246.931 96.8796C246.833 96.7204 246.786 96.5355 246.798 96.3497C246.809 96.1638 246.878 95.9858 246.994 95.8392V95.8392ZM268.758 84.6685L264.724 76.0649L260.748 84.6685H268.758Z" fill="white"/>
<path d="M286.919 61.6643C286.919 61.5335 286.945 61.4039 286.997 61.2832C287.048 61.1625 287.123 61.053 287.218 60.9612C287.313 60.8693 287.425 60.7969 287.549 60.7481C287.673 60.6993 287.805 60.6752 287.938 60.677H300.729C303.871 60.677 306.883 61.903 309.104 64.0852C311.325 66.2674 312.573 69.2271 312.573 72.3131C312.573 75.3992 311.325 78.3589 309.104 80.5411C306.883 82.7233 303.871 83.9493 300.729 83.9493H295.145V96.206C295.138 96.4656 295.029 96.7126 294.842 96.8962C294.656 97.0798 294.404 97.1861 294.14 97.1933H287.881C287.747 97.1951 287.615 97.171 287.492 97.1222C287.368 97.0734 287.256 97.001 287.161 96.9091C287.066 96.8173 286.991 96.7078 286.939 96.5871C286.888 96.4664 286.861 96.3368 286.861 96.206L286.919 61.6643ZM300.256 76.3329C300.808 76.3348 301.355 76.2291 301.865 76.0219C302.376 75.8147 302.839 75.5101 303.229 75.1258C303.619 74.7415 303.927 74.2851 304.136 73.7829C304.346 73.2808 304.451 72.7429 304.448 72.2003C304.433 71.6755 304.312 71.1587 304.093 70.6798C303.874 70.2009 303.561 69.7694 303.171 69.4101C302.781 69.0509 302.323 68.771 301.823 68.5866C301.322 68.4021 300.79 68.3169 300.256 68.3357H295.202V76.3188L300.256 76.3329Z" fill="white"/>
<path d="M322.981 68.3355H315.387C315.254 68.3356 315.122 68.3096 314.999 68.2591C314.876 68.2086 314.765 68.1346 314.671 68.0414C314.578 67.9482 314.504 67.8377 314.454 67.7163C314.405 67.5949 314.38 67.465 314.382 67.3341V61.6924C314.382 61.4305 314.488 61.1794 314.676 60.9943C314.865 60.8091 315.12 60.7051 315.387 60.7051H338.96C339.226 60.7051 339.482 60.8091 339.67 60.9943C339.859 61.1794 339.965 61.4305 339.965 61.6924V67.3341C339.966 67.465 339.942 67.5949 339.892 67.7163C339.843 67.8377 339.769 67.9482 339.675 68.0414C339.582 68.1346 339.47 68.2086 339.348 68.2591C339.225 68.3096 339.093 68.3356 338.96 68.3355H331.365V96.2058C331.358 96.4654 331.25 96.7124 331.063 96.896C330.876 97.0797 330.625 97.186 330.36 97.1931H323.986C323.722 97.186 323.471 97.0797 323.284 96.896C323.097 96.7124 322.988 96.4654 322.981 96.2058V68.3355Z" fill="white"/>
<path d="M361.427 60.1551C365.21 60.1439 368.911 61.2352 372.062 63.2909C375.213 65.3466 377.673 68.2743 379.13 71.7037C380.588 75.1331 380.977 78.9101 380.249 82.557C379.521 86.2039 377.709 89.5567 375.041 92.1915C372.374 94.8262 368.97 96.6244 365.262 97.3587C361.554 98.0929 357.708 97.7302 354.21 96.3164C350.711 94.9027 347.719 92.5013 345.61 89.4162C343.501 86.331 342.371 82.7007 342.362 78.9844C342.351 76.5169 342.835 74.0714 343.788 71.7884C344.741 69.5053 346.143 67.4295 347.915 65.6801C349.686 63.9307 351.791 62.5421 354.11 61.594C356.429 60.6459 358.915 60.1569 361.427 60.1551V60.1551ZM361.427 89.3652C363.533 89.3764 365.595 88.7723 367.351 87.6297C369.106 86.4872 370.477 84.8577 371.288 82.9483C372.099 81.0388 372.314 78.9356 371.906 76.9057C371.498 74.8758 370.485 73.0109 368.996 71.5479C367.507 70.0848 365.609 69.0896 363.543 68.6887C361.477 68.2878 359.336 68.4992 357.392 69.2962C355.449 70.0931 353.79 71.4396 352.627 73.1646C351.464 74.8897 350.849 76.9153 350.861 78.9844C350.88 81.7318 351.999 84.3615 353.976 86.3043C355.954 88.2471 358.63 89.3467 361.427 89.3652V89.3652Z" fill="white"/>
<path d="M386.967 61.6644C386.967 61.4026 387.072 61.1515 387.261 60.9663C387.449 60.7811 387.705 60.6771 387.972 60.6771H403.849C405.366 60.6641 406.87 60.9463 408.275 61.5075C409.68 62.0687 410.958 62.8978 412.035 63.9469C413.113 64.9959 413.968 66.2442 414.551 67.6197C415.134 68.9951 415.435 70.4705 415.435 71.9606C415.435 76.7561 412.19 80.6207 407.568 82.4402L414.846 95.6983C414.944 95.8514 414.996 96.0279 414.999 96.2085C415.001 96.389 414.953 96.5668 414.86 96.7224C414.767 96.878 414.632 97.0055 414.47 97.0911C414.308 97.1766 414.125 97.2168 413.942 97.2075H406.879C406.708 97.2121 406.539 97.1713 406.39 97.0894C406.241 97.0074 406.117 96.8874 406.031 96.742L398.968 82.9197H395.307V96.2201C395.297 96.481 395.185 96.7281 394.996 96.9114C394.807 97.0947 394.554 97.2005 394.288 97.2075H387.914C387.782 97.2075 387.651 97.1819 387.53 97.1323C387.408 97.0827 387.297 97.01 387.204 96.9183C387.11 96.8266 387.036 96.7178 386.986 96.598C386.935 96.4782 386.909 96.3498 386.909 96.2201L386.967 61.6644ZM403.16 76.2766C404.255 76.2083 405.281 75.7326 406.031 74.9463C406.78 74.1601 407.197 73.1225 407.194 72.0453C407.187 70.9964 406.759 69.9926 406.004 69.2509C405.25 68.5092 404.228 68.0893 403.16 68.0819H395.307V76.2201L403.16 76.2766Z" fill="white"/>
<path d="M233.17 109.506C236.723 109.422 240.167 110.714 242.759 113.103C242.851 113.195 242.903 113.319 242.903 113.449C242.903 113.578 242.851 113.702 242.759 113.794L242.128 114.457C241.898 114.697 241.697 114.654 241.467 114.457C239.973 113.143 238.176 112.204 236.231 111.723C234.286 111.242 232.251 111.231 230.301 111.693C228.351 112.155 226.544 113.075 225.036 114.374C223.528 115.673 222.363 117.313 221.643 119.152C220.922 120.991 220.666 122.974 220.898 124.932C221.129 126.889 221.841 128.762 222.972 130.389C224.103 132.017 225.619 133.35 227.39 134.275C229.162 135.2 231.135 135.688 233.141 135.698C236.23 135.655 239.194 134.495 241.467 132.44C241.546 132.356 241.653 132.302 241.768 132.287C241.883 132.271 242 132.296 242.099 132.355L242.759 133.018C242.806 133.061 242.843 133.112 242.868 133.169C242.894 133.226 242.907 133.288 242.907 133.35C242.907 133.412 242.894 133.474 242.868 133.531C242.843 133.588 242.806 133.639 242.759 133.681C240.182 136.129 236.725 137.477 233.141 137.433C231.239 137.492 229.345 137.176 227.57 136.502C225.796 135.828 224.177 134.811 222.811 133.51C221.444 132.21 220.358 130.652 219.616 128.931C218.874 127.21 218.491 125.36 218.491 123.491C218.491 121.622 218.874 119.772 219.616 118.05C220.358 116.329 221.444 114.772 222.811 113.472C224.177 112.171 225.796 111.154 227.57 110.48C229.345 109.806 231.239 109.489 233.141 109.549L233.17 109.506Z" fill="white"/>
<path d="M252.608 136.544L264.753 109.577C264.801 109.495 264.87 109.427 264.953 109.38C265.036 109.333 265.131 109.309 265.227 109.309H265.342C265.445 109.297 265.55 109.316 265.642 109.364C265.735 109.412 265.81 109.486 265.858 109.577L277.889 136.544C277.889 136.77 277.889 137.01 277.53 137.01H276.511C276.394 137.006 276.28 136.972 276.181 136.91C276.082 136.848 276.003 136.76 275.951 136.657L272.764 129.605H257.704L254.546 136.657C254.494 136.76 254.414 136.848 254.316 136.91C254.217 136.972 254.103 137.006 253.986 137.01H252.881C252.608 137.01 252.493 136.855 252.608 136.544ZM272.089 128.082L265.342 112.482H265.27L258.408 128.082H272.089Z" fill="white"/>
<path d="M289.675 110.395C289.675 110.26 289.729 110.131 289.826 110.036C289.923 109.941 290.055 109.887 290.192 109.887H298.662C299.86 109.84 301.055 110.031 302.176 110.449C303.297 110.866 304.321 111.502 305.185 112.318C306.05 113.135 306.738 114.114 307.208 115.197C307.678 116.281 307.92 117.447 307.92 118.625C307.92 119.803 307.678 120.969 307.208 122.052C306.738 123.136 306.05 124.115 305.185 124.931C304.321 125.747 303.297 126.383 302.176 126.801C301.055 127.219 299.86 127.41 298.662 127.362H291.484V136.502C291.477 136.576 291.455 136.648 291.419 136.714C291.383 136.78 291.334 136.838 291.276 136.885C291.217 136.933 291.149 136.968 291.077 136.989C291.004 137.011 290.928 137.018 290.852 137.01H290.149C290.012 137.01 289.88 136.956 289.783 136.861C289.686 136.766 289.632 136.637 289.632 136.502L289.675 110.395ZM298.59 125.571C300.494 125.571 302.32 124.828 303.666 123.506C305.012 122.183 305.768 120.389 305.768 118.519C305.734 116.68 304.96 114.929 303.614 113.649C302.269 112.37 300.462 111.666 298.59 111.693H291.57V125.557L298.59 125.571Z" fill="white"/>
<path d="M320.44 110.395C320.44 110.328 320.454 110.262 320.48 110.201C320.506 110.139 320.544 110.083 320.592 110.036C320.64 109.989 320.697 109.951 320.759 109.926C320.822 109.9 320.889 109.887 320.957 109.887H321.819C321.955 109.891 322.084 109.945 322.18 110.04C322.276 110.134 322.332 110.261 322.335 110.395V136.502C322.328 136.642 322.265 136.773 322.161 136.868C322.056 136.963 321.918 137.014 321.776 137.01H320.957C320.82 137.01 320.689 136.956 320.592 136.861C320.495 136.766 320.44 136.637 320.44 136.502V110.395Z" fill="white"/>
<path d="M342.276 111.551H334.796C334.409 111.551 334.28 111.326 334.28 110.973V110.395C334.278 110.328 334.29 110.261 334.315 110.198C334.34 110.136 334.378 110.079 334.426 110.032C334.475 109.984 334.533 109.947 334.596 109.922C334.66 109.897 334.728 109.885 334.796 109.887H351.751C351.819 109.885 351.887 109.897 351.951 109.922C352.015 109.947 352.072 109.984 352.121 110.032C352.169 110.079 352.207 110.136 352.232 110.198C352.258 110.261 352.27 110.328 352.268 110.395V111.044C352.27 111.111 352.258 111.178 352.232 111.24C352.207 111.303 352.169 111.36 352.121 111.407C352.072 111.455 352.015 111.492 351.951 111.517C351.887 111.542 351.819 111.553 351.751 111.551H344.128V136.502C344.121 136.576 344.099 136.648 344.063 136.714C344.027 136.78 343.979 136.838 343.92 136.885C343.861 136.933 343.793 136.968 343.721 136.989C343.648 137.011 343.572 137.018 343.496 137.01H342.778C342.644 137.006 342.516 136.951 342.422 136.856C342.328 136.761 342.276 136.634 342.276 136.502V111.551Z" fill="white"/>
<path d="M358.556 136.544L370.687 109.577C370.733 109.494 370.802 109.426 370.886 109.378C370.969 109.331 371.064 109.307 371.16 109.309H371.275C371.379 109.297 371.484 109.316 371.576 109.364C371.668 109.412 371.744 109.486 371.792 109.577L383.823 136.544C383.894 136.77 383.894 137.01 383.464 137.01H382.43C382.315 137.005 382.203 136.97 382.107 136.908C382.011 136.846 381.934 136.759 381.884 136.657L378.697 129.605H363.623L360.479 136.657C360.425 136.758 360.345 136.844 360.247 136.906C360.149 136.968 360.036 137.004 359.92 137.01H358.814C358.556 137.01 358.441 136.855 358.556 136.544ZM378.037 128.082L371.29 112.482L364.427 128.082H378.037Z" fill="white"/>
<path d="M395.623 110.395C395.623 110.263 395.675 110.136 395.769 110.041C395.863 109.946 395.991 109.891 396.126 109.887H397.001C397.13 109.901 397.248 109.96 397.335 110.053C397.423 110.147 397.472 110.268 397.475 110.395V135.374H410.051C410.525 135.374 410.568 135.614 410.568 135.882V136.573C410.566 136.636 410.551 136.698 410.524 136.755C410.496 136.812 410.457 136.863 410.408 136.904C410.36 136.945 410.303 136.976 410.241 136.994C410.179 137.012 410.115 137.018 410.051 137.01H396.126C395.991 137.006 395.863 136.951 395.769 136.856C395.675 136.761 395.623 136.634 395.623 136.502V110.395Z" fill="white"/>
</g>
<defs>
<clipPath id="clip0_1312_1846">
<rect width="330.435" height="100" fill="white" transform="translate(85 50)"/>
</clipPath>
</defs>
</svg>
